<?xml version="1.0" encoding="UTF-8"?><svg id="a" xmlns="http://www.w3.org/2000/svg" viewBox="0 0 271 338"><defs><style>.b{fill:#418f4e;}</style></defs><path class="b" d="M145.21,273.76c-.07-4.51-.14-9.02-.42-13.52-.25-4.01-.49-8.22-2.14-11.95s-4.73-7.17-7.26-10.51c-2.82-3.71-5.63-7.43-8.46-11.13-2.19-2.87-4.5-5.27-8.2-5.92s-7.17,.06-10.75,0c-3.77-.06-6.99-1.32-9.49-4.19-2.31-2.65-3.76-5.98-5.07-9.2-3.9-9.61-7.74-19.23-11.61-28.85l-1.1,.85c5.47,3.83,11.23,7.22,17.24,10.12,2.93,1.41,5.91,2.71,8.93,3.89,2.86,1.12,5.9,1.99,8.47,3.71,4.88,3.26,6.16,9.39,7.76,14.64,1.74,5.71,4.44,11,7.9,15.86,3.92,5.5,8.61,10.39,13.56,14.96,.43,.39,1.37,.16,1.28-.53-1.02-8.19-2.33-16.39-2.97-24.62-.33-4.22,.02-8.29,.62-12.47,.55-3.79,.97-7.56,.82-11.4-.29-7.45-2.17-14.72-4.28-21.83-1.1-3.69-2.27-7.37-3.34-11.07-.53-1.81-1.03-3.62-1.49-5.45-.22-.87-.43-1.75-.63-2.63-.1-.44-.21-.88-.29-1.32-.14-.8,.29-1.37,1.07-1.56,1.88-.45,3.85-.77,5.79-.75,.94,0,1.88,.11,2.78,.38,.64,.19,2.26,.74,2.55,1.43v.54c.16,.41,.08,.6-.24,.58-.19,.1-.52,.04-.72,.04-.52,0-1.05-.07-1.58-.11-1.27-.11-2.53-.25-3.79-.44-2.26-.34-4.49-.81-6.7-1.38-.94-.24-1.33,1.2-.4,1.45,2.21,.57,4.44,1.04,6.7,1.38,2.02,.3,4.21,.73,6.26,.6,1.3-.08,2.62-.89,2.31-2.37s-2.01-2.43-3.29-2.92c-1.65-.64-3.48-.75-5.23-.63s-3.66,.34-5.32,.89c-1.81,.59-1.88,2.08-1.53,3.71,.44,2.06,.96,4.1,1.51,6.12,2.32,8.49,5.37,16.78,7.12,25.42,.87,4.28,1.38,8.64,1.28,13.02s-1.11,8.97-1.49,13.48c-.45,5.29,.34,10.56,.99,15.8l2,16.09,1.28-.53c-9.02-8.32-17.26-17.88-20.96-29.8-1.56-5.02-2.73-10.66-6.7-14.43-2.09-1.99-4.77-3.11-7.44-4.11-3.16-1.19-6.29-2.41-9.36-3.8-6.9-3.14-13.49-6.93-19.71-11.28-.51-.36-1.34,.25-1.1,.85l10.27,25.53c2.39,5.94,4.79,13.51,11.03,16.51,3.22,1.55,6.81,1.38,10.29,1.18,3.7-.21,7.83-.5,10.84,2.08,1.53,1.31,2.69,3.02,3.9,4.62l4.23,5.57c2.73,3.59,5.56,7.11,8.16,10.8,1.35,1.92,2.46,3.94,3.07,6.22s.84,4.76,1.02,7.17c.38,5.06,.46,10.14,.54,15.21,.02,.96,1.52,.97,1.5,0h0Z"/><path class="b" d="M141.5,147.42c-2.76-4.59-4.73-9.37-6.64-14.35-.88-2.29-2.22-3.68-4.29-4.94-2.38-1.45-4.79-2.87-7.36-3.97-4.66-1.99-9.63-3.06-14.45-4.61s-9.4-3.77-13.08-7.39-6.51-8.3-7.42-13.36c-.97-5.39,1.06-10.97,6.41-13.06s11.29-2.16,16.78-1.64,11.11,1.71,16.69,.92c2.81-.4,5.47-1.35,8.15-2.23s5.41-1.68,8.15-2.39c5.48-1.41,11.25-2.78,16.92-3.07,2.64-.13,5.36,.14,7.69,1.49s3.65,3.6,3.98,6.33c.67,5.63,.55,11.36-1.64,16.65-1.91,4.61-4.5,8.88-6.19,13.59-1.55,4.33-2.72,8.81-4.64,13s-4.84,8.06-9.07,10.35-9.41,3.1-14.29,3.34c-2.66,.13-5.61,.33-8.08-.87-1.99-.97-3.52-2.67-4.47-4.65-2.09-4.34-.75-9.33,2.5-12.71,6.95-7.22,19.24-3,25.7-11.01,1.22-1.51,1.92-3.27,2-5.21,.02-.41-.36-.74-.75-.75-9.18-.13-18.99,.31-27.56-3.57-2.1-.95-4.23-2.12-5.85-3.79s-2.83-4.53-1.54-6.81c1.08-1.92,3.35-2.74,5.39-3.15,2.63-.52,5.35-.5,8.02-.58,5.34-.15,10.7-.25,16.02,.29,2.58,.26,5.24,.65,7.62,1.75,1.84,.85,4.47,2.73,3.95,5.1-.46,2.08-3.04,2.65-4.84,2.9-2.64,.37-5.34,.49-8,.51-2.51,.01-5.04-.09-7.53-.39-2.28-.28-4.94-.81-6.66-2.47-1.48-1.42,.65-2.2,1.79-2.6s2.32-.79,3.5-1.12c2.43-.68,4.98-1.16,7.51-.89,1.26,.14,2.52,.49,3.63,1.1,.58,.31,1.55,.82,1.05,1.54-.27,.4-1.01,.59-1.45,.69-1.39,.32-2.9,.36-4.32,.52-.65,.07-1.31,.17-1.96,.21-.24,.02-.49,.04-.73,.02l-.5-.08c-.38-.34-.51-.75-.38-1.24-.96,.07-.96,1.57,0,1.5,2.34-.17,1-3.54-.8-2.19-.65,.48-.98,1.43-.67,2.19,.45,1.13,1.83,1.36,2.9,1.31,1.71-.08,3.43-.37,5.13-.56,1.26-.14,2.59-.27,3.61-1.09,2.27-1.84-.21-3.76-2-4.53-2.67-1.15-5.61-1.12-8.43-.63-1.48,.26-2.94,.65-4.37,1.1s-2.89,.8-4.11,1.56c-.84,.53-1.56,1.34-1.49,2.4,.08,1.28,1.28,2.17,2.27,2.79,2.55,1.62,5.71,1.95,8.65,2.16,3.72,.28,7.47,.25,11.19-.09,2.46-.22,5.47-.38,7.33-2.25s1.36-4.5-.19-6.35c-1.98-2.36-5.21-3.37-8.13-3.91-7.2-1.32-14.72-.95-22-.7-4.92,.16-13.55,.92-13.01,7.85,.27,3.38,2.79,5.86,5.53,7.55,2.99,1.85,6.35,3.09,9.76,3.87,7.09,1.63,14.44,1.45,21.67,1.55l-.75-.75c-.23,5.32-5.92,8.02-10.44,8.99-5.19,1.11-10.71,1.26-15.09,4.63-3.53,2.72-6.03,7.09-5.67,11.64,.34,4.26,2.98,8.39,7.03,9.97,2.53,.99,5.36,.84,8.02,.72s5.11-.39,7.61-.91c4.8-1,9.39-3.09,12.73-6.77s5-7.94,6.51-12.35c1.64-4.76,3.06-9.53,5.3-14.05,2.48-5,5.11-9.86,5.46-15.54,.18-2.9,.06-5.92-.27-8.81-.28-2.49-1.14-4.78-3.07-6.45-4.03-3.49-9.54-3.12-14.46-2.39-6.07,.91-12.07,2.26-17.95,4.03-2.85,.86-5.65,1.94-8.54,2.68-3.08,.78-6.21,.88-9.37,.65-6.14-.44-12.13-1.7-18.32-1.13-5.03,.46-10.89,1.44-14.01,5.85s-2.67,10.23-.74,15.03,4.9,8.68,8.76,11.76c4.17,3.33,9.13,5.15,14.2,6.63,5.42,1.58,10.8,3,15.75,5.81,2.67,1.52,5.48,2.83,6.65,5.85,.95,2.48,1.82,4.98,2.93,7.4s2.45,4.94,3.87,7.31c.5,.83,1.79,.07,1.3-.76h0Z"/><path class="b" d="M142.02,95.7c.13,.12-.09-.13,.01,.01-.02-.03-.06-.13-.03-.04-.01-.11-.02-.13-.01-.07,0,.06,0,.04,.02-.07-.01,.04-.03,.09-.03,.13-.02,.1,.06-.17,0-.01,.03-.08,.09-.06,0-.01-.08,.05,.13-.07,0-.01,.04-.02,.27-.05,.13-.04l.53,1.28c.76-.65,1.73-2.38,.48-3.05-.48-.26-1.09-.13-1.53,.17-.21,.14-.37,.33-.55,.51-.04,.04-.09,.09-.13,.13,.06-.05,.01-.02-.02,.01-.09,.09,0,0,0,.01-.07,.02-.08,.02-.03,.01,.06,0,.04-.01-.04-.01l.65,1.13c.03-.06,.05-.11,.09-.17-.11,.16,.1-.06-.06,.05,.05-.04,.11-.07,.16-.1-.13,.08,.02,0,.06-.02,.06-.02,.13-.04,.19-.05,.03,0,.23-.04,.07-.02,.12-.02,.25-.02,.37-.03,.04,0,.1,0,.14,0,.04,0-.21-.05-.06,0,.08,.03,.17,.04,.25,.07,.11,.04,.21,.08,.32,.12-.17-.06,.02,.01,.05,.02,.06,.03,.11,.05,.17,.08,.2,.09,.38,.2,.57,.32,.14,.08-.03-.05-.01-.01,.01,.02,.04,.04,.06,.06,.09,.1,.04,.02-.13-.24l.29-.75c.14-.05,.17-.07,.1-.04h-.03s-.05,.02-.08,.02l.11-.02s-.13,0-.14,0c-.1,0-.21,0-.31-.01-.15-.01,.15,.04,0,0-.05-.01-.09-.02-.14-.03-.03,0-.07-.03-.1-.03,.05,.01,.07,.03,.16,.1l-.33,1.25s.08,0,.11-.02c-.12,.06-.19,.02-.11,.02,.03,0,.07,0,.1-.01,.14-.01,.28-.03,.42-.04,.33-.03,.67-.05,1-.08,.63-.06,1.7-.08,1.92-.84,.25-.85-.76-1.22-1.36-1.43-.67-.24-1.36-.42-2.06-.54-.35-.06-.7-.12-1.04-.05-.61,.12-1.25,.46-1.69,.9-.29,.29-.29,.78,0,1.06s.77,.29,1.06,0c.03-.03,.07-.07,.1-.1-.08,.07,.01-.01,.03-.02,.09-.06,.18-.12,.27-.17s.21-.1,.23-.11c.11-.04,.22-.07,.33-.1,.22-.07-.11,0-.05,0,.03,0,.07,0,.1,0,.04,0,.09,0,.13,.01,.19,.01-.16-.03,.03,0,.6,.1,1.19,.24,1.77,.42,.14,.04,.27,.09,.4,.13,.06,.02,.12,.04,.18,.07,.03,.01,.06,.02,.09,.03,.15,.06-.16-.08-.02,0,.08,.04,.17,.09,.25,.13,.13,.07-.09-.08-.05-.04,0,0,.02,.02,.03,.03-.15-.16-.24-.41-.16-.63,.06-.17,.19-.32,.26-.37-.11,.07,.15-.04,.06-.02-.1,.01-.2,.05-.3,.07-.06,.01-.13,.02-.19,.03-.05,0-.13,.04,.06,0-.03,0-.07,0-.1,.01-.15,.02-.29,.03-.44,.04-.57,.05-1.19,.04-1.75,.17-.51,.12-.78,.9-.33,1.25s1,.44,1.53,.41c.3-.02,.58-.06,.82-.25,.37-.29,.43-.8,.15-1.17-.3-.39-.8-.63-1.24-.82-.5-.22-.98-.42-1.53-.38-.78,.05-1.7,.27-2.05,1.06-.24,.53,.04,1.09,.65,1.13,.47,.03,.87-.21,1.2-.51,.11-.1,.21-.21,.31-.31,.03-.03,.06-.06,.1-.09-.07,.05-.07,.05,0,0,.04-.02,.2-.07,.06-.03,.05-.01,.22-.03,.04-.02,.09,0,.08,0-.03,0-.07-.02-.12-.05-.16-.11,.02,.02-.17-.2-.11-.21,0,0-.07,.22-.08,.23,.03-.07-.07,.13-.08,.15-.05,.08-.1,.17-.15,.24,.05-.07-.09,.1-.09,.1-.07,.08-.16,.15-.24,.22-.5,.42-.09,1.3,.53,1.28,1.18-.03,1.87-1.6,.97-2.45-.3-.28-.77-.29-1.06,0s-.3,.78,0,1.06h0Z"/><path class="b" d="M147.2,151.11c8.22-.66,14.59-6.77,18.72-13.5,2.47-4.02,4.3-8.4,6.29-12.66,2.11-4.54,4.46-8.87,7.58-12.8,4.72-5.94,14.15-14.33,9.59-22.83-1.89-3.52-5.94-4.63-9.64-5-4.8-.48-9.64-.36-14.45-.75-5.23-.42-10.35-1.39-15.18-3.5-4.57-1.99-8.96-4.36-13.56-6.3-8.6-3.64-18.76-6.99-28.2-5.1-4.02,.8-7.74,2.88-10.1,6.29s-2.52,7.59-.93,11.46c.89,2.18,2.12,4.21,3.25,6.27,1.22,2.23,2.4,4.48,3.54,6.75,2.21,4.41,4.83,9.08,4.71,14.15-.11,4.64-1.99,9-2.93,13.49-.86,4.09-.8,8.22,1.22,11.96,4.43,8.22,14.6,11.11,23.16,12.56,2.45,.41,4.91,.69,7.39,.84,.96,.06,.96-1.44,0-1.5-4.95-.3-9.86-1.13-14.61-2.54-4.15-1.22-8.28-2.98-11.45-6s-4.92-6.81-4.76-11.12,1.75-8.19,2.71-12.24,1.05-8.16-.42-12.23c-1.57-4.35-3.85-8.51-6.01-12.59-2.05-3.86-5.22-8.02-5.42-12.54-.17-4.05,2.51-7.69,5.89-9.68,3.97-2.34,8.82-2.58,13.31-2.17s9.2,1.61,13.59,3.16,8.85,3.57,13.15,5.65,8.19,4.01,12.67,5.08,9.02,1.4,13.57,1.61c4.21,.19,8.72-.08,12.83,.97,2,.51,3.93,1.49,5.09,3.27s1.41,4.03,1.06,6.09c-.75,4.48-4.08,8.15-6.9,11.51s-5.68,6.83-7.88,10.74-3.93,8.03-5.83,12.07c-3.39,7.19-7.83,14.69-15.36,18.14-1.79,.82-3.71,1.32-5.68,1.48-.96,.08-.96,1.58,0,1.5h0Z"/></svg>