<?xml version="1.0" encoding="UTF-8"?><svg xmlns="http://www.w3.org/2000/svg" viewBox="0 0 840 749"><defs><style>.c{fill:#ffd1fa;}.d{fill:#418f4e;}</style></defs><g id="a"/><g id="b"><circle class="c" cx="426.5" cy="374.5" r="349.5"/><g><path class="d" d="M452.21,702.04c-.22-14.17-.44-28.36-1.34-42.51-.86-13.58-1.78-27.65-7.83-40.07-2.83-5.81-6.7-11.04-10.59-16.18-4.36-5.76-8.74-11.5-13.11-17.26-8.65-11.38-17.24-22.82-25.95-34.15-3.94-5.12-8.11-10.11-13.76-13.41-5.03-2.94-10.67-4.29-16.43-4.85-11.35-1.1-22.71,1.29-34.07,.34-10.43-.87-18.56-5.91-25-13.99s-10.36-17.47-14.04-26.59c-10.71-26.51-21.35-53.05-32.02-79.57l-4.05-10.06-6.61,5.08c16.95,11.88,34.83,22.41,53.46,31.43,9.45,4.57,19.09,8.76,28.87,12.58,8.73,3.4,17.97,6.07,25.84,11.3,14.37,9.56,18.33,27.9,23,43.39,5.46,18.11,13.77,34.96,24.67,50.42,12.45,17.66,27.41,33.37,43.28,47.99,1.34,1.23,3.22,1.68,4.92,.93,1.48-.65,2.99-2.35,2.77-4.11l-4.99-40.15c-1.66-13.37-3.71-26.76-4.52-40.22s.82-25.79,2.66-38.72,2.72-25.25,1.78-38.05c-1.8-24.53-8.59-48.28-15.72-71.7-3.63-11.91-7.36-23.79-10.62-35.8-1.6-5.91-3.09-11.86-4.39-17.85-.22-1-.62-2.17-.63-3.17,0-.18-.25,0-.26,.05,.06-.27,.77-.41,1.08-.5,2.42-.74,5-1.12,7.49-1.55,4.98-.87,10.15-1.41,15.2-.83,2.04,.23,4.44,.8,6.39,1.64,1.02,.44,2.07,1.05,3.02,1.67,.26,.17,2.42,2.14,2.35,2.15,.18-.05,.2-.52,.3-.72,.26-.52,.65-.15,.06-.13,.56-.02-.46,.09-.68,.13,.52-.09-.98,.04-1.25,.03-3.06-.03-6.16-.41-9.2-.72-6.33-.66-12.62-1.68-18.85-2.99-3.19-.67-6.36-1.43-9.51-2.25-5.61-1.47-8,7.21-2.39,8.68,6.79,1.77,13.67,3.21,20.61,4.26,3.62,.55,7.25,1.02,10.9,1.38,3.09,.31,6.33,.81,9.44,.63,2.86-.17,5.78-.94,7.72-3.18,2.52-2.91,2.39-7.06,.3-10.17-3.31-4.92-9.73-7.8-15.39-8.86-6.02-1.12-12.02-.78-18.04,.08-2.83,.4-5.65,.93-8.45,1.51s-5.69,1.46-7.64,3.71c-2.63,3.03-2.23,6.86-1.45,10.51,.66,3.11,1.38,6.2,2.13,9.29,1.58,6.43,3.33,12.81,5.18,19.17,7.35,25.34,16.23,50.36,20.88,76.4,2.25,12.63,3.35,25.48,2.7,38.3-.71,13.84-3.87,27.4-4.75,41.22s1.09,28.55,2.85,42.71l5.38,43.23,1.34,10.81,7.68-3.18c-27.55-25.38-53.14-54.69-64.59-91.04-5.16-16.4-8.84-34.86-21.85-47.16-7.31-6.91-16.66-10.61-25.94-14.05s-18.88-7.29-28.08-11.52c-21.16-9.72-41.41-21.37-60.48-34.74-3.06-2.14-8.06,1.48-6.61,5.08l32.1,79.77c4.32,10.72,8.33,21.74,14.26,31.71,5.27,8.84,12.4,17.21,21.96,21.52,10.9,4.91,22.69,4.16,34.32,3.5,10.27-.58,21.99-1.27,30.34,5.86,4.71,4.01,8.27,9.22,11.99,14.11l13.22,17.4c8.5,11.19,17.34,22.2,25.46,33.67,3.61,5.11,6.79,10.47,8.68,16.46s2.83,12.7,3.42,19.18c1.26,13.96,1.68,27.98,1.94,41.99,.07,3.58,.12,7.15,.18,10.73,.09,5.79,9.09,5.8,9,0h0Z"/><path class="d" d="M440.34,306.16c-4.4-7.29-8.43-14.8-11.96-22.55-1.82-3.99-3.04-6.91-4.65-11.06s-2.82-8.03-4.42-11.97c-1.7-4.18-3.87-8.04-7.39-10.96s-7.37-5.05-11.19-7.33c-7.69-4.58-15.55-8.68-23.93-11.88-15.36-5.87-31.58-9.07-47.02-14.71-.94-.35-1.89-.7-2.82-1.06-.83-.32-2.24-.89-2.69-1.08-.36-.15-1.73-.75-2.44-1.07-.92-.42-1.82-.84-2.73-1.28-3.54-1.73-6.96-3.67-10.24-5.84-1.6-1.06-3.17-2.18-4.7-3.35-.41-.31,0,0,.06,.05-.17-.13-.34-.26-.5-.4-.33-.27-.67-.54-1-.81-.77-.63-1.53-1.28-2.28-1.94-2.84-2.49-5.52-5.17-8.02-8-1.23-1.39-2.41-2.82-3.55-4.28,.47,.6-.34-.46-.46-.62-.26-.34-.51-.69-.76-1.04-.58-.81-1.15-1.63-1.71-2.46-2.1-3.14-4.01-6.41-5.68-9.8-3.44-6.94-6.21-15.39-6.69-22.97-.14-2.23-.14-4.47,.04-6.7,.03-.42,.08-.85,.12-1.27,0-.05,.09-.75,.02-.25-.07,.55,.05-.34,.07-.46,.14-.91,.32-1.82,.53-2.72,.43-1.87,.99-3.71,1.69-5.5,.08-.2,.16-.4,.24-.59-.03,.08-.25,.57-.04,.1,.17-.39,.35-.77,.54-1.16,.43-.89,.9-1.76,1.4-2.61,.47-.79,.96-1.56,1.49-2.31,.12-.18,.74-1,.31-.44,.35-.44,.71-.87,1.08-1.3,1.21-1.38,2.54-2.68,4-3.8-.48,.37,.4-.27,.54-.37,.43-.3,.87-.59,1.32-.87,.83-.52,1.67-1,2.54-1.45,.47-.24,.94-.47,1.42-.7,.21-.1,1.1-.5,.91-.42-.39,.17,.29-.12,.3-.12,.28-.11,.56-.22,.84-.33,.5-.19,.99-.37,1.49-.54,3.91-1.36,7.97-2.28,12.04-3.04,4.63-.87,8.44-1.37,13.17-1.74,9.16-.71,18.31-.35,27.44,.62,18.35,1.94,36.77,5.51,55.13,1.68,8.88-1.85,17.39-5.18,26.02-7.89s17.52-5.17,26.41-7.3,18.01-3.99,27.1-5.52c4.5-.76,8.86-1.45,13.01-1.91,4.57-.5,9.18-.76,13.77-.44,2.28,.16,3.57,.33,5.82,.84,1.79,.4,3.56,.94,5.28,1.6,.24,.09,1.12,.48,.44,.17,.37,.17,.75,.34,1.12,.51,.86,.41,1.7,.86,2.52,1.35,.76,.45,1.5,.93,2.22,1.44,.15,.11,.97,.73,.68,.5-.37-.3,.14,.12,.18,.15,.2,.17,.41,.35,.61,.52,.65,.57,1.28,1.18,1.88,1.81,.32,.34,.63,.69,.93,1.05,.13,.15,.25,.31,.38,.46,.43,.53-.34-.53,.02,.05,.46,.74,.98,1.43,1.41,2.2,.2,.35,.39,.71,.57,1.07,.1,.19,.19,.39,.28,.58,.33,.71-.18-.49,.1,.24,1.64,4.18,1.94,7.48,2.22,11.67,.6,9.03,1.16,18.21,.2,27.24-.05,.51-.11,1.03-.18,1.54,.06-.46-.15,.93-.17,1.11-.17,1.04-.37,2.08-.59,3.12-.44,2.06-.98,4.09-1.6,6.1s-1.26,3.84-1.98,5.73c-.36,.95-.74,1.89-1.13,2.82,0-.01-.29,.69-.14,.33s-.15,.34-.14,.32c-.25,.57-.5,1.15-.76,1.72-3.37,7.54-7.34,14.8-10.91,22.25-3.37,7.03-6.21,14.28-8.74,21.65-2.37,6.91-4.53,13.89-6.92,20.8-1.18,3.42-2.42,6.81-3.76,10.17-.3,.75-.61,1.5-.92,2.25,.34-.8-.18,.4-.26,.6-.19,.43-.38,.86-.57,1.29-.74,1.65-1.51,3.28-2.33,4.88-1.58,3.12-3.33,6.17-5.28,9.08-.44,.66-.89,1.3-1.35,1.95-.27,.37-.54,.75-.82,1.11-.12,.16-.24,.32-.36,.47,.26-.35,.22-.28-.02,.03-1.07,1.34-2.18,2.65-3.36,3.91-1.23,1.32-2.52,2.59-3.87,3.79-.69,.61-1.39,1.21-2.1,1.79-.16,.13-.98,.78-.44,.36-.39,.3-.8,.6-1.2,.89-3.04,2.2-6.29,4.12-9.67,5.75-.83,.4-1.67,.79-2.51,1.16-.2,.09-.39,.17-.59,.25,.08-.03,.57-.24,.09-.04-.53,.21-1.06,.43-1.59,.63-1.73,.67-3.49,1.27-5.26,1.82-3.65,1.13-7.38,2.03-11.14,2.74-1.86,.35-3.73,.65-5.6,.92-.14,.02-.88,.12-.1,.02-.22,.03-.43,.06-.65,.08-.43,.06-.87,.11-1.3,.16-1.01,.12-2.03,.23-3.05,.33-3.84,.38-7.69,.62-11.54,.76-4.2,.15-8.43,.27-12.63-.13-.32-.03-1.4-.16-1.39-.15,.38,.06-.42-.07-.39-.07-.25-.04-.49-.08-.74-.13-1.15-.21-2.28-.48-3.4-.81-.8-.24-1.58-.54-2.37-.82,.74,.26,.01,0-.3-.14-.39-.18-.79-.38-1.17-.58-1.49-.77-2.9-1.68-4.24-2.69,.62,.47,0-.02-.25-.23-.29-.24-.57-.48-.84-.73-.65-.58-1.27-1.19-1.87-1.83-.56-.59-1.09-1.2-1.61-1.83-.12-.15-.23-.29-.35-.44,.04,.05,.42,.58,.13,.17s-.59-.81-.87-1.23c-.92-1.35-1.75-2.77-2.48-4.23-.17-.34-.33-.68-.49-1.02-.06-.12-.39-.85-.16-.33,.22,.49-.04-.09-.07-.16-.33-.82-.63-1.65-.9-2.5-.5-1.56-.9-3.16-1.18-4.78-.06-.37-.12-.75-.18-1.12,.13,.91,0-.15-.03-.5-.07-.82-.12-1.63-.13-2.45s0-1.64,.05-2.46c.02-.38,.05-.76,.09-1.14,.02-.26,.06-.53,.08-.79,.06-.7-.12,.71,0,.02,.3-1.69,.63-3.36,1.12-5.01,.24-.82,.51-1.63,.81-2.43,.14-.37,.29-.73,.43-1.1-.02,.06-.28,.64-.07,.17,.13-.3,.27-.6,.4-.9,.72-1.55,1.54-3.06,2.45-4.52,.45-.73,.93-1.45,1.43-2.15,.23-.32,.47-.64,.7-.96,.3-.42-.05,.06-.1,.12,.21-.26,.41-.52,.62-.78,1.1-1.34,2.27-2.61,3.51-3.81,.62-.6,1.26-1.19,1.91-1.76,.3-.26,.61-.52,.92-.77,.15-.13,.31-.25,.47-.38,.06-.05,.71-.55,.33-.26-.42,.32,.25-.18,.34-.25,.16-.12,.32-.24,.49-.35,.33-.23,.65-.46,.98-.69,.77-.52,1.56-1.02,2.36-1.5,1.51-.9,3.07-1.69,4.67-2.42,.46-.21,1.28-.54,2.24-.89,1.04-.38,2.09-.74,3.15-1.07,1.97-.61,3.97-1.13,5.98-1.59,4.13-.95,8.31-1.63,12.5-2.31,7.86-1.27,15.9-2.43,23.33-5.45,6.83-2.77,13.38-6.66,18.34-12.19s7.86-11.93,8.07-19.2c.07-2.46-2.12-4.46-4.5-4.5-16.12-.24-32.28-.05-48.34-1.73-.99-.1-1.98-.22-2.97-.33-.46-.05-.91-.11-1.36-.17-.01,0-.76-.1-.31-.04,.4,.05-.46-.06-.54-.07-1.96-.27-3.91-.58-5.86-.93-3.94-.7-7.85-1.57-11.7-2.63s-7.47-2.27-11.09-3.71c-.42-.17-.84-.34-1.25-.51,.59,.25-.42-.18-.58-.26-.97-.42-1.92-.86-2.87-1.32-1.77-.85-3.52-1.76-5.23-2.73s-3.35-1.97-4.96-3.06c-.43-.29-.85-.59-1.28-.89-.19-.13-.96-.71-.79-.58s-.58-.47-.76-.62c-.4-.33-.79-.67-1.17-1.01-.71-.64-1.4-1.31-2.06-2-.3-.32-.6-.65-.89-.98-.14-.17-.28-.34-.43-.5-.5-.57,.02,.06-.25-.3-.53-.7-1.02-1.44-1.48-2.19-.22-.37-.44-.75-.64-1.13-.14-.26-.27-.52-.39-.78-.03-.07-.38-.83-.22-.46,.17,.41-.09-.25-.1-.27-.07-.21-.15-.41-.22-.62-.14-.41-.27-.83-.39-1.25-.14-.49-.26-.98-.36-1.48-.04-.21-.07-.43-.12-.64-.17-.69,.04,.62-.02-.09-.07-.86-.13-1.71-.1-2.58,.01-.5,.05-1,.1-1.49-.09,.8,.11-.44,.17-.7,.1-.42,.21-.83,.34-1.24,.07-.22,.57-1.38,.25-.73,.36-.75,.76-1.47,1.23-2.16,.11-.16,.22-.31,.33-.46-.04,.06-.46,.54-.12,.17,.29-.33,.57-.67,.88-.99,.57-.59,1.19-1.13,1.81-1.66,.39-.33-.1,.09-.16,.12,.21-.14,.41-.3,.63-.44,.32-.22,.64-.43,.97-.63,.72-.44,1.46-.84,2.22-1.21,.41-.2,.83-.39,1.25-.58-.71,.31,.12-.04,.39-.14,.87-.33,1.74-.62,2.63-.88,1.68-.5,3.39-.88,5.11-1.19,2.24-.4,3.73-.57,6.13-.78,9.15-.8,18.41-.83,27.59-1s18.66-.19,27.98,.28c4.61,.23,9.21,.59,13.8,1.1,2.37,.26,3.2,.37,5.45,.73,2.04,.33,4.07,.72,6.09,1.21s4.13,1.09,6.14,1.81,2.93,1.11,4.98,2.2c.8,.43,1.59,.87,2.36,1.37,.35,.23,.7,.47,1.04,.71,.71,.5,.26,.18,.1,.06,.22,.18,.44,.36,.66,.54,.65,.55,1.27,1.14,1.86,1.76,.34,.36,.66,.73,.99,1.11s0-.01-.05-.08c.17,.22,.33,.45,.49,.68,.47,.68,.86,1.39,1.25,2.13s.11,.21,.04,.03c.07,.19,.14,.37,.21,.56,.15,.43,.28,.88,.38,1.32,.09,.38,.09,1.12,.08,.34,0,.45,.05,.9,.03,1.36,0,.2-.03,.39-.04,.58,0-.1,.17-.71,.02-.22-.14,.45-.23,.91-.37,1.36-.24,.81,.31-.5-.09,.22-.2,.35-.39,.69-.6,1.03-.09,.14-.2,.28-.29,.42,.04-.06,.53-.56,.18-.25-.29,.26-.53,.59-.81,.86-.16,.15-1,.87-.58,.53,.44-.35-.39,.26-.53,.35-.64,.42-1.31,.79-2,1.12-.22,.1-.44,.2-.65,.3,.05-.02,.72-.27,.24-.11-.35,.12-.68,.26-1.03,.38-.82,.28-1.65,.53-2.49,.74-.72,.18-1.45,.34-2.19,.49-.36,.07-.73,.14-1.1,.2-.24,.04-.49,.08-.73,.12-.11,.02-.91,.14-.31,.05s-.58,.07-.74,.09c-.53,.06-1.06,.12-1.59,.18-1.23,.14-2.47,.26-3.7,.37-2.3,.21-4.59,.38-6.89,.52-9.29,.55-18.62,.5-27.9-.16-2.12-.15-4.23-.32-6.34-.55-.44-.05-.88-.1-1.32-.15-.22-.03-1.29-.17-.56-.07-1.03-.15-2.05-.31-3.07-.5-1.88-.35-3.75-.77-5.58-1.32-.91-.27-1.8-.57-2.69-.9-.2-.08-.41-.16-.61-.23-.02,0-.68-.29-.26-.11s-.23-.11-.26-.12c-.26-.12-.52-.24-.78-.37-.84-.41-1.66-.86-2.46-1.35-.37-.23-.73-.46-1.09-.7-.17-.12-1.2-.86-.67-.45-.74-.57-1.45-1.2-2.06-1.9-.34-.39,0,0,.05,.07-.11-.18-.21-.37-.32-.54-.28-.42,.03,.01,.05,.12-.11-.54,0-.35-.03,.03,.06-.68-.23,.05-.08,.21-.03-.03,.11-.42,.12-.46,.18-.48-.14,.33-.15,.34,.1-.12,.14-.29,.25-.42,.33-.38-.2,.24-.21,.25,.12-.12,.22-.26,.35-.37s.26-.24,.37-.36c.57-.58-.37,.19,.07-.06,.64-.37,1.24-.78,1.91-1.12,.15-.08,1.12-.51,.64-.31-.5,.21,.06-.02,.14-.05,.29-.11,.58-.22,.87-.32,7.32-2.62,14.8-5.03,22.49-6.29,.51-.08,1.03-.16,1.54-.24-.73,.11,.34-.04,.56-.06,.94-.11,1.89-.19,2.84-.26,1.87-.12,3.74-.15,5.61-.06,.92,.04,1.84,.12,2.75,.22s-.39-.08,.48,.07c.55,.09,1.11,.19,1.65,.3,1.79,.37,3.52,.89,5.23,1.53,.78,.29-.27-.15,.49,.2,.39,.18,.77,.36,1.15,.55,.9,.45,1.78,.95,2.63,1.49,.35,.22,.7,.44,1.03,.69-.59-.44,.11,.15,.3,.34-.44-.42,.13-.26,0,.02-.01,.02-.19-.7-.09-.21,.11,.52-.02-.44-.01-.45s0,.57,0,.57c-.02-.01,.16-.97,.04-.52s.17-.43,.21-.43c-.02,0-.19,.34-.21,.37-.34,.45,.65-.56,.17-.22-.13,.09-.78,.82-.34,.37,.39-.39,.07-.05-.06,.03-.19,.12-.37,.24-.57,.35-.3,.17-.61,.32-.91,.48-.23,.12-.74,.2,.1-.04-.17,.05-.33,.13-.5,.18-.74,.22-1.46,.45-2.22,.6-.17,.03-.34,.05-.51,.09-.66,.17,1.02-.1,.1-.01-.54,.05-1.08,.12-1.61,.18l-3.49,.39-7.26,.81c-2.1,.24-4.21,.55-6.33,.66-.4,.02-.79,.03-1.19,.03-.18,0-1.28-.07-.77-.02s-.73-.21-.88-.23c.08,.01,.65,.37,.23,.1-.08-.05-.75-.46-.31-.14s-.06-.05-.1-.13c.13,.24,.27,.45,.4,.69,.28,.52,.07,.23,.03,.04,0-.03,.08,1.02,.08,.53,0-.47-.09,.51-.1,.51-.06,.03,.16-.52,.14-.54,0,0-.38,.87-.17,.44,.02-.03,.22-.34,.21-.36,.11,.16-.72,.72,0,.12-.28,.24-.53,.36-.83,.55-.47,.28-.34,.13-.1,.07-.79,.2-1.67,.14-2.36-.29-.63-.39-.62-.71-.94-1.5-.39-.96-.58-1.61-.05-2.58,.61-1.11,2.77-1.33,3.52-1.22-2.32-.32-4.95,.56-5.54,3.14-.48,2.12,.65,5.19,3.14,5.54,1.64,.23,3.02,.2,4.49-.67,1.34-.79,2.47-2.32,2.79-3.85,.68-3.21-1.15-6.41-4.39-7.25-5.17-1.33-9.34,4.15-8.7,8.9,.74,5.53,6.79,7.41,11.6,7.12,5.18-.32,10.38-1.13,15.54-1.71,4.33-.48,8.74-.86,12.4-3.49,1.88-1.35,3.52-3.15,4.04-5.48,.63-2.79-.25-5.46-2.07-7.61-1.46-1.73-3.67-2.99-5.65-4.02-2.09-1.08-4.3-1.99-6.56-2.66-4.22-1.26-8.73-1.74-13.13-1.67-9.12,.15-18.13,2.49-26.74,5.33-3.96,1.31-8.45,2.44-11.83,4.98-1.96,1.47-3.67,3.26-4.38,5.68-.77,2.6-.27,5.52,1.28,7.75,2.84,4.08,7.49,6.68,11.98,8.56,4.07,1.7,8.38,2.67,12.74,3.29,10.18,1.44,20.55,1.81,30.81,1.57,5.32-.12,10.63-.45,15.92-.97,4.31-.42,8.69-.83,12.85-2.09,3.82-1.16,7.73-3.02,10.39-6.09,3.21-3.71,4.4-8.42,3.47-13.23-.87-4.48-3.86-8.62-7.22-11.58-3.73-3.29-8.14-5.5-12.77-7.22-9.34-3.48-19.62-4.4-29.49-5.1-10.46-.74-20.95-.8-31.43-.61-5.33,.09-10.66,.25-16,.4s-10.39,.29-15.56,.87c-8.79,.98-18.22,3.02-24.71,9.52-7.14,7.15-7.49,17.83-3.11,26.54s12.5,13.98,20.52,18.2,16.74,7.3,25.6,9.35c18.08,4.2,36.79,4.65,55.27,4.86,4.46,.05,8.92,.09,13.38,.15l-4.5-4.5c-.01,.44-.03,.89-.07,1.33-.01,.18-.15,1.25-.06,.71s-.14,.72-.17,.86c-.09,.42-.19,.84-.3,1.25-.21,.77-.46,1.51-.73,2.26-.03,.08-.26,.65-.05,.14,.22-.55-.08,.17-.14,.3-.18,.39-.37,.77-.57,1.15-.37,.7-.78,1.39-1.21,2.06-.23,.36-.48,.72-.73,1.07-.11,.15-.22,.3-.33,.45-.38,.54,.45-.53,.02-.03-1.12,1.29-2.24,2.56-3.5,3.72-.62,.56-1.25,1.11-1.9,1.63-.1,.08-.75,.57-.31,.25,.4-.3-.12,.08-.17,.12-.37,.27-.74,.54-1.11,.79-1.46,1.01-2.98,1.93-4.54,2.77-.81,.44-1.64,.85-2.48,1.24-.36,.17-.72,.33-1.08,.49-.05,.02-.66,.29-.19,.09,.52-.22-.57,.23-.56,.22-1.63,.65-3.29,1.22-4.97,1.7-16.35,4.7-34.25,3.99-49.19,13.1-13.05,7.96-22.81,22.09-23.25,37.65-.41,14.4,7.86,29.6,21.13,35.76,8.29,3.85,17.44,3.81,26.4,3.46,8.11-.32,16.23-1.09,24.2-2.61,15.5-2.96,30.59-9.39,41.61-20.98,10.43-10.97,16.5-25.06,21.42-39.17,2.45-7.03,4.65-14.14,7.06-21.19,1.19-3.5,2.44-6.99,3.79-10.43,.32-.82,.65-1.64,.99-2.46,.09-.22,.58-1.36,.25-.61,.21-.48,.42-.97,.63-1.45,.85-1.94,1.75-3.86,2.67-5.77,3.72-7.72,7.85-15.25,11.27-23.12,3.65-8.41,6.33-16.94,7.28-26.09s.39-18.53-.27-27.7c-.32-4.49-.84-9.12-2.49-13.35s-3.87-7.62-6.99-10.62c-5.83-5.59-13.62-8.92-21.57-10.03-9.84-1.37-19.6-.07-29.35,1.46-18.65,2.92-37.09,7.16-55.14,12.68-8.84,2.7-17.52,6.09-26.53,8.23-4.64,1.1-8.28,1.61-13,1.84s-9.25,.1-13.86-.22c-9.41-.66-18.75-2.12-28.12-3.12s-18.81-1.34-28.23-.56-18.42,2.09-27.03,5.12-15.44,7.71-20.38,15.08c-10.33,15.4-7.7,35.02-.65,51.13,6.39,14.59,16.81,27.2,29.53,36.72,13.52,10.13,29.71,15.39,45.77,19.97,8.09,2.31,16.23,4.52,24.18,7.3,1.98,.69,3.95,1.42,5.89,2.2s3.01,1.22,5.13,2.21c4.13,1.92,8.13,4.11,12.06,6.4s7.85,4.44,11.49,7.04c.19,.13,.38,.27,.56,.41-.08-.06-.4-.32,0,0,.41,.34,.82,.69,1.21,1.06,.33,.31,.66,.64,.97,.98,.16,.17,.31,.34,.46,.52,.19,.24,.2,.23,.02,0l.27,.37c.56,.82,1.08,1.67,1.54,2.56,.21,.41,.41,.83,.6,1.25,.1,.21,.19,.42,.28,.63-.25-.58,.12,.33,.16,.43,1.58,4.05,2.93,8.18,4.52,12.23s3.42,8.4,5.3,12.52c3.51,7.67,7.5,15.11,11.86,22.34,1.22,2.01,4.09,2.94,6.16,1.61s2.92-4,1.61-6.16h0Z"/><path class="d" d="M438.56,147.17c.49,.46-.61-.98-.3-.4-.11-.2-.39-1.21-.27-.47l-.16-1.2c.01,.17,.01,.32,0,.49l.16-1.2c-.02,.17-.06,.32-.1,.49-.15,.42-.06,.21,.26-.62-.16,.26-.1,.2,.17-.18,.73-.93-.58,.39,.36-.35,.38-.27,.44-.33,.19-.18,.84-.31,1.05-.41,.62-.3l1.2-.16c-.11,.02-.22,.03-.33,.03l3.18,7.68c1.63-1.38,2.71-3.19,3.47-5.15,1.08-2.77,.4-6.19-2.34-7.72-2.14-1.2-4.92-.9-6.94,.42-.79,.52-1.43,1.15-2.08,1.81-.13,.14-.28,.26-.41,.4-.44,.47,.38-.25,.39-.27-.05,.13-.88,.44-.02,.09,.72-.3,.14-.09-.06-.05l1.2-.16c-.14,.02-.28,.01-.43,0l3.89,6.77c.05-.12,.13-.24,.18-.36,.26-.62-.54,.63-.29,.38,.28-.28-.85,.48-.47,.34,.05-.02,.4-.27,.42-.25,.02,.04-1.13,.39-.52,.22,.13-.04,.26-.09,.39-.12,.34-.09,.69-.16,1.04-.21l-1.2,.16c.64-.08,1.33-.18,1.97-.1l-1.2-.16c.48,.08,.94,.23,1.39,.39,.38,.14,1.41,.63-.04-.04,.29,.14,.59,.26,.88,.4,.51,.25,1.02,.52,1.51,.82,.11,.07,.21,.15,.32,.21,.51,.3-.73-.66-.54-.42,.88,1.05-.86-2.19-.77-1.46l-.16-1.2v.06l.15-1.2c.5-1.53,1.44-2.48,2.81-2.87-.05,.02-.1,.03-.15,.05-.14,.02-.28,.06-.42,.08l1.2-.16c-.63,.07-1.25,.04-1.88-.04l1.2,.16c-.28-.04-.55-.09-.83-.17-.09-.03-.23-.1-.32-.11,.62,.02,1.1,.56,1.52,.9l-1.99,7.52c.14-.03,.28-.06,.42-.08l-1.2,.16c1.85-.25,3.72-.29,5.57-.5,1.19-.13,2.45-.23,3.61-.58,2.13-.66,4.12-2.38,4.03-4.83-.13-3.59-3.34-4.96-6.25-5.95-2.04-.69-4.16-1.25-6.28-1.6-1.49-.24-2.81-.46-4.3-.14-2.26,.49-4.58,1.74-6.22,3.37s-1.79,4.72,0,6.36,4.58,1.77,6.36,0c.11-.11,.67-.57,.05-.1s-.02,.03,.13-.07c.35-.23,.73-.42,1.1-.61,.58-.3-.32,.08-.38,.15,.08-.09,.45-.16,.58-.21,.28-.09,.58-.19,.88-.23l-1.2,.16c.4-.04,.81,.02,1.21,.07l-1.2-.16c1.91,.26,3.81,.74,5.66,1.3,.46,.14,.91,.28,1.36,.44,.22,.08,.44,.15,.65,.24,.09,.03,.18,.07,.27,.1,.64,.24-.62-.26-.63-.27,.25,.17,.59,.29,.86,.43,.66,.34-.73-.63-.54-.45,.16,.15,.32,.38-.23-.32-.28-.37-.67-1.03-.73-1.36l-.16-1.2v.04l.16-1.2c-.16,.82,1.64-2.38,1.05-1.79,.94-.93,1.09-.77,.7-.56s1.24-.42,.77-.33c-.09,.02-.2,.06-.29,.09-.5,.14-1.02,.21-1.53,.28l1.2-.16c-2.58,.34-5.33,.2-7.87,.82-1.51,.36-2.74,1.67-3.14,3.14s-.06,3.41,1.16,4.38c.99,.79,2.02,1.41,3.28,1.64,.98,.18,2.03,.34,3.03,.29,1.44-.08,2.72-.34,3.88-1.24,2.1-1.62,2.46-4.58,.85-6.67-1.13-1.46-2.82-2.38-4.48-3.12-1.91-.84-3.76-1.62-5.88-1.49-3.15,.19-6.85,1.21-8.27,4.38-.68,1.51-.88,3.04,0,4.54s2.27,2.12,3.89,2.23c2.1,.14,3.98-.98,5.44-2.39,.35-.34,.81-.72,1.1-1.11-.66,.49-.81,.6-.43,.36,.12-.07,.24-.13,.36-.19-.77,.3-.94,.39-.51,.25,.12-.03,.25-.05,.38-.07l-1.2,.16c.19-.01,.35-.01,.54,.01l-1.2-.16,.17,.04c-.59-.13-1.06-.45-1.4-.96-.39-.23-.65-.56-.77-.97-.14-.42-.18-.46-.1-.09l-.16-1.2c.01,.17,0,.34-.03,.51l.16-1.2c-.04,.17-.07,.33-.12,.5-.04,.12-.35,.91-.04,.18,.28-.67,.03-.1-.04,.04-.1,.19-.2,.38-.32,.56-.06,.09-.19,.38-.28,.43,.08-.04,.68-.77,.23-.31-.3,.31-.59,.61-.92,.89-1.36,1.15-1.58,3.39-.93,4.92s2.32,2.81,4.11,2.77c2.9-.08,5.18-1.93,6.12-4.62,.8-2.28,.23-5.03-1.55-6.7s-4.69-1.83-6.36,0-1.83,4.64,0,6.36h0Z"/><path class="d" d="M456.29,320.95c26.72-1.94,47.52-22.03,60.75-43.92,7.52-12.44,13.19-25.89,19.31-39.04s12.93-26.06,21.57-37.26c9.29-12.05,20.37-22.96,28.22-36.06,7.24-12.09,10.94-27.86,3.4-40.75-7.12-12.18-21.56-15.32-34.59-16.26-14.9-1.08-29.86-.96-44.75-2.3s-29.74-4.33-43.36-10.24c-7.14-3.1-14.08-6.65-21.1-10.02s-13.82-6.51-20.86-9.51c-14.19-6.04-28.73-11.32-43.83-14.57s-30.16-4.84-45.1-2.24c-13.84,2.41-26.65,9.43-34.64,21.19-3.72,5.46-6,11.83-6.5,18.42-.57,7.56,1.72,14.94,4.78,21.75s7.04,13.31,10.62,19.91c3.79,7,7.46,14.08,10.99,21.22,3.31,6.69,6.74,13.49,9.23,20.2s3.97,13.18,3.77,20.3c-.05,1.72-.18,3.44-.37,5.15-.03,.31-.07,.62-.11,.93,.11-.86-.1,.67-.1,.67-.14,.94-.3,1.87-.47,2.8-.6,3.29-1.38,6.54-2.23,9.77-1.74,6.65-3.8,13.22-5.34,19.92s-2.64,13.7-2.25,20.61,2.27,13.84,5.57,20.1c6.53,12.39,17.89,21.65,30.33,27.69,13.61,6.61,28.62,10.45,43.48,12.96,7.86,1.33,15.78,2.24,23.74,2.71,2.35,.14,4.6-2.17,4.5-4.5-.11-2.56-1.98-4.35-4.5-4.5-15.18-.9-30.04-3.44-44.79-7.76-6.75-1.98-12.99-4.21-19.01-7.24-3.08-1.55-6.07-3.28-8.92-5.22-.7-.47-1.38-.96-2.06-1.46,0,0-1.18-.89-.53-.39-.24-.18-.47-.37-.71-.56-1.3-1.04-2.55-2.13-3.76-3.28-1.1-1.04-2.16-2.12-3.17-3.24-.51-.56-1-1.13-1.49-1.71-.29-.35-.57-.7-.86-1.05-.56-.7,.17,.27-.4-.52-1.84-2.57-3.52-5.22-4.88-8.07-.13-.27-.26-.54-.38-.81,0-.02-.58-1.37-.25-.57-.28-.69-.54-1.39-.79-2.1-.54-1.56-.99-3.14-1.34-4.75-.17-.76-.29-1.53-.43-2.29-.02-.1-.13-.88-.04-.19-.06-.46-.11-.92-.16-1.39-.16-1.61-.22-3.23-.22-4.86,.03-6.53,1.12-11.85,2.78-18.45s3.66-12.94,5.26-19.47,2.89-13.48,2.9-20.33c.01-7.21-1.54-14.3-4.02-21.04-2.66-7.23-6.1-14.18-9.49-21.1s-6.99-13.9-10.67-20.76c-3.47-6.46-7.27-12.76-10.49-19.34-.69-1.41-1.4-2.96-1.82-4.01-.65-1.63-1.24-3.28-1.72-4.97-1-3.5-1.39-5.88-1.27-9.48,.02-.71,.08-1.42,.15-2.12,.12-1.37-.19,.87,.06-.48,.05-.28,.09-.56,.15-.83,.29-1.52,.7-3.02,1.21-4.48,.12-.33,.24-.66,.36-.99,.07-.19,.43-1.03,.11-.3,.28-.65,.59-1.29,.91-1.92,.71-1.39,1.51-2.74,2.39-4.03,.4-.59,.82-1.18,1.26-1.74-.44,.56,.02-.01,.1-.1,.28-.33,.55-.66,.83-.99,1.04-1.2,2.15-2.34,3.32-3.41,.53-.49,1.08-.97,1.63-1.43,.22-.18,.45-.37,.67-.55,1.09-.89-.68,.46,.46-.35,1.3-.92,2.6-1.81,3.97-2.61,5.64-3.28,11.82-5.03,18.53-6.12,1.62-.26-.82,.08,.82-.12,.34-.04,.67-.08,1.01-.12,.84-.09,1.69-.17,2.54-.24,1.87-.14,3.74-.22,5.62-.25,3.58-.05,7.16,.11,10.73,.42,7.1,.61,13.98,1.78,21.2,3.47s13.99,3.72,20.82,6.1c14.03,4.87,27.11,10.81,40.54,17.3s27.26,13.39,42.2,16.82,30.1,4.36,45.26,4.98c7.26,.3,14.53,.5,21.79,.9,1.45,.08,2.89,.18,4.34,.3,.73,.06,1.46,.13,2.18,.21,.44,.05,.87,.1,1.31,.15,1.43,.17-.88-.14,.54,.08,3,.46,5.98,1.07,8.86,2.03,.67,.22,1.33,.47,1.99,.72,1.26,.48-.45-.21,.28,.12,.32,.14,.64,.29,.95,.44,1.38,.67,2.66,1.48,3.94,2.32,.71,.47,.25,.17,.09,.04,.33,.25,.65,.53,.96,.8,.53,.46,1.03,.95,1.52,1.45,.2,.21,.39,.41,.58,.63,.02,.02,.92,1.11,.41,.45,.54,.7,1.02,1.45,1.46,2.21,.37,.63,.69,1.29,1.02,1.95,.05,.1,.34,.79,.07,.14,.17,.41,.32,.82,.46,1.24,.5,1.47,.88,2.98,1.13,4.51,.03,.2,.14,1.15,.06,.35,.05,.45,.09,.89,.12,1.34,.05,.75,.08,1.5,.08,2.25s-.02,1.5-.07,2.25c-.02,.3-.04,.6-.07,.9-.03,.3-.06,.6-.09,.9,.06-.38,.06-.4,.01-.08-2.04,13.62-11.76,24.6-20.37,34.89-9.51,11.37-18.92,22.68-26.17,35.68s-12.45,25.74-18.6,38.64c-2.97,6.23-6.1,12.4-9.63,18.33-3.2,5.37-6.68,10.35-10.28,14.65-3.97,4.74-8.35,9.16-13.18,13.02-.23,.18-.45,.36-.68,.54,.68-.54-.45,.34-.47,.35-.58,.43-1.16,.86-1.76,1.27-1.29,.91-2.62,1.78-3.97,2.6-2.5,1.52-5.09,2.88-7.78,4.03-.75,.32,.97-.37-.3,.12-.33,.13-.66,.26-.99,.39-.66,.25-1.33,.49-2,.72-1.35,.45-2.71,.86-4.08,1.2s-2.78,.64-4.19,.88c-.35,.06-.71,.11-1.06,.17,.84-.13-.09,.01-.3,.03-.79,.09-1.59,.16-2.38,.22-2.34,.17-4.61,1.95-4.5,4.5,.1,2.29,1.99,4.68,4.5,4.5h0Z"/></g></g></svg>