<svg xmlns="http://www.w3.org/2000/svg" width="256" height="256" viewBox="0 0 100 100"><rect width="100" height="100" rx="50" fill="#ffd1fa"></rect><path d="M45.38 42.75L45.43 42.32Q45.43 41.41 45.08 40.20Q44.74 38.99 43.98 37.81Q43.23 36.63 42.10 35.66Q40.98 34.69 39.47 34.26L39.47 34.26Q36.57 33.51 34.48 33.19Q32.38 32.87 30.66 32.87L30.66 32.87Q28.78 32.87 27.20 33.19Q25.61 33.51 23.73 33.94L23.73 33.94Q23.95 35.77 24.14 37.94Q24.33 40.12 24.46 42.21Q24.59 44.31 24.67 46.19Q24.75 48.07 24.75 49.25L24.75 49.25Q24.75 49.52 24.75 49.89Q24.75 50.27 24.81 50.70L24.81 50.70Q25.56 50.70 26.29 50.70Q27.01 50.70 27.76 50.75L27.76 50.75Q28.94 50.81 30.10 50.81Q31.25 50.81 32.44 50.81L32.44 50.81Q34.58 50.81 36.49 50.70Q38.40 50.59 39.79 50.21L39.79 50.21Q41.62 49.68 42.69 48.95Q43.77 48.23 44.31 47.37Q44.84 46.51 45.03 45.49Q45.22 44.47 45.33 43.39L45.33 43.39L45.38 42.75ZM40.22 31.36L40.22 31.36Q42.21 31.90 43.77 33.13Q45.33 34.37 46.35 35.93Q47.37 37.49 47.90 39.18Q48.44 40.87 48.44 42.32L48.44 42.32Q48.44 42.53 48.41 42.70Q48.39 42.86 48.39 43.07L48.39 43.07L48.33 43.72Q48.23 44.84 47.96 46.16Q47.69 47.48 46.94 48.76Q46.19 50.05 44.68 51.21Q43.18 52.36 40.60 53.06L40.60 53.06Q38.99 53.54 36.92 53.68Q34.85 53.81 32.49 53.81L32.49 53.81Q31.31 53.81 30.13 53.81Q28.94 53.81 27.71 53.76L27.71 53.76Q27.01 53.71 26.34 53.71Q25.67 53.71 24.97 53.71L24.97 53.71Q25.13 56.07 25.40 58.78Q25.67 61.49 25.91 63.86Q26.15 66.22 26.34 67.83Q26.53 69.44 26.53 69.55L26.53 69.55Q26.53 70.14 26.12 70.57Q25.72 71.00 25.02 71.05L25.02 71.05Q24.43 71.05 24.00 70.68Q23.57 70.30 23.52 69.71L23.52 69.71Q23.47 69.55 23.33 68.26Q23.20 66.97 23.01 65.07Q22.82 63.16 22.61 60.85Q22.39 58.54 22.20 56.31Q22.02 54.08 21.88 52.20Q21.75 50.32 21.75 49.25L21.75 49.25Q21.75 47.91 21.67 45.97Q21.59 44.04 21.42 41.89Q21.26 39.74 21.08 37.62Q20.89 35.50 20.67 33.78L20.67 33.78Q20.57 33.67 20.51 33.48Q20.46 33.30 20.35 32.87L20.35 32.87Q20.35 32.65 20.46 32.33L20.46 32.33Q20.40 32.06 20.38 31.74Q20.35 31.42 20.24 30.99L20.24 30.99Q20.24 30.45 20.62 30.02Q20.99 29.59 21.75 29.48L21.75 29.48Q22.28 29.48 22.71 29.86Q23.14 30.23 23.25 30.99L23.25 30.99Q25.18 30.50 26.90 30.18Q28.62 29.86 30.61 29.86L30.61 29.86Q32.49 29.86 34.77 30.21Q37.05 30.56 40.22 31.36ZM67.45 48.28L67.51 48.28Q68.10 48.28 68.53 48.71Q68.96 49.14 69.01 49.79L69.01 49.79Q69.01 50.38 68.58 50.83Q68.15 51.29 67.56 51.29L67.56 51.29Q65.63 51.40 63.72 51.53Q61.82 51.67 60.31 51.80Q58.81 51.93 57.79 52.07Q56.77 52.20 56.61 52.20L56.61 52.20Q56.71 53.71 56.87 55.56Q57.03 57.41 57.22 59.32Q57.41 61.23 57.60 63.05Q57.79 64.88 57.92 66.30Q58.06 67.72 58.16 68.61Q58.27 69.50 58.27 69.55L58.27 69.55Q58.27 70.14 57.87 70.57Q57.46 71.00 56.71 71.05L56.71 71.05Q56.12 71.05 55.72 70.68Q55.32 70.30 55.26 69.71L55.26 69.71Q55.21 69.55 55.07 68.26Q54.94 66.97 54.75 65.07Q54.56 63.16 54.35 60.85Q54.13 58.54 53.95 56.31Q53.76 54.08 53.62 52.20Q53.49 50.32 53.49 49.25L53.49 49.25Q53.49 47.64 53.36 45.11Q53.22 42.59 53.01 39.93Q52.79 37.27 52.52 34.85Q52.25 32.44 51.99 30.99L51.99 30.99Q51.99 30.45 52.36 30.02Q52.74 29.59 53.49 29.48L53.49 29.48Q54.67 29.48 54.94 30.61L54.94 30.61Q55.32 30.07 55.96 29.97L55.96 29.97Q56.07 29.97 57.28 29.80Q58.49 29.64 60.34 29.46Q62.19 29.27 64.45 29.11Q66.70 28.95 68.91 28.95L68.91 28.95Q73.31 28.95 75.91 29.32Q78.52 29.70 78.63 29.75L78.63 29.75Q79.81 30.02 79.75 31.52L79.75 31.52Q79.59 32.71 77.98 32.71L77.98 32.71Q76.91 32.54 75.51 32.33L75.51 32.33Q74.33 32.22 72.64 32.09Q70.95 31.95 68.91 31.95L68.91 31.95Q66.81 31.95 64.61 32.11Q62.41 32.28 60.55 32.46Q58.70 32.65 57.49 32.81Q56.28 32.97 56.18 32.97L56.18 32.97Q55.69 32.97 55.26 32.71L55.26 32.71Q55.53 34.48 55.75 36.79Q55.96 39.10 56.12 41.41Q56.28 43.72 56.39 45.78Q56.50 47.85 56.50 49.19L56.50 49.19Q56.98 49.14 58.06 49.01Q59.13 48.87 60.61 48.74Q62.08 48.60 63.86 48.50Q65.63 48.39 67.45 48.28L67.45 48.28Z" fill="#000000"></path></svg>