<svg xmlns="http://www.w3.org/2000/svg" width="256" height="256" viewBox="0 0 100 100"><rect width="100" height="100" rx="50" fill="#ffd1fa"></rect><path fill="#418f4e" d="M44.12 40.77L44.19 40.22Q44.19 39.06 43.74 37.52Q43.30 35.99 42.34 34.48Q41.39 32.98 39.95 31.75Q38.51 30.52 36.60 29.97L36.60 29.97Q32.91 29.01 30.24 28.60Q27.58 28.19 25.39 28.19L25.39 28.19Q23.00 28.19 20.98 28.60Q18.96 29.01 16.57 29.56L16.57 29.56Q16.84 31.88 17.08 34.65Q17.32 37.42 17.49 40.09Q17.66 42.75 17.77 45.15Q17.87 47.54 17.87 49.04L17.87 49.04Q17.87 49.38 17.87 49.86Q17.87 50.34 17.94 50.89L17.94 50.89Q18.89 50.89 19.82 50.89Q20.74 50.89 21.70 50.96L21.70 50.96Q23.20 51.03 24.67 51.03Q26.14 51.03 27.64 51.03L27.64 51.03Q30.38 51.03 32.81 50.89Q35.23 50.75 37.01 50.27L37.01 50.27Q39.33 49.59 40.70 48.67Q42.07 47.74 42.75 46.65Q43.44 45.56 43.68 44.26Q43.91 42.96 44.05 41.59L44.05 41.59L44.12 40.77ZM37.56 26.28L37.56 26.28Q40.09 26.96 42.07 28.54Q44.05 30.11 45.35 32.09Q46.65 34.07 47.33 36.23Q48.02 38.38 48.02 40.22L48.02 40.22Q48.02 40.50 47.98 40.70Q47.95 40.91 47.95 41.18L47.95 41.18L47.88 42.00Q47.74 43.44 47.40 45.11Q47.06 46.79 46.10 48.43Q45.14 50.07 43.23 51.54Q41.32 53.01 38.04 53.90L38.04 53.90Q35.98 54.51 33.35 54.68Q30.72 54.85 27.71 54.85L27.71 54.85Q26.21 54.85 24.71 54.85Q23.20 54.85 21.63 54.79L21.63 54.79Q20.74 54.72 19.89 54.72Q19.03 54.72 18.14 54.72L18.14 54.72Q18.35 57.72 18.69 61.18Q19.03 64.63 19.34 67.64Q19.65 70.64 19.89 72.70Q20.13 74.75 20.13 74.88L20.13 74.88Q20.13 75.63 19.61 76.18Q19.10 76.73 18.21 76.80L18.21 76.80Q17.46 76.80 16.91 76.32Q16.37 75.84 16.30 75.09L16.30 75.09Q16.23 74.88 16.06 73.24Q15.89 71.60 15.65 69.17Q15.41 66.75 15.14 63.81Q14.86 60.87 14.62 58.03Q14.38 55.20 14.21 52.80Q14.04 50.41 14.04 49.04L14.04 49.04Q14.04 47.33 13.94 44.87Q13.84 42.41 13.63 39.68Q13.43 36.94 13.19 34.24Q12.95 31.54 12.67 29.36L12.67 29.36Q12.54 29.22 12.47 28.98Q12.40 28.74 12.26 28.19L12.26 28.19Q12.26 27.92 12.40 27.51L12.40 27.51Q12.33 27.17 12.30 26.76Q12.26 26.35 12.13 25.80L12.13 25.80Q12.13 25.12 12.61 24.57Q13.08 24.02 14.04 23.89L14.04 23.89Q14.73 23.89 15.27 24.37Q15.82 24.84 15.96 25.80L15.96 25.80Q18.42 25.19 20.60 24.78Q22.79 24.37 25.32 24.37L25.32 24.37Q27.71 24.37 30.62 24.81Q33.52 25.25 37.56 26.28ZM72.22 47.81L72.28 47.81Q73.04 47.81 73.58 48.36Q74.13 48.91 74.20 49.73L74.20 49.73Q74.20 50.48 73.65 51.06Q73.10 51.64 72.35 51.64L72.35 51.64Q69.89 51.78 67.46 51.95Q65.04 52.12 63.12 52.29Q61.21 52.46 59.91 52.63Q58.61 52.80 58.41 52.80L58.41 52.80Q58.54 54.72 58.75 57.08Q58.95 59.43 59.19 61.86Q59.43 64.29 59.67 66.61Q59.91 68.94 60.08 70.75Q60.25 72.56 60.39 73.69Q60.53 74.81 60.53 74.88L60.53 74.88Q60.53 75.63 60.01 76.18Q59.50 76.73 58.54 76.80L58.54 76.80Q57.79 76.80 57.28 76.32Q56.77 75.84 56.70 75.09L56.70 75.09Q56.63 74.88 56.46 73.24Q56.29 71.60 56.05 69.17Q55.81 66.75 55.54 63.81Q55.26 60.87 55.02 58.03Q54.78 55.20 54.61 52.80Q54.44 50.41 54.44 49.04L54.44 49.04Q54.44 46.99 54.27 43.78Q54.10 40.57 53.83 37.18Q53.55 33.80 53.21 30.72Q52.87 27.65 52.53 25.80L52.53 25.80Q52.53 25.12 53.01 24.57Q53.48 24.02 54.44 23.89L54.44 23.89Q55.95 23.89 56.29 25.32L56.29 25.32Q56.77 24.64 57.59 24.50L57.59 24.50Q57.72 24.50 59.26 24.30Q60.80 24.09 63.16 23.85Q65.52 23.61 68.39 23.41Q71.26 23.20 74.06 23.20L74.06 23.20Q79.67 23.20 82.98 23.68Q86.30 24.16 86.43 24.23L86.43 24.23Q87.94 24.57 87.87 26.48L87.87 26.48Q87.66 27.99 85.61 27.99L85.61 27.99Q84.25 27.78 82.47 27.51L82.47 27.51Q80.97 27.37 78.81 27.20Q76.66 27.03 74.06 27.03L74.06 27.03Q71.39 27.03 68.59 27.24Q65.79 27.44 63.43 27.68Q61.07 27.92 59.53 28.13Q58.00 28.33 57.86 28.33L57.86 28.33Q57.24 28.33 56.70 27.99L56.70 27.99Q57.04 30.24 57.31 33.18Q57.59 36.12 57.79 39.06Q58.00 42.00 58.13 44.63Q58.27 47.27 58.27 48.97L58.27 48.97Q58.89 48.91 60.25 48.74Q61.62 48.56 63.50 48.39Q65.38 48.22 67.64 48.09Q69.89 47.95 72.22 47.81L72.22 47.81Z"></path></svg>