<?xml version="1.0" encoding="UTF-8"?><svg id="a" xmlns="http://www.w3.org/2000/svg" viewBox="0 0 271 338"><defs><style>.b{fill:#418f4e;}</style></defs><path class="b" d="M122.75,273.2c10.01-5.33,16.88-14.71,22.22-24.46,2.9-5.29,5.53-10.73,8.11-16.18s5.32-11.17,6.81-17.05c.62-2.46,.82-5.09-.22-7.47-.9-2.05-2.65-3.66-4.92-3.97-5.43-.74-8.96,4.68-11.12,8.83-2.59,5-4.08,10.49-5.11,16-1.12,6.02-1.86,12.13-2.58,18.21-1.73,14.57-2.86,29.21-4,43.83l1.47-.2c-5.51-27.55-11.05-56.83-.56-83.95,2.77-7.16,6.26-14.04,8.3-21.46,.26-.93-1.19-1.33-1.45-.4-1.86,6.75-4.91,13.06-7.54,19.53s-4.54,13.24-5.59,20.19c-2.1,13.91-1.19,28.03,.88,41.88,1.23,8.25,2.87,16.43,4.5,24.6,.18,.88,1.41,.6,1.47-.2,.93-12,1.87-24,3.12-35.97,.65-6.16,1.38-12.32,2.25-18.45,.73-5.17,1.57-10.35,3.1-15.36,.79-2.58,1.76-5.11,3.01-7.51,1.16-2.23,2.5-4.57,4.41-6.25,2.03-1.79,5.28-2.78,7.53-.78,2.07,1.84,2.31,4.84,1.82,7.39-.53,2.77-1.63,5.47-2.66,8.09s-2.23,5.37-3.45,8c-2.38,5.13-4.87,10.23-7.49,15.24-5.48,10.49-12.37,20.85-23.1,26.56-.85,.45-.1,1.75,.76,1.3h0Z"/><path class="b" d="M141.3,185.4c.64-4.12-.44-8.06-1.62-11.98-1.26-4.22-2.11-8.39-2.38-12.79-.54-8.9-.2-17.91-.2-26.82,0-.97-1.5-.97-1.5,0,0,8.76-.31,17.59,.17,26.34,.23,4.2,.88,8.3,2.06,12.34s2.68,8.22,2.01,12.51c-.15,.94,1.3,1.35,1.45,.4h0Z"/><path class="b" d="M128.32,115.19c-.12,6.15,2.56,11.76,5.26,17.13s5.82,10.56,10.53,14.58c4.09,3.5,8.94,6.1,14.15,7.51,4.82,1.3,11.23,2.37,15.45-.99,4.62-3.68,5-9.85,4.88-15.29-.03-1.4-.06-2.85,.31-4.22,.44-1.61,1.48-2.73,2.63-3.88,1.94-1.95,3.48-4.13,4.29-6.78,.7-2.29,1.04-4.98-.56-6.97-.82-1.01-1.92-1.77-2.94-2.56-1.18-.92-2.37-1.83-3.59-2.7-2.37-1.7-4.85-3.26-7.54-4.41s-5.67-1.79-8.63-2.28c-3.55-.58-7.14-1.13-10.74-1.05s-7.03,.83-10.46,1.71c-5.36,1.39-12.83,3.09-13.49,9.78-.09,.96,1.41,.95,1.5,0,.57-5.8,7.85-7.16,12.38-8.33,2.83-.73,5.7-1.39,8.62-1.6s5.98,.07,8.94,.5,5.7,.81,8.45,1.62,5.06,2,7.37,3.44,4.37,3.02,6.46,4.65c.94,.73,2.04,1.44,2.7,2.45,.86,1.3,.67,2.93,.34,4.37-.61,2.66-1.99,4.92-3.9,6.84-1.64,1.66-3.05,3.25-3.46,5.63-.44,2.5-.07,5.08-.19,7.6-.13,2.77-.68,5.58-2.19,7.94s-3.81,3.83-6.6,4.14c-2.53,.28-5.2-.06-7.68-.58-4.89-1.02-9.52-3.12-13.54-6.08-5.03-3.7-8.56-8.64-11.37-14.16s-6.01-11.52-5.89-18.01c.02-.97-1.48-.97-1.5,0h0Z"/><path class="b" d="M126.6,113.27c-1.3,.41-2.49,1.16-3.39,2.19s-1.7,2.54-1.16,3.95c.21,.56,.79,.69,1.25,.33,1.69-1.33,3.19-2.87,4.48-4.59,.5-.66,1.76-2.01,.78-2.78-.53-.43-1.1-.05-1.57,.25-.39,.25-.78,.51-1.17,.77-1.58,1.09-3.12,2.34-4.08,4.03-.24,.41-.49,.89-.61,1.35-.16,.64,.24,1.3,.94,1.3,.55,0,.96-.44,1.34-.79,.4-.37,.79-.75,1.16-1.14,1.68-1.74,3.15-3.68,4.37-5.77,.32-.54-.21-1.31-.85-1.1-3.35,1.11-6.02,3.88-6.97,7.28-.26,.93,1.18,1.33,1.45,.4,.81-2.88,3.08-5.29,5.93-6.23l-.85-1.1c-.79,1.35-1.67,2.64-2.67,3.84-.49,.59-1.01,1.17-1.55,1.72-.28,.28-.56,.56-.85,.83-.15,.14-.3,.28-.46,.42-.05,.04-.16,.11-.19,.17,0-.02,.06-.04,.07-.04l.38,.1,.03,.03,.19,.33c.04,.1-.04,.2,.03,0,.02-.06,.04-.12,.07-.18,.06-.15,.14-.3,.21-.44,.16-.3,.34-.59,.54-.87,.4-.55,.88-1.05,1.39-1.5s1.05-.87,1.61-1.26c.29-.2,.59-.4,.89-.6,.16-.1,.31-.2,.47-.3,.06-.04,.12-.08,.19-.12l.14-.09c.08-.05,.06-.05-.07,0l-.38-.1-.05-.04-.19-.33s0-.22,.03-.21c0,0-.1,.16-.11,.17-.09,.14-.18,.28-.28,.41-.19,.27-.38,.54-.58,.81-.4,.53-.83,1.04-1.27,1.53-.91,1-1.91,1.92-2.97,2.76l1.25,.33c-.37-.97,.28-1.96,.93-2.65,.71-.76,1.59-1.33,2.58-1.64,.92-.29,.53-1.74-.4-1.45h0Z"/><path class="b" d="M127.47,110.57c-1.89-1.72-4.43-2.38-6.88-2.84-1.37-.26-2.76-.44-4.14-.55s-2.89-.3-4.27,0c-2.24,.5-3.55,2.67-2.41,4.78s3.9,2.46,6.12,2.7c3.3,.36,6.62,.42,9.93,.21,.96-.06,.97-1.56,0-1.5-2.99,.19-5.99,.16-8.98-.11-1.34-.12-2.78-.19-4.06-.67-1.01-.38-2.18-1.33-1.94-2.56,.29-1.47,2.23-1.52,3.38-1.49,1.52,.04,3.05,.18,4.55,.4,2.58,.38,5.63,.88,7.63,2.7,.71,.65,1.78-.41,1.06-1.06h0Z"/><path class="b" d="M131.34,111.04c-.14,1.78,.64,3.65,2.04,4.76s3.33,1.31,4.96,.44c1.53-.82,2.7-2.67,2.13-4.44-.34-1.07-1.33-1.54-2.31-1.92-1.08-.41-2.22-.66-3.37-.78-.63-.06-1.27-.08-1.91-.05-.56,.03-1.2,.04-1.68,.37-.92,.64-.49,1.68-.83,2.56-.15,.38,.16,.82,.52,.92,.42,.12,.78-.14,.92-.52,.12-.3,.15-.63,.17-.95,0-.18-.06-.62,.07-.76,.1-.12,.51-.1,.67-.11,.48-.03,.96-.04,1.43-.01,.86,.04,1.71,.19,2.55,.42,.67,.19,1.64,.41,2.14,.93,.39,.41,.31,1.11,.11,1.6-.21,.53-.64,.98-1.12,1.28-1.06,.66-2.32,.67-3.35-.05-1.18-.82-1.75-2.32-1.64-3.72,.07-.96-1.43-.96-1.5,0h0Z"/><path class="b" d="M131.19,109.81c-1.36-3.49-.75-7.67,1.67-10.56,.65-.77,1.41-1.51,2.32-1.95s2.52-.76,3.14,.26c1.15,1.9-.61,4.33-1.85,5.68-1.77,1.94-3.82,3.61-6.03,5.03l1.1,.45-.27-1.56c-.15-.85-1.48-.63-1.47,.2v.92c0,.42,.35,.73,.76,.75l.57,.04c.96,.06,.96-1.44,0-1.5l-.57-.04,.75,.75v-.92l-1.48,.2,.27,1.56c.08,.47,.72,.69,1.1,.45,2.37-1.52,4.61-3.33,6.48-5.43,1.61-1.81,3.16-4.39,2.15-6.87-1.12-2.75-4.67-1.99-6.54-.52s-3.14,3.53-3.82,5.76c-.76,2.51-.7,5.27,.26,7.72,.35,.89,1.8,.5,1.45-.4h0Z"/><path class="b" d="M128.66,109.65c-4.85-3.37-10.46-6.33-13.56-11.59-.66-1.13-1.35-2.45-1.49-3.77-.19-1.83,1.49-2.21,2.97-1.87,2.61,.61,4.49,3.01,6.17,4.92,2.38,2.7,4.71,5.43,6.62,8.49,.51,.82,1.81,.07,1.3-.76-1.97-3.16-4.39-6.01-6.86-8.8-1.95-2.21-4.16-4.87-7.23-5.39-1.37-.23-2.99-.07-3.89,1.12-.83,1.09-.65,2.57-.26,3.79,.99,3.07,3.05,5.7,5.39,7.86,3.06,2.82,6.68,4.91,10.08,7.27,.79,.55,1.54-.75,.76-1.3h0Z"/><path class="b" d="M130.16,83.33c-3.94,8.39-5.53,17.72-4.51,26.94,.1,.95,1.61,.96,1.5,0-.98-8.95,.48-18.03,4.31-26.19,.41-.87-.89-1.63-1.3-.76h0Z"/><path class="b" d="M126.66,77.58c1.3,8.35,2.2,16.75,2.7,25.18,.06,.96,1.56,.97,1.5,0-.52-8.56-1.44-17.1-2.76-25.58-.15-.95-1.59-.55-1.45,.4h0Z"/><path class="b" d="M131.14,113.02c-.89-.85-2.34-.01-2.03,1.19,.11,.42,.53,.58,.92,.52,1.84-.28,1.47-2.69-.23-2.88-.44-.05-.71,.39-.75,.75-.16,1.37-.1,2.83,1.15,3.68,.75,.51,1.23,.89,1.58,1.77,.31,.79,.51,1.65,.72,2.48,.99,3.97,1.36,8.06,1.15,12.15-.05,.96,1.45,.96,1.5,0,.2-3.96-.13-7.94-1.02-11.8-.35-1.53-.67-3.35-1.63-4.64-.44-.59-1-.8-1.54-1.25-.68-.57-.5-1.61-.4-2.39l-.75,.75-.17-.07,.92,.52-.48,.27c.7,.66,1.76-.39,1.06-1.06h0Z"/><path class="b" d="M131.23,113.39l-.55,1.15c-.21,.45-.04,.94,.45,1.1,3.21,1.08,3.9,4.83,4.06,7.78,.19,3.54,.27,7.09,.4,10.63,.04,.96,1.54,.97,1.5,0-.15-4.12-.05-8.35-.56-12.44-.39-3.14-1.8-6.34-5.01-7.42l.45,1.1,.55-1.15c.41-.87-.88-1.63-1.3-.76h0Z"/><path class="b" d="M132.23,117.31c.13,1.12,.72,1.91,1.23,2.88,.62,1.18,.5,2.63,.57,3.92l.43,8.18c.05,.96,1.55,.97,1.5,0l-.43-8.18c-.07-1.26,.02-2.66-.41-3.86-.35-1-1.27-1.87-1.39-2.93-.11-.95-1.61-.96-1.5,0h0Z"/><path class="b" d="M129.56,110.87c.12-.39,.18-.8,.21-1.21,.03-.51-.13-1.03-.63-1.25-.43-.18-.97-.06-1.29,.3s-.38,.82-.32,1.28c.03,.27,.12,.5,.37,.65,.23,.13,.53,.14,.76,0,.88-.53,1.35-1.71,.98-2.69-.11-.29-.31-.49-.62-.54-.29-.04-.6,.1-.75,.36-.03,.05-.07,.09-.09,.14,0-.02,.11-.13,.04-.05-.02,.02-.04,.04-.06,.06-.04,.04-.08,.08-.12,.11-.08,.07,.03-.04,.05-.04-.03,0-.06,.04-.09,.06-.05,.03-.1,.05-.15,.08-.08,.04,.15-.05,.06-.03-.03,0-.05,.02-.08,.03-.05,.02-.11,.03-.16,.04-.09,.02,.17-.01,.08,0-.03,0-.07,0-.1,0-.37,.01-.69,.27-.74,.65s.18,.7,.54,.82c1.18,.41,2.5-.61,2.51-1.82,0-.56-.64-.95-1.13-.65l-1.41,.86c-.33,.21-.49,.68-.27,1.03s.67,.49,1.03,.27l1.41-.86-1.13-.65s0,.05,0,.07c0,.08,0,.05,.01-.09-.01,.03-.01,.07-.02,.1,0,.02-.01,.05-.02,.07l.05-.11s-.05,.09-.07,.13-.04,.06-.06,.09c.1-.18,.07-.09,.02-.04-.03,.04-.07,.07-.1,.1-.09,.09,.15-.1,.04-.03-.03,.02-.06,.04-.09,.06-.03,.01-.18,.08-.04,.03s-.02,0-.05,.01c-.03,.01-.07,.02-.1,.03-.13,.03,.21,0,.04,0-.04,0-.08,0-.13,0-.13,0,.18,.04,.06,0-.05-.01-.09-.02-.14-.04l-.2,1.47c.79-.03,1.52-.45,1.91-1.15l-1.37-.18c.03,.08,.05,.16,.07,.24,.03,.16,0-.13,0-.05,0,.04,0,.08,0,.11,0,.04,0,.09,0,.13,0,.13,.04-.19,0-.05-.02,.08-.03,.15-.06,.22-.02,.06-.08,.16,.02-.04-.02,.03-.03,.07-.05,.1-.04,.07-.09,.13-.12,.2,.09-.17,.07-.09,.02-.03-.03,.03-.05,.06-.08,.08-.02,.02-.15,.13-.04,.04s-.03,.01-.05,.03l1.13,.65c-.01-.11-.01-.22-.02-.33,0-.06,0-.06,0,0-.01,.07-.01,.07,0,0,0-.03,.02-.06,.03-.09l-.04,.09c.04-.06,.02-.04-.05,.07,.06-.05,.03-.03-.07,.05,.11-.07-.18,.05-.05,.02,.06-.01,.05-.01-.03,0-.07,.02-.13,.01-.2-.01,.07,.02,.04,0-.09-.04-.05-.03-.1-.07-.13-.12-.04-.04-.07-.09-.08-.15,.02,.08,.01,.05,0-.07-.01,.03,0,.1,0,.13,0,.12-.02,.23-.03,.35,0,.06,0,.04,0-.07,0,.04-.01,.07-.02,.11,0,.05-.02,.11-.03,.16-.03,.12-.06,.24-.09,.37-.11,.38,.13,.83,.52,.92s.8-.12,.92-.52h0Z"/><path class="b" d="M131.83,83.72c1.04-4.26,3.65-7.79,6.66-10.89s6.47-6.52,10.23-8.86c4.07-2.55,9.34-3.2,14.02-2.29,2.02,.39,4.02,1.16,5.48,2.66,1.55,1.59,2.23,3.77,2.46,5.94,.47,4.3-.63,8.66,.36,12.92,1.04,4.5,5.04,7.15,7.08,11.12s3.54,10.11,.09,13.51-8.89,3.88-13.32,3.63c-5.45-.31-10.73-1.93-15.95-3.39-2.5-.7-5.07-1.67-7.66-1.91s-5.1,.84-7.45,1.91c-.88,.4-.12,1.69,.76,1.3,2.79-1.27,5.35-2.13,8.42-1.38,2.54,.62,5.04,1.4,7.56,2.1,4.89,1.37,9.88,2.73,14.98,2.91,4.52,.16,9.75-.65,13.29-3.7s3.2-8.5,1.86-12.64c-.73-2.26-1.85-4.38-3.32-6.25-1.57-2.01-3.57-3.76-4.48-6.2-1.72-4.62-.15-9.72-.79-14.5-.56-4.23-2.9-7.54-7-8.95s-9.68-1.27-13.88,.3c-4.93,1.84-8.98,5.97-12.67,9.59s-6.94,7.64-8.17,12.68c-.23,.94,1.22,1.34,1.45,.4h0Z"/><path class="b" d="M128.25,77.39c-.7-3.62-1.84-7.13-3.41-10.47-1.39-2.95-3.13-5.89-5.75-7.91-2.28-1.76-5.33-2.71-8.19-2-3.25,.81-5.13,3.87-7.91,5.5-1.47,.86-3.09,1.45-4.77,1.73-2.04,.34-3.94,.03-5.96-.23-3.1-.39-5.56,.88-7.41,3.36-3.65,4.87-3.12,11.6-1.53,17.14,1.95,6.75,6.01,14.12,13.62,15.33,.44,.07,.75-.11,.92-.52,1.89-4.52-1.94-8.49-5.65-10.42-4.68-2.44-10.01-4.49-15.2-5.5-4.61-.9-9.56-.65-13.45,2.22-3.61,2.66-5.1,6.64-4.16,11.02,.55,2.58,1.7,5.04,1.95,7.68s-.35,5.16-1.03,7.64c-1.2,4.41-2.83,9.16-1.09,13.67,1.48,3.82,4.91,6.52,8.69,7.87,4.75,1.69,9.98,.95,14.64-.68,5.15-1.8,9.79-4.69,14.65-7.11,2.44-1.22,4.94-2.1,7.48-3.07,1.73-.66,3.4-1.77,3.62-3.77,.49-4.61-6.73-3.46-9.39-2.9-4.16,.88-8.01,2.99-11.17,5.81-6.11,5.46-11.49,15.76-5.53,23.13,1.39,1.72,3.17,3.12,5.05,4.27,1.98,1.21,4.83,1.88,5.97,4.04,1.06,2.01,.97,4.43,1.8,6.53,.73,1.82,2.11,3.28,3.81,4.23,8.3,4.65,18.24-3.14,23.48-9.17,5.91-6.78,9.55-15.31,11.57-24.01,.51-2.21,.92-4.45,1.23-6.69,.13-.94-1.31-1.35-1.45-.4-1.12,7.98-3.4,15.89-7.41,22.92s-10.02,13.71-17.69,16.39c-3.87,1.35-9.02,1.16-11.52-2.61-2.08-3.15-.97-7.6-4.36-10.01-1.64-1.16-3.62-1.81-5.31-2.92s-3.35-2.51-4.53-4.2c-2.72-3.89-1.9-8.49,.03-12.56,3.29-6.94,9.98-12.39,17.65-13.54,.99-.15,1.99-.21,2.99-.2,.91,0,2.57-.12,3.12,.76,.6,.96-.2,2.16-.97,2.71-.96,.69-2.16,.98-3.27,1.36-4.41,1.54-8.47,3.89-12.59,6.06-7.69,4.03-17.91,8.02-25.65,1.89-3.46-2.74-4.72-6.74-4.02-11.04s2.55-8.26,2.72-12.6-2.7-8.57-2.3-13.03c.36-4.06,3.96-7.08,7.68-8.15,4.82-1.38,9.97,.06,14.54,1.66,2.31,.81,4.6,1.71,6.83,2.72,1.98,.89,4.01,1.9,5.48,3.54s2.16,3.95,1.28,6.06l.92-.52c-6.34-1.01-10.02-6.72-11.96-12.36-1.75-5.09-2.9-11.37-.22-16.36,.7-1.3,1.66-2.56,2.91-3.38,1.64-1.09,3.33-.89,5.18-.61,2.76,.42,5.5,.27,8.13-.73,2.77-1.05,4.65-2.92,6.87-4.78,2.55-2.13,5.67-2.42,8.6-.83s4.84,4.61,6.3,7.54c1.72,3.45,2.92,7.13,3.66,10.92,.18,.95,1.63,.55,1.45-.4h0Z"/><path class="b" d="M129.43,104.28c.05,.07,.06,.07,0,0,.03,.04,.05,.07,.08,.11,.05,.07,.1,.14,.16,.22,.1,.15,.2,.3,.29,.45,.18,.3,.33,.61,.47,.92,.02,.05,.02,.04,0-.02,.02,.04,.03,.08,.05,.12,.03,.08,.06,.17,.09,.25,.06,.17,.12,.34,.16,.51,.1,.34,.17,.69,.23,1.05,.06,.39,.57,.64,.92,.52,.42-.14,.59-.51,.52-.92-.24-1.58-.93-3.04-1.92-4.28-.24-.31-.81-.28-1.06,0-.3,.33-.26,.73,0,1.06h0Z"/></svg>