<?xml version="1.0" encoding="UTF-8"?><svg id="a" xmlns="http://www.w3.org/2000/svg" viewBox="0 0 1920 1080"><defs><style>.b{fill:#e7d5a1;}.c{fill:#ffd1fa;}.d{fill:#418f4e;}</style></defs><rect class="c" x="-.5" y=".5" width="1920" height="1079"/><g><path class="b" d="M676.46,582.28c10.12-5.39,17.09-14.87,22.49-24.72,2.9-5.29,5.53-10.73,8.11-16.18s5.38-11.28,6.89-17.23c.68-2.66,.85-5.49-.3-8.05-1.03-2.3-3.02-4.03-5.56-4.34-5.73-.71-9.47,4.77-11.76,9.2-2.62,5.06-4.14,10.6-5.18,16.18-1.14,6.09-1.88,12.26-2.61,18.41-1.73,14.57-2.86,29.21-4,43.83l2.95-.4c-5.48-27.43-11.01-56.55-.56-83.55,2.77-7.16,6.26-14.04,8.3-21.46,.51-1.86-2.38-2.66-2.89-.8-1.86,6.75-4.91,13.06-7.54,19.53s-4.54,13.24-5.59,20.19c-2.12,14.05-1.21,28.28,.88,42.28,1.23,8.25,2.87,16.43,4.5,24.6,.35,1.75,2.82,1.19,2.95-.4,.93-12,1.87-24,3.12-35.97,.64-6.1,1.36-12.18,2.22-18.25,.73-5.17,1.57-10.35,3.1-15.36,.77-2.52,1.72-4.99,2.93-7.33,1.13-2.18,2.43-4.46,4.29-6.1,1.73-1.53,4.51-2.46,6.47-.78s2.07,4.4,1.63,6.66c-.53,2.77-1.63,5.47-2.66,8.09s-2.18,5.25-3.38,7.82c-2.38,5.13-4.87,10.23-7.49,15.24-5.43,10.38-12.21,20.64-22.83,26.29-1.7,.91-.19,3.5,1.51,2.59h0Z"/><path class="b" d="M695.37,494.04c.66-4.27-.4-8.31-1.62-12.38s-2.08-8.26-2.35-12.59c-.54-8.9-.2-17.91-.2-26.82,0-1.93-3-1.93-3,0,0,8.76-.31,17.59,.17,26.34,.23,4.27,.88,8.44,2.09,12.54s2.65,7.98,2.01,12.11c-.29,1.89,2.6,2.7,2.89,.8h0Z"/><path class="b" d="M680.9,423.63c-.12,6.28,2.61,12.02,5.36,17.51s5.9,10.67,10.65,14.73c4.19,3.58,9.15,6.26,14.48,7.7s11.74,2.39,16.18-1.18c4.76-3.83,5.23-10.17,5.1-15.82-.03-1.34-.07-2.72,.29-4.02,.4-1.48,1.38-2.49,2.43-3.55,2.03-2.04,3.63-4.33,4.49-7.11,.79-2.57,1.05-5.5-.75-7.7-.83-1.01-1.92-1.77-2.94-2.56-1.23-.96-2.47-1.91-3.74-2.82-2.37-1.7-4.85-3.25-7.54-4.41-2.83-1.22-5.78-1.86-8.81-2.35-3.61-.59-7.27-1.16-10.94-1.08s-7.17,.84-10.66,1.74c-5.78,1.5-13.34,3.39-14.04,10.5-.19,1.92,2.81,1.91,3,0,.52-5.33,7.74-6.55,11.83-7.61,2.76-.72,5.57-1.37,8.42-1.57s5.85,.06,8.74,.47,5.7,.81,8.45,1.62c2.56,.75,4.93,1.95,7.19,3.37s4.27,2.94,6.31,4.53c.88,.68,1.94,1.36,2.58,2.29,.76,1.11,.55,2.56,.26,3.79-.58,2.54-1.89,4.67-3.7,6.51s-3.22,3.46-3.66,5.96-.09,5.2-.21,7.8-.64,5.31-2.09,7.57c-2.97,4.63-8.66,4.21-13.43,3.21s-9.38-3.08-13.36-6c-4.93-3.62-8.35-8.5-11.1-13.89s-5.91-11.28-5.78-17.63c.04-1.93-2.96-1.93-3,0h0Z"/><path class="b" d="M679.74,420.98c-1.42,.45-2.74,1.26-3.72,2.39-1.08,1.24-1.99,3.01-1.36,4.68,.19,.5,.51,.9,1.05,1.05s1.02-.04,1.46-.39c1.75-1.37,3.26-2.97,4.6-4.74,.32-.43,.67-.86,.93-1.33,.45-.79,.43-1.83-.34-2.42-.43-.33-1.02-.45-1.55-.27-.32,.11-.58,.29-.86,.47-.39,.25-.78,.51-1.17,.77-1.68,1.16-3.32,2.5-4.35,4.3-.27,.47-.54,1.01-.69,1.53-.29,1.09,.48,2.28,1.66,2.25,.78-.02,1.33-.51,1.87-1.01,.4-.37,.79-.75,1.16-1.14,1.72-1.78,3.24-3.78,4.48-5.92,.63-1.09-.42-2.62-1.69-2.2-3.6,1.19-6.47,4.14-7.5,7.8-.21,.75,.26,1.67,1.05,1.85s1.62-.24,1.85-1.05c.1-.36,.2-.77,.38-1.1-.19,.35-.01,.04,.02-.03,.04-.08,.08-.16,.11-.24,.09-.17,.18-.34,.27-.51,.19-.34,.41-.66,.64-.97,.16-.23-.13,.15,0,.01,.07-.08,.13-.16,.2-.24,.13-.15,.26-.29,.39-.43,.27-.28,.55-.55,.85-.79,.07-.06,.14-.11,.21-.17,.14-.12-.24,.17,0,.01,.17-.12,.34-.24,.52-.36,.31-.2,.63-.38,.97-.54,.08-.04,.16-.08,.24-.11,.06-.03,.13-.06,.19-.09l-.16,.07c.16,0,.44-.16,.6-.22l-1.69-2.2c-.4,.68-.82,1.35-1.27,2-.23,.33-.46,.65-.7,.96-.04,.05-.22,.28-.03,.04-.05,.07-.1,.13-.15,.2-.13,.16-.26,.32-.39,.48-.49,.59-1.01,1.17-1.55,1.72-.28,.28-.56,.56-.85,.83-.15,.14-.3,.28-.46,.42-.04,.03-.17,.12-.19,.17,.04-.15,.49-.26,.6-.26l.76,.2,.18,.15,.39,.66c.03,.08-.11,.79,.03,.4,.01-.03,.03-.07,.04-.1,.04-.1,.03-.07-.05,.11,.08-.03,.17-.36,.21-.44,.16-.3,.34-.59,.54-.87,0-.01,.22-.29,.08-.11s.06-.07,.09-.1c.12-.14,.24-.28,.36-.41,.24-.25,.49-.5,.75-.73,.24-.21,.52-.54,.81-.68-.09,.04-.18,.14-.04,.03,.08-.06,.15-.11,.23-.17,.15-.11,.3-.22,.46-.33,.29-.2,.59-.4,.89-.6,.16-.1,.31-.2,.47-.3,.06-.04,.12-.08,.19-.12,.35-.22,.14,.03-.31,.01l-.76-.2-.2-.15-.39-.66c-.02-.05-.04-.79,.11-.79-.01,0-.1,.16-.11,.17-.09,.14-.18,.28-.28,.41-.19,.27-.38,.54-.58,.81-.09,.12-.08,.1,0,0-.05,.07-.1,.13-.15,.2-.1,.13-.21,.26-.31,.39-.23,.27-.46,.54-.7,.8-.91,1-1.91,1.92-2.97,2.76l2.51,.66c-.03-.07-.05-.14-.07-.21-.04-.17-.04-.14,0,.07-.05-.1,0-.28,0-.39,0-.11,0-.07-.02,.12,.01-.07,.03-.15,.05-.22,.02-.07,.04-.15,.07-.22,.06-.16,.05-.15-.02,.03-.02-.19,.31-.56,.41-.71,.04-.06,.09-.12,.13-.18l-.1,.13c.06-.12,.2-.24,.29-.34,.18-.19,.37-.37,.57-.54,.06-.05,.11-.1,.17-.14-.16,.12-.17,.13-.03,.03,.09-.06,.18-.13,.28-.19,.22-.14,.45-.27,.68-.38,.07-.03,.13-.06,.2-.09-.19,.08-.2,.08-.05,.02,.14-.05,.28-.1,.42-.15,.75-.24,1.3-1.05,1.05-1.85-.24-.75-1.04-1.3-1.85-1.05h0Z"/><path class="b" d="M681.34,418.48c-1.99-1.81-4.62-2.55-7.21-3.04-1.43-.27-2.89-.46-4.34-.58s-3.02-.29-4.47,.03c-2.72,.61-4.22,3.36-2.86,5.88s4.28,2.8,6.77,3.07c3.3,.36,6.62,.42,9.93,.21,1.92-.12,1.93-3.12,0-3-2.99,.19-5.99,.16-8.98-.11-1.27-.12-2.66-.17-3.86-.64-.6-.24-1.64-.92-1.4-1.73,.28-.97,1.9-.86,2.64-.84,1.45,.04,2.91,.16,4.35,.37,2.42,.35,5.42,.79,7.3,2.5,1.43,1.3,3.55-.82,2.12-2.12h0Z"/><path class="b" d="M683.93,419.47c-.15,1.96,.72,4.06,2.26,5.29,1.71,1.37,3.93,1.6,5.87,.56,1.83-.98,3.13-3.2,2.48-5.28-.43-1.35-1.6-1.97-2.84-2.44-1.15-.44-2.35-.68-3.57-.8-.63-.06-1.27-.08-1.91-.05-.69,.04-1.46,.06-2.06,.47-.63,.44-.93,1.06-1.03,1.8-.04,.27-.05,.54-.06,.81,0,.08,.02,.21-.02,.28,.03-.21,.03-.24,0-.07-.02,.07-.04,.14-.07,.2-.28,.73,.31,1.68,1.05,1.85,.86,.2,1.54-.26,1.85-1.05,.14-.36,.17-.76,.19-1.15,0-.15,.02-.3,.02-.45,0-.32,0,.09-.02,.08-.08-.05,.24-.46-.03-.02-.07,.11-.17,.19-.27,.26-.2,.13-.13,.07-.02,.03-.26,.1-.12,.01,0,0,.11,0,.21-.02,.32-.03,.48-.03,.96-.04,1.43-.01,.21,.01,.42,.03,.64,.05,.11,.01,.21,.02,.32,.04-.07,0-.23-.04,.07,.02,.45,.08,.89,.17,1.32,.29s.86,.27,1.28,.44c-.24-.1,.21,.1,.26,.13,.08,.04,.15,.09,.22,.13,.24,.15-.08-.07,.04,.04,.16,.14-.1-.2,0,0s-.01-.2,.01,.02c0,.04,.06,.33,.04,.14s0,.1,0,.15c0,.05,0,.32,0,.09,0-.21,0,.01-.02,.08-.03,.12-.19,.53-.04,.22-.07,.15-.15,.29-.24,.43-.03,.04-.17,.24-.04,.07s-.02,.02-.06,.06c-.1,.11-.21,.21-.32,.31-.04,.04-.24,.17-.07,.06,.18-.12-.09,.05-.13,.08-.13,.08-.26,.15-.4,.22-.24,.13,0,0,.05-.02-.07,.02-.14,.05-.21,.08-.14,.05-.29,.08-.44,.11-.29,.07,.04,0,.06,0-.06,.03-.27,.02-.34,.02-.08,0-.15,0-.23,0-.29,0,.03,.02,.06,.02-.13,.02-.33-.07-.45-.1-.08-.02-.15-.06-.23-.08,.27,.08,.11,.05,.03,.01-.18-.09-.34-.19-.51-.3-.07-.04-.2-.18,.02,.02-.07-.07-.15-.13-.22-.2-.13-.12-.25-.25-.37-.39-.18-.21-.01-.02,.02,.02-.07-.1-.14-.2-.2-.3-.09-.15-.17-.32-.26-.48-.11-.2,.11,.33-.01-.03-.03-.1-.07-.19-.1-.29-.05-.17-.09-.35-.13-.53-.06-.27,0-.02,0,.04-.01-.12-.02-.24-.03-.36,0-.2,0-.4,.01-.6,.06-.78-.73-1.53-1.5-1.5-.86,.04-1.44,.66-1.5,1.5h0Z"/><path class="b" d="M685.25,418.04c-1.26-3.23-.78-7.14,1.48-9.83,.6-.71,1.31-1.44,2.17-1.83,.54-.25,1.7-.58,2.11,0,.45,.63,.2,1.68-.06,2.32-.38,.91-1.01,1.73-1.67,2.45-1.73,1.89-3.72,3.53-5.87,4.91l2.2,.9-.27-1.56c-.29-1.69-2.96-1.26-2.95,.4v.92c.01,.85,.69,1.45,1.51,1.5l.57,.04c.81,.05,1.5-.72,1.5-1.5,0-.85-.69-1.45-1.5-1.5l-.57-.04,1.5,1.5v-.92l-2.95,.4,.27,1.56c.16,.94,1.45,1.38,2.2,.9,2.42-1.55,4.72-3.4,6.63-5.55,1.79-2.02,3.42-4.85,2.34-7.6-1.29-3.31-5.41-2.72-7.72-.91-1.97,1.54-3.37,3.76-4.08,6.15-.79,2.63-.74,5.56,.26,8.12,.29,.75,1.01,1.28,1.85,1.05,.72-.2,1.34-1.09,1.05-1.85h0Z"/><path class="b" d="M682.38,417.44c-4.74-3.3-10.26-6.19-13.29-11.32-.6-1.01-1.23-2.21-1.38-3.39-.05-.39-.07-.81,.26-1.05,.44-.32,1.26-.2,1.75-.09,2.47,.58,4.25,2.93,5.84,4.73,2.34,2.65,4.63,5.34,6.5,8.34,1.02,1.63,3.62,.13,2.59-1.51-2.01-3.22-4.47-6.11-6.97-8.95-2.04-2.31-4.35-5.03-7.57-5.58-1.65-.28-3.5-.06-4.62,1.31-1.04,1.28-.93,3.04-.45,4.52,1.03,3.19,3.14,5.94,5.58,8.19,3.1,2.86,6.78,4.99,10.23,7.39,1.59,1.11,3.09-1.49,1.51-2.59h0Z"/><path class="b" d="M682.85,391.39c-3.99,8.51-5.64,17.96-4.61,27.32,.21,1.9,3.21,1.92,3,0-.97-8.81,.43-17.77,4.21-25.81,.82-1.74-1.77-3.26-2.59-1.51h0Z"/><path class="b" d="M679.27,386.22c1.29,8.28,2.17,16.61,2.68,24.98,.12,1.92,3.12,1.93,3,0-.52-8.63-1.46-17.23-2.79-25.78-.3-1.9-3.19-1.09-2.89,.8h0Z"/><path class="b" d="M685.01,420.93c-1.44-1.36-3.78-.02-3.28,1.91,.22,.85,1.05,1.17,1.85,1.05,1.12-.17,1.89-1.26,1.8-2.36-.1-1.22-1.11-1.86-2.23-1.99-.87-.1-1.41,.77-1.5,1.5-.2,1.66,.03,3.33,1.52,4.33,.59,.4,.95,.63,1.24,1.32,.33,.79,.51,1.65,.72,2.48,.98,3.91,1.33,7.92,1.12,11.95-.1,1.93,2.9,1.92,3,0,.21-4.02-.14-8.07-1.05-12-.37-1.61-.72-3.46-1.71-4.82-.25-.34-.51-.62-.83-.88-.24-.19-.8-.4-.98-.64-.3-.4-.09-1.29-.03-1.74l-1.5,1.5,.22,.02-.76-.2-.16-.23v-.8l.33-.33,1.85,1.05-.04-.17v.8l-.53,.61h-.8l-.36-.23c1.4,1.33,3.52-.79,2.12-2.12h0Z"/><path class="b" d="M683.92,421.45l-.55,1.15c-.43,.9-.08,1.88,.9,2.2,2.84,.96,3.37,4.49,3.51,7.06,.19,3.54,.27,7.09,.4,10.63,.07,1.92,3.07,1.93,3,0-.15-4.12-.06-8.35-.56-12.44-.43-3.5-2-6.95-5.56-8.14l.9,2.2,.55-1.15c.82-1.74-1.76-3.26-2.59-1.51h0Z"/><path class="b" d="M684.81,425.74c.14,1.27,.75,2.16,1.33,3.26,.55,1.03,.41,2.4,.47,3.54l.43,8.18c.1,1.92,3.1,1.93,3,0l-.43-8.18c-.07-1.32,0-2.8-.43-4.06-.2-.57-.49-1.09-.8-1.6-.2-.34-.52-.73-.57-1.14-.09-.8-.62-1.5-1.5-1.5-.74,0-1.59,.69-1.5,1.5h0Z"/><path class="b" d="M683.62,419.5c.13-.45,.21-.93,.23-1.4,.05-.82-.32-1.61-1.1-1.93-.39-.16-.8-.2-1.21-.09-.33,.09-.67,.29-.9,.54-.45,.49-.62,1.15-.54,1.81,0,.27,.07,.52,.2,.76,.13,.23,.31,.4,.54,.54,.46,.27,1.06,.28,1.51,0,.65-.39,1.08-.98,1.33-1.69,.2-.56,.21-1.29,0-1.85-.09-.24-.2-.48-.39-.66-.23-.23-.54-.37-.86-.41-.27-.04-.52,0-.78,.1-.29,.12-.56,.33-.72,.61-.03,.06-.07,.12-.11,.18l.23-.3c-.09,.11-.18,.21-.3,.29l.3-.23c-.1,.07-.21,.14-.33,.19l.36-.15c-.12,.05-.24,.08-.36,.1l.4-.05c-.06,0-.11,.01-.17,.01-.38,.01-.8,.15-1.06,.44-.23,.25-.37,.53-.41,.86s0,.68,.18,.96c.22,.34,.51,.55,.9,.69,.21,.07,.44,.1,.66,.11s.45-.03,.67-.07c.16-.03,.3-.09,.46-.16s.3-.12,.43-.22c.36-.26,.66-.54,.89-.92s.35-.84,.35-1.29c0-1.12-1.28-1.89-2.26-1.3l-1.41,.86c-.33,.2-.59,.52-.69,.9s-.05,.84,.15,1.16,.51,.6,.9,.69,.81,.06,1.16-.15l1.41-.86-2.26-1.3s0,.1,0,.15l.05-.4c-.01,.08-.03,.16-.06,.24l.15-.36c-.04,.1-.1,.19-.16,.28l.23-.3c-.07,.09-.15,.16-.23,.23l.3-.23c-.09,.07-.18,.12-.28,.17l.36-.15c-.1,.04-.2,.07-.31,.09l.4-.05c-.1,.01-.19,.01-.29,0l.4,.05c-.07-.01-.14-.03-.21-.05l-.4,2.95c1.05-.04,2.04-.59,2.56-1.52l-2.74-.36c.04,.11,.07,.22,.09,.33l-.05-.4c.01,.13,.01,.25,0,.38l.05-.4c-.02,.14-.06,.28-.11,.41l.15-.36c-.06,.13-.13,.25-.21,.37l.23-.3c-.08,.1-.17,.19-.27,.27l.3-.23s-.08,.06-.13,.09l2.26,1.3c-.02-.14-.03-.28-.02-.43l-.05,.4c.01-.08,.03-.15,.06-.22l-.15,.36s.04-.07,.06-.1l-.23,.3s.05-.05,.08-.07l-.3,.23s.06-.04,.09-.05l-.36,.15s.09-.03,.13-.04l-.4,.05s.04,0,.07,0l-.4-.05s.06,.01,.1,.03l-.36-.15s.04,.02,.06,.04l-.3-.23s.04,.03,.05,.06l-.23-.3s.03,.05,.04,.07l-.15-.36s.02,.08,.03,.12l-.05-.4c.02,.2,0,.4-.03,.6l.05-.4c-.03,.23-.08,.46-.15,.68-.11,.37-.04,.83,.15,1.16,.18,.31,.54,.61,.9,.69,.38,.09,.81,.07,1.16-.15s.58-.51,.69-.9h0Z"/><path class="b" d="M685.89,392.36c1.01-4.14,3.54-7.54,6.46-10.56s6.37-6.43,10.07-8.74c3.9-2.44,8.95-3.08,13.45-2.21,1.9,.37,3.77,1.06,5.15,2.46s2.02,3.45,2.24,5.4c.48,4.37-.62,8.78,.38,13.12,1.06,4.59,5.08,7.26,7.15,11.3,1.78,3.46,3.39,9.47,.21,12.6s-8.57,3.65-12.79,3.41c-5.38-.3-10.6-1.92-15.75-3.36-2.57-.72-5.19-1.7-7.86-1.94s-5.37,.89-7.83,2.01c-1.76,.8-.23,3.38,1.51,2.59,2.6-1.18,4.99-2.01,7.84-1.31,2.54,.62,5.04,1.4,7.56,2.1,4.96,1.39,10.01,2.75,15.18,2.94,4.73,.17,10.13-.73,13.82-3.92s3.48-8.97,2.06-13.37c-.78-2.39-1.96-4.61-3.51-6.59s-3.41-3.57-4.29-5.87c-1.72-4.52-.15-9.6-.76-14.3s-3.11-8.15-7.55-9.67-9.97-1.31-14.28,.3c-5.06,1.9-9.2,6.06-13.01,9.78s-7.11,7.85-8.37,13.01c-.46,1.88,2.44,2.68,2.89,.8h0Z"/><path class="b" d="M682.31,385.62c-.71-3.68-1.88-7.25-3.49-10.65-1.42-3.01-3.21-5.99-5.87-8.06-2.48-1.94-5.79-2.97-8.92-2.19-3.35,.84-5.24,3.9-8.09,5.58-3.26,1.92-6.53,1.9-10.15,1.43s-6.2,.93-8.26,3.7c-3.75,5.04-3.25,11.99-1.6,17.72,2.02,6.98,6.28,14.6,14.14,15.85,.88,.14,1.5-.23,1.85-1.05,2.02-4.83-2.01-9.2-5.99-11.27-4.74-2.47-10.13-4.55-15.38-5.58-4.79-.93-9.97-.69-14.03,2.29s-5.52,7.13-4.5,11.87c.54,2.51,1.67,4.91,1.93,7.48s-.35,5.02-1,7.44c-1.24,4.54-2.88,9.44-1.09,14.07,1.58,4.08,5.16,6.95,9.21,8.39,4.87,1.73,10.26,.99,15.04-.68,5.21-1.82,9.91-4.73,14.83-7.18,2.38-1.19,4.82-2.05,7.3-2.99,2.05-.78,3.96-2.13,4.17-4.49,.48-5.29-7.13-4.3-10.34-3.62-4.28,.91-8.25,3.1-11.5,6.01s-5.77,6.61-7.26,10.7c-1.73,4.74-1.51,9.5,1.73,13.5,1.43,1.77,3.26,3.21,5.2,4.39,1.83,1.12,4.66,1.77,5.7,3.77s.93,4.31,1.73,6.35,2.28,3.63,4.15,4.68c8.64,4.83,18.89-2.97,24.39-9.28,5.99-6.88,9.72-15.51,11.76-24.34,.51-2.21,.92-4.45,1.23-6.69,.11-.81-.2-1.6-1.05-1.85-.7-.2-1.73,.25-1.85,1.05-1.11,7.92-3.36,15.77-7.33,22.74s-9.76,13.43-17.24,16.05c-3.55,1.24-8.34,1.21-10.68-2.27-1.08-1.6-1.18-3.63-1.62-5.45-.47-1.94-1.35-3.65-3.01-4.82s-3.62-1.81-5.31-2.92-3.15-2.35-4.26-3.94c-2.56-3.67-1.79-7.96,.03-11.8,3.2-6.76,9.71-12.11,17.21-13.19,.92-.13,1.86-.18,2.79-.17,.54,0,2.12-.14,2.48,.39,.4,.6-.34,1.43-.77,1.74-.88,.63-2,.88-3.01,1.23-4.47,1.57-8.59,3.94-12.77,6.13-7.38,3.87-17.36,7.88-24.82,1.95-3.21-2.55-4.39-6.25-3.75-10.25,.69-4.32,2.57-8.38,2.75-12.8,.09-2.26-.44-4.44-1.09-6.59s-1.42-4.24-1.21-6.45c.36-3.71,3.74-6.46,7.13-7.43,4.69-1.34,9.7,.11,14.14,1.66,2.25,.79,4.48,1.66,6.66,2.65,1.92,.86,3.91,1.82,5.33,3.42,1.32,1.48,1.87,3.46,1.09,5.33l1.85-1.05c-6.08-.97-9.58-6.42-11.44-11.84-1.68-4.89-2.88-10.98-.3-15.79,.64-1.19,1.5-2.35,2.64-3.12,1.45-.98,2.96-.79,4.6-.54,2.89,.43,5.76,.32,8.53-.73,2.9-1.1,4.88-3.02,7.2-4.97s5.07-2.13,7.7-.72c2.85,1.54,4.63,4.46,6.03,7.27,1.69,3.4,2.86,7.02,3.58,10.74,.37,1.89,3.26,1.09,2.89-.8h0Z"/><path class="b" d="M682.24,413.24s.06,.07,.08,.11l-.23-.3c.44,.57,.8,1.19,1.08,1.85l-.15-.36c.27,.64,.46,1.31,.57,2,.05,.35,.4,.73,.69,.9,.32,.19,.8,.27,1.16,.15s.71-.34,.9-.69l.15-.36c.07-.27,.07-.53,0-.8-.13-.86-.41-1.65-.76-2.45s-.82-1.49-1.36-2.16c-.22-.28-.72-.44-1.06-.44-.37,0-.81,.16-1.06,.44s-.46,.66-.44,1.06l.05,.4c.07,.25,.2,.47,.39,.66h0Z"/></g><g><path class="b" d="M287.43,593.33c6.86-12.91,13.8-26.76,13.43-41.76-.16-6.48-1.64-13.03-4.86-18.7-3.5-6.16-9.01-10.41-14.95-14.06s-11.9-7.17-17.46-11.39-10.65-8.9-15.08-14.22c-2.21-2.65-4.22-5.46-5.99-8.42-1.94-3.23-3.51-6.68-5.5-9.88-3.83-6.13-9.47-10.67-15.35-14.73-10.77-7.43-26.01-15.94-25.33-31.15,.07-1.64,.42-3.22,.96-4.76l-1.85,1.05c25.38,5.51,49.67,15.72,71.29,30.11,9.34,6.21,18.41,13.57,24.68,23,3.01,4.53,5.31,9.51,6.48,14.84,1.32,6.02,1.04,12.26-.11,18.29-2.68,13.96-9.3,26.83-11.75,40.85l2.74-.36c-4.6-6.36-5.83-14.16-5.71-21.85,.13-8.59,1.66-17.16,3.05-25.62,3.04-18.52,6.83-36.97,8.18-55.73,.75-10.44,.69-20.95-.69-31.34-.11-.81-.61-1.49-1.5-1.5-.73,0-1.61,.7-1.5,1.5,2.5,18.85,.59,37.89-2.36,56.57-1.47,9.36-3.19,18.67-4.75,28.02-1.44,8.67-3.02,17.45-3.38,26.26s.81,17.93,6.07,25.2c.67,.92,2.5,1.04,2.74-.36,2.25-12.91,8.01-24.82,11.03-37.53,1.46-6.15,2.27-12.53,1.54-18.84-.65-5.64-2.43-11.04-5.14-16.02-5.59-10.28-14.54-18.36-23.94-25.1-10.5-7.53-21.93-13.89-33.69-19.22-13.62-6.17-27.87-10.9-42.49-14.07-.84-.18-1.56,.25-1.85,1.05-2.26,6.39-.74,13.44,2.61,19.16,3.59,6.13,9.28,10.67,15.04,14.67s12.02,7.68,17.13,12.67c2.68,2.62,4.82,5.56,6.64,8.83s3.39,6.48,5.4,9.56c7.51,11.51,18.26,20.49,29.76,27.83,5.98,3.82,12.6,6.98,17.7,12.01,4.69,4.63,7.44,10.74,8.59,17.18,2.59,14.54-3.27,28.73-9.78,41.4-.87,1.68-1.75,3.36-2.64,5.03s1.68,3.22,2.59,1.51h0Z"/><path class="b" d="M293.79,419.17c-2.03-11.05-5.53-21.77-10.36-31.91-.83-1.74-3.42-.22-2.59,1.51,4.72,9.9,8.08,20.4,10.06,31.19,.35,1.9,3.24,1.09,2.89-.8h0Z"/><path class="b" d="M281.97,385.22c-7.33-1.1-13.69-5.84-20.07-9.29s-13.28-6.78-20.42-8.89c-7.6-2.24-15.27-2.56-23.14-2.53-7.12,.03-14.32-.02-21.05-2.59-5.4-2.06-12.32-6.95-12.04-13.47,.32-7.4,8.19-11.09,14.16-13.29,6.7-2.48,14.27-4.69,21.41-2.85,3.66,.95,6.73,3.09,9.7,5.34s6.01,4.57,8.88,7.02c3.19,2.73,6.16,5.68,8.78,8.96s5.01,6.71,7.94,9.71,6.42,5.87,9.76,8.63,7.01,5.69,10.59,8.45v-2.59c-1.89,1.13-2.55,3.5-1.75,5.51,.88,2.22,3.28,3.41,5.55,3.62,2.77,.25,3.93-2.05,3.59-4.53-.32-2.33-1.85-4.44-4.02-5.37-.63-.27-1.3-.27-1.82,.23-1.72,1.69-2.06,4.49-.62,6.47,.41,.56,.99,.85,1.69,.69,2.08-.49,2.9-3.42,1.2-4.82-1.01-.84-3.12-.09-2.51,1.46l1.44,3.63c.34,.85,1.31,1.47,2.2,.9,2.01-1.3,2.1-4.59-.2-5.68-1.73-.83-3.26,1.76-1.51,2.59,.15,.07,.43,.36,.2,.5l2.2,.9-1.44-3.63-2.51,1.46c.17,.14-.08-.15,.12-.2l1.69,.69c-.67-.92-.68-2.01,.15-2.83l-1.82,.23c.99,.42,1.77,1.07,2.24,2.05,.24,.5,.37,1.07,.37,1.62,0,.63,.11,.71-.47,.64-1-.12-2.17-.5-2.76-1.37-.46-.68-.48-1.72,.28-2.18,1.06-.63,.87-1.92,0-2.59-6.59-5.07-13.36-10.25-19.26-16.13-2.81-2.81-5.14-6.01-7.58-9.14s-5.02-5.92-7.92-8.53-5.95-4.97-9.03-7.33-6.23-4.89-9.91-6.39c-7.16-2.93-15.21-1.51-22.33,.8-6.72,2.18-14.53,4.99-18.06,11.62-1.62,3.03-2.18,6.62-.97,9.9s3.49,5.98,6.17,8.08c12.61,9.9,29.23,5.21,43.81,7.46,7.75,1.19,15.11,4.07,22.11,7.55,3.49,1.73,6.9,3.61,10.29,5.53s6.75,3.94,10.39,5.37c1.78,.7,3.6,1.22,5.49,1.5s2.7-2.61,.8-2.89h0Z"/><path class="b" d="M271.63,382.7c-5.5-.42-11.1-.86-16.28-2.91-2.5-.99-4.82-2.38-7.32-3.39s-5.31-1.64-8.04-2.13c-5.78-1.04-11.64-1.68-17.5-1.92-2.83-.11-5.68-.17-8.52-.05-2.34,.1-4.76,.46-6.67,1.91-3.24,2.44-3.92,7.05-2.63,10.71,1.56,4.42,5.68,7.12,9.82,8.84,9.38,3.88,20.07,4.71,30.05,3.18,5.59-.85,11.05-2.54,16.15-4.97s10.48-6.82,16.38-5.67c1.89,.37,2.69-2.52,.8-2.89-4.93-.97-9.45,1.08-13.71,3.36s-8.62,4.4-13.36,5.75c-9.28,2.64-19.24,2.87-28.62,.56-4.3-1.06-9.09-2.48-12.35-5.64-2.52-2.45-3.99-6.87-1.63-9.96,1.26-1.65,3.42-2.04,5.37-2.15,2.64-.15,5.31-.09,7.95,0,5.52,.18,11.03,.72,16.48,1.64,2.91,.49,5.84,1.04,8.6,2.09s5.1,2.49,7.74,3.55c5.47,2.21,11.47,2.66,17.3,3.1,1.93,.15,1.92-2.85,0-3h0Z"/><path class="b" d="M280.58,378.9c-.12-7.48-1.82-14.84-3.33-22.13s-3.15-14.23-5.73-21.05-5.68-13.05-9.65-18.92c-3.6-5.32-8.09-10.28-13.98-13.09-5.42-2.59-13.12-3.89-18.21,.15s-4.74,11.41-4.8,17.13c-.08,7.17,.68,14.32,3.41,21s6.52,12.38,10.36,18.22c2.03,3.09,4.17,6.17,6.75,8.83s5.82,4.8,9.06,6.76c3.55,2.15,7.1,4.29,10.65,6.44,3.26,1.97,6.69,4.03,10.65,3.85,1.92-.09,1.93-3.09,0-3-3.33,.15-6.18-1.66-8.92-3.32-2.93-1.77-5.87-3.55-8.8-5.32s-5.78-3.35-8.32-5.49c-2.31-1.95-4.28-4.27-6.04-6.71-3.69-5.13-7.19-10.57-10.15-16.16-3.15-5.95-5.03-12.22-5.48-18.95-.22-3.32-.19-6.64-.05-9.96,.11-2.71,.25-5.59,1.39-8.1,2.67-5.87,10.31-5.38,15.42-3.47,5.69,2.13,10.18,6.6,13.65,11.47,3.74,5.26,6.82,11.09,9.26,17.06,2.87,7.02,4.74,14.36,6.31,21.77s3.45,15.21,3.57,22.97c.03,1.93,3.03,1.93,3,0h0Z"/><path class="b" d="M278.67,377.14c-7.81-1.96-10.01-11.89-11.88-18.55-2.29-8.19-3.79-16.6-4.43-25.08-.18-2.35-.3-4.7-.34-7.06-.04-2.23,.02-4.54,.99-6.59,.82-1.74-1.77-3.26-2.59-1.51-1.87,3.98-1.46,8.52-1.22,12.79,.27,4.64,.79,9.27,1.53,13.86s1.77,9.35,3.04,13.93c1.18,4.27,2.41,8.69,4.44,12.65s5.27,7.35,9.65,8.45c1.87,.47,2.67-2.42,.8-2.89h0Z"/><path class="b" d="M262.72,320.97c1.74-9.41,5.46-18.29,10.44-26.43,2.28-3.73,5.2-8.03,9.9-8.69,4.03-.56,6.69,2.55,8.21,5.88,1.82,4,2.57,8.61,3.25,12.92,.78,4.98,1.13,10.02,1.13,15.06,0,10.01-1.44,19.96-3.93,29.64-2.78,10.82-6.84,21.27-11.63,31.35-.82,1.73,1.76,3.26,2.59,1.51,9.15-19.26,15.77-40.06,15.96-61.56,.05-5.39-.32-10.77-1.12-16.1-.72-4.78-1.6-9.74-3.59-14.18-1.6-3.58-4.41-6.87-8.49-7.47-4.86-.71-9.16,2.28-12.02,5.93-3.48,4.45-6.18,9.69-8.44,14.85s-4.1,10.8-5.15,16.49c-.35,1.89,2.54,2.7,2.89,.8h0Z"/><path class="b" d="M280.17,372c1.18-9.06,4.05-18.11,7.89-26.38,1.88-4.04,4.02-8.47,7.19-11.66s7.99-4.8,12.46-5.89c4.83-1.18,10.27-2.63,15.16-.95,1.94,.67,3.84,1.9,4.98,3.64,1.39,2.12,1.39,4.63,.83,7.03-2.05,8.86-7.93,17.03-14.98,22.63-4.59,3.64-10,6.2-15.12,8.99l-16.91,9.19c-1.7,.92-.18,3.51,1.51,2.59l16.47-8.95c4.98-2.71,10.2-5.21,14.76-8.61,7.9-5.88,14.14-14.39,16.86-23.9,.77-2.68,1.15-5.67,.19-8.36-.79-2.2-2.3-3.98-4.19-5.32-4.49-3.18-10.18-2.95-15.33-1.97s-10.38,2.13-14.87,4.75-7.24,6.88-9.64,11.34c-5.26,9.78-8.84,20.85-10.28,31.85-.11,.81,.77,1.49,1.5,1.5,.9,0,1.4-.7,1.5-1.5h0Z"/><path class="b" d="M280.24,375.29c2.76-4.32,7.43-7.38,11.43-10.47s8.35-6.21,12.92-8.71,9.33-4.33,14.42-5.1c2.87-.43,5.76-.59,8.61-1.16s5.68-1.42,8.48-2.29c6.36-1.96,12.69-3.99,19.02-6.06l-1.69-.69c1.24,2.94-.02,6.38-1.27,9.1-1.18,2.56-2.59,5.01-4.18,7.34-3.18,4.66-7.14,8.78-11.56,12.29-9.61,7.63-21.49,12.05-33.61,13.57-7.38,.92-14.86,.84-22.24-.03-1.91-.22-1.9,2.78,0,3,13.93,1.63,28.42,.45,41.5-4.84,11.27-4.56,21.33-12.12,28.28-22.15,1.91-2.76,3.58-5.7,4.9-8.79,1.52-3.55,2.32-7.31,.77-10.99-.24-.58-1.13-.88-1.69-.69-5.86,1.92-11.74,3.8-17.63,5.63-2.8,.87-5.61,1.76-8.47,2.42s-5.9,.92-8.88,1.31c-10.76,1.41-20.02,7.28-28.48,13.73-4.65,3.55-10,7.07-13.2,12.08-1.04,1.63,1.55,3.14,2.59,1.51h0Z"/><path class="b" d="M282.18,382.09c8.27,6.65,17.65,11.73,27.63,15.31,10.18,3.64,21.57,6.44,32.35,4.05,4.68-1.04,9.94-3.21,12.17-7.78,2.05-4.2,1.09-9.06-2.95-11.62s-9.03-2.44-13.46-3.12c-5.79-.9-11.49-2.23-17.1-3.93-5.97-1.81-12-3.86-18.3-4s-12.74,2.02-18.78,4.2c-1.8,.65-1.03,3.55,.8,2.89,4.92-1.77,9.97-3.63,15.23-4.02s10.24,.81,15.17,2.27,10.17,3.12,15.39,4.23c4.8,1.02,9.67,1.43,14.48,2.32,3.67,.69,8.03,2.38,7.6,6.9s-5.23,7.17-9.28,8.32c-9.91,2.81-20.55,.38-30.08-2.77-10.36-3.42-20.23-8.52-28.75-15.38-1.49-1.2-3.63,.91-2.12,2.12h0Z"/></g><g><path class="b" d="M1209.5,710.51c7.04-13.23,14.15-27.45,13.72-42.84-.19-6.61-1.72-13.27-5.03-19.03-3.6-6.27-9.25-10.58-15.31-14.3s-12.17-7.34-17.86-11.67-10.9-9.14-15.42-14.6c-2.21-2.67-4.23-5.5-6.01-8.47-1.99-3.32-3.59-6.86-5.65-10.14-3.88-6.19-9.58-10.79-15.52-14.9-11.02-7.62-26.63-16.28-26.02-31.84,.07-1.71,.42-3.37,.99-4.98l-1.85,1.05c25.94,5.63,50.76,16.07,72.86,30.77,9.56,6.36,18.83,13.89,25.25,23.54,3.08,4.64,5.43,9.74,6.61,15.19,1.34,6.16,1.05,12.55-.14,18.71-2.75,14.25-9.5,27.38-12,41.69l2.74-.36c-4.72-6.52-5.97-14.53-5.84-22.41,.15-8.81,1.71-17.6,3.14-26.27,3.1-18.88,6.96-37.7,8.33-56.82,.76-10.66,.7-21.39-.71-31.99-.11-.81-.61-1.49-1.5-1.5-.73,0-1.61,.7-1.5,1.5,2.55,19.21,.61,38.61-2.39,57.66-1.52,9.66-3.29,19.28-4.9,28.92-1.46,8.81-3.06,17.72-3.43,26.66s.82,18.34,6.2,25.76c.67,.92,2.5,1.04,2.74-.36,2.3-13.19,8.19-25.38,11.28-38.37,1.49-6.28,2.31-12.82,1.57-19.26-.67-5.76-2.5-11.29-5.27-16.38-5.73-10.5-14.89-18.76-24.51-25.64-10.75-7.69-22.42-14.19-34.45-19.62-13.89-6.27-28.41-11.09-43.3-14.32-.84-.18-1.56,.25-1.85,1.05-2.32,6.54-.74,13.77,2.7,19.62,3.69,6.27,9.52,10.9,15.41,14.98s12.3,7.86,17.51,12.98c2.71,2.67,4.88,5.66,6.72,8.98,1.8,3.24,3.43,6.56,5.46,9.67,7.68,11.8,18.71,21,30.49,28.51,6.06,3.86,12.73,7.07,17.91,12.13,4.82,4.7,7.66,10.9,8.87,17.47,2.74,14.88-3.22,29.43-9.89,42.42-.91,1.77-1.83,3.52-2.77,5.27s1.68,3.22,2.59,1.51h0Z"/><path class="b" d="M1216,532.57c-2.07-11.29-5.65-22.24-10.58-32.6-.83-1.74-3.42-.22-2.59,1.51,4.82,10.12,8.26,20.85,10.28,31.88,.35,1.9,3.24,1.09,2.89-.8h0Z"/><path class="b" d="M1203.94,497.9c-7.44-1.11-13.89-5.91-20.37-9.42s-13.53-6.93-20.8-9.1c-7.74-2.31-15.56-2.68-23.59-2.65-7.31,.03-14.71,.01-21.64-2.59-2.92-1.1-5.71-2.69-7.98-4.84s-4.52-5.25-4.51-8.62c.03-7.62,7.99-11.58,14.1-13.86,6.85-2.56,14.59-4.9,21.92-3.15,3.69,.89,6.8,2.93,9.8,5.18s6.12,4.63,9.05,7.1,5.71,5.09,8.19,8.01,4.73,6.18,7.25,9.14,5.51,5.59,8.5,8.14c3.14,2.68,6.33,5.3,9.55,7.86,1.62,1.29,3.25,2.56,4.89,3.82v-2.59c-1.88,1.11-2.55,3.45-1.82,5.47,.84,2.32,3.35,3.58,5.69,3.79,2.88,.26,4.01-2.18,3.62-4.72-.35-2.31-1.91-4.41-4.07-5.33-.63-.27-1.3-.28-1.82,.23-1.74,1.72-2.09,4.56-.63,6.57,.41,.56,.99,.85,1.69,.69,2.11-.49,2.93-3.45,1.22-4.87-1.01-.84-3.12-.09-2.51,1.46l1.47,3.7c.34,.85,1.31,1.47,2.2,.9,2.03-1.32,2.12-4.64-.2-5.75-1.73-.83-3.26,1.76-1.51,2.59,.16,.08,.47,.4,.2,.57l2.2,.9-1.47-3.7-2.51,1.46c.18,.15-.06-.11,.11-.15l1.69,.69c-.69-.95-.7-2.08,.16-2.93l-1.82,.23c1.06,.45,1.9,1.18,2.37,2.25,.19,.44,.29,.92,.31,1.4,.03,.71,.12,.89-.51,.82-1.06-.11-2.39-.57-2.95-1.56-.39-.7-.34-1.7,.4-2.13,1.06-.63,.86-1.93,0-2.59-3.49-2.68-6.93-5.43-10.31-8.25-3.2-2.65-6.43-5.3-9.38-8.24s-5.35-6.27-7.89-9.52-5.18-6.06-8.17-8.73-6.2-5.15-9.4-7.59-6.12-4.75-9.72-6.23c-7.4-3.03-15.73-1.51-23.07,.9-6.83,2.25-14.76,5.14-18.26,11.95-1.62,3.16-2.11,6.82-.79,10.18s3.58,5.94,6.27,8.04c12.92,10.08,29.95,5.23,44.86,7.59,7.89,1.24,15.38,4.18,22.5,7.72,3.62,1.8,7.16,3.75,10.67,5.74s6.71,3.9,10.33,5.33c1.83,.73,3.71,1.26,5.66,1.55s2.7-2.61,.8-2.89h0Z"/><path class="b" d="M1193.39,495.32c-5.63-.43-11.36-.89-16.66-2.98-2.62-1.04-5.06-2.5-7.68-3.54s-5.61-1.67-8.48-2.18c-5.88-1.03-11.83-1.67-17.79-1.89-2.83-.11-5.69-.17-8.52-.03-2.44,.12-4.92,.56-6.86,2.14-3.19,2.61-3.71,7.39-2.27,11.06,1.72,4.4,5.93,7.05,10.13,8.76,9.55,3.88,20.39,4.7,30.53,3.13,5.7-.88,11.25-2.61,16.46-5.09s10.69-6.95,16.71-5.77c1.89,.37,2.69-2.52,.8-2.89-5.06-.99-9.7,1.13-14.07,3.47s-8.7,4.44-13.48,5.81c-9.42,2.7-19.54,2.97-29.08,.67-4.4-1.06-9.32-2.48-12.7-5.64-2.66-2.48-4.24-6.75-2.11-10.09,1.21-1.88,3.43-2.4,5.53-2.54,2.64-.17,5.31-.11,7.95-.03,5.7,.17,11.38,.71,17,1.65,2.97,.5,5.96,1.05,8.79,2.09s5.36,2.59,8.12,3.71c5.59,2.26,11.72,2.72,17.67,3.17,1.93,.15,1.92-2.85,0-3h0Z"/><path class="b" d="M1202.5,491.4c-.13-7.76-1.91-15.41-3.48-22.98s-3.32-14.82-6.07-21.91c-2.55-6.58-5.76-12.98-9.74-18.82-3.77-5.52-8.52-10.62-14.72-13.38-5.52-2.46-13.29-3.56-18.27,.7s-4.53,11.82-4.57,17.59c-.05,7.29,.79,14.53,3.58,21.32,2.69,6.52,6.59,12.45,10.45,18.33,2.1,3.2,4.3,6.38,6.98,9.13s5.91,4.86,9.19,6.85c3.7,2.24,7.41,4.48,11.11,6.72,3.25,1.97,6.7,3.98,10.63,3.79,1.92-.09,1.93-3.09,0-3-3.23,.15-6.03-1.52-8.71-3.14-3.03-1.82-6.05-3.66-9.08-5.49s-6.02-3.47-8.68-5.68c-2.43-2.01-4.49-4.43-6.33-6.98-3.74-5.18-7.27-10.68-10.28-16.32-3.25-6.08-5.22-12.48-5.71-19.38-.24-3.47-.21-6.95-.07-10.42,.11-2.71,.26-5.56,1.33-8.09,2.53-5.96,10.07-5.76,15.28-3.97,5.93,2.04,10.65,6.55,14.27,11.54,3.86,5.33,7.02,11.27,9.55,17.34,2.98,7.14,4.92,14.63,6.54,22.18s3.64,15.94,3.77,24.05c.03,1.93,3.03,1.93,3,0h0Z"/><path class="b" d="M1200.57,489.64c-7.95-1.99-10.21-12.05-12.12-18.83-2.36-8.39-3.9-17.01-4.56-25.7-.18-2.35-.3-4.71-.35-7.07s0-4.8,1.01-6.97c.82-1.74-1.77-3.26-2.59-1.51-1.93,4.1-1.49,8.8-1.23,13.19,.28,4.79,.82,9.56,1.6,14.29s1.78,9.32,3.04,13.89,2.5,9.08,4.66,13.19,5.35,7.32,9.74,8.42c1.87,.47,2.67-2.42,.8-2.89h0Z"/><path class="b" d="M1184.25,432.2c1.78-9.62,5.58-18.71,10.68-27.03,2.28-3.73,5.1-7.9,9.7-8.81,4.14-.82,7.03,2.15,8.68,5.58,1.95,4.04,2.72,8.78,3.43,13.17,.83,5.13,1.2,10.33,1.22,15.53,.03,10.33-1.45,20.6-4.02,30.59-2.84,11.05-6.99,21.73-11.88,32.03-.82,1.73,1.76,3.26,2.59,1.51,9.39-19.77,16.17-41.13,16.31-63.19,.03-5.55-.37-11.09-1.21-16.57-.74-4.8-1.64-9.82-3.7-14.26-1.71-3.7-4.67-6.96-8.91-7.45-4.9-.57-9.17,2.58-12.02,6.26-3.51,4.53-6.24,9.84-8.52,15.07s-4.17,10.99-5.24,16.78c-.35,1.89,2.54,2.7,2.89,.8h0Z"/><path class="b" d="M1202.09,484.36c1.22-9.35,4.19-18.71,8.19-27.23,1.98-4.21,4.24-8.88,7.68-12.1s8.24-4.63,12.74-5.7c4.91-1.18,10.42-2.6,15.35-.76,1.97,.73,3.85,2.03,4.96,3.84,1.29,2.1,1.27,4.58,.74,6.91-2.05,9.06-8.07,17.44-15.25,23.16-4.68,3.73-10.2,6.35-15.44,9.2l-17.38,9.45c-1.7,.92-.18,3.51,1.51,2.59l16.73-9.09c5.23-2.84,10.7-5.46,15.46-9.06,7.96-6.02,14.27-14.68,16.98-24.35,.75-2.69,1.11-5.67,.16-8.36-.78-2.18-2.26-3.97-4.12-5.32-4.43-3.22-10.05-3.15-15.22-2.23s-10.69,2.14-15.33,4.72-7.64,6.98-10.16,11.62c-5.44,10.03-9.12,21.42-10.6,32.73-.11,.81,.77,1.49,1.5,1.5,.9,0,1.4-.7,1.5-1.5h0Z"/><path class="b" d="M1202.16,487.7c2.8-4.38,7.53-7.49,11.59-10.63s8.57-6.39,13.25-8.95,9.42-4.4,14.56-5.2c2.9-.46,5.84-.6,8.73-1.16s5.73-1.4,8.55-2.27c6.64-2.04,13.26-4.16,19.86-6.32l-1.69-.69c1.33,3.14-.1,6.79-1.46,9.67-1.2,2.53-2.61,4.97-4.19,7.28-3.25,4.73-7.29,8.92-11.79,12.48-9.77,7.74-21.8,12.22-34.1,13.8-7.61,.98-15.33,.89-22.94,0-1.91-.22-1.9,2.78,0,3,14.24,1.67,29.06,.46,42.42-4.96,11.45-4.64,21.68-12.32,28.77-22.5,1.99-2.85,3.72-5.9,5.08-9.1,1.55-3.62,2.36-7.45,.78-11.2-.24-.58-1.13-.88-1.69-.69-6.15,2.01-12.31,3.98-18.49,5.9-2.83,.88-5.66,1.76-8.55,2.41s-5.84,.87-8.78,1.26c-10.94,1.44-20.37,7.42-28.97,13.98-4.76,3.63-10.25,7.24-13.53,12.37-1.04,1.63,1.55,3.14,2.59,1.51h0Z"/><path class="b" d="M1204.2,494.64c8.44,6.79,18,11.97,28.18,15.62s22.25,6.65,33.35,4.1c4.62-1.06,9.71-3.21,12.03-7.63s1.33-9.34-2.8-12.02c-3.91-2.54-9.04-2.51-13.49-3.19-5.86-.89-11.65-2.21-17.32-3.92-6.13-1.85-12.29-3.98-18.75-4.22-6.81-.25-13.3,2.01-19.61,4.28-1.8,.65-1.03,3.55,.8,2.89,5.18-1.86,10.49-3.82,16.04-4.14s10.41,.97,15.42,2.46c5.26,1.57,10.47,3.2,15.85,4.32,4.82,1.01,9.74,1.37,14.56,2.32,3.77,.74,8.13,2.63,7.52,7.25s-5.22,7.07-9.26,8.25c-10.16,2.96-21.09,.5-30.88-2.73-10.64-3.5-20.76-8.73-29.5-15.76-1.49-1.2-3.63,.91-2.12,2.12h0Z"/></g><g><path class="b" d="M1561.12,572.32c2.31-10.39,1.87-21.31-1.21-31.49-1.51-5.01-3.65-9.85-6.38-14.32-2.75-4.5-6.07-9.03-10.46-12.06s-9.97-4.23-15.21-5.35c-4.91-1.05-9.85-2.26-14.31-4.62s-8.2-5.89-10.07-10.68-2.07-10.48-1.93-15.77c.29-10.67,1.61-23.21-6.71-31.45l-1.06,2.56c2.18,.29,2.99,3.67,3.67,5.34,.51,1.26,1.05,2.52,1.86,3.62,1.04,1.41,2.39,2.5,3.81,3.5,6.73,4.75,13.72,9.17,20.58,13.73,5.75,3.84,12.58,7.47,16.68,13.22,2.19,3.06,3.11,6.57,3.82,10.22s1.46,7.33,2.81,10.86c3,7.81,7.78,14.71,12.56,21.51,.86,1.22,2.7,.78,2.8-.76,.63-10.35-1.56-20.54-3.16-30.71-1.51-9.6-2.52-19.72,.39-29.17,1.18-3.84,2.99-7.58,5.53-10.71,2.73-3.38,6.07-5.62,9.94-7.5s7.32-4.2,9.9-7.83,3.96-7.58,4.73-11.73c1.03-5.56,.91-11.23,.8-16.86-.12-5.94-.26-11.88-.43-17.82-.03-1.04-1.29-2-2.26-1.3-10.46,7.62-21.32,15.54-28.21,26.74-3.27,5.32-5.57,11.28-6.31,17.5-.36,3.01-.29,6.04,.19,9.03,.54,3.36,1.76,6.51,.61,9.89-.62,1.83-1.56,3.56-2.25,5.36-.65,1.69-1.18,3.42-1.6,5.17-.9,3.79-1.27,7.71-1.12,11.6l2.8-.76c-3.93-5.23-5.65-11.54-6.67-17.91-1.16-7.25-1.76-14.62-2.52-21.93s-1.91-15.26-1.93-22.89c0-3.7,.54-7.23,1.4-10.82,.91-3.78,1.27-7.34,.76-11.22-.55-4.17-1.46-8.31-2.24-12.45l-2.44-12.98c-.36-1.9-3.25-1.09-2.89,.8,1.45,7.69,3.01,15.37,4.33,23.09,.67,3.95,.63,7.6-.3,11.51-.83,3.52-1.51,6.99-1.6,10.63-.2,7.77,1.02,15.63,1.81,23.34,.75,7.29,1.42,14.61,2.45,21.87,1.02,7.21,2.8,14.54,7.25,20.47,.82,1.09,2.86,.88,2.8-.76-.26-6.75,1.27-12.98,3.97-19.12,1.36-3.11,1.81-5.9,1.19-9.26-.58-3.16-1.28-6.15-1.22-9.39,.24-12.41,7.64-23.26,16.38-31.5,5.25-4.94,11.07-9.2,16.89-13.44l-2.26-1.3c.15,5.28,.28,10.56,.39,15.84s.31,10.15-.24,15.19c-.47,4.4-1.66,8.78-3.99,12.57-1.08,1.75-2.4,3.33-3.97,4.66-1.7,1.44-3.72,2.41-5.71,3.38-3.84,1.87-7.27,4.12-10.07,7.4-2.64,3.09-4.62,6.65-6.04,10.45-3.37,8.99-3.06,18.83-1.82,28.2,1.52,11.51,4.45,22.94,3.74,34.64l2.8-.76c-4.37-6.22-8.83-12.53-11.77-19.57-1.48-3.55-2.38-7.21-3.09-10.97s-1.53-7.58-3.57-10.9c-3.8-6.18-10.38-10.02-16.27-13.94-7.16-4.77-14.33-9.54-21.49-14.32-1.61-1.08-3.33-2.19-4.42-3.83-.82-1.24-1.3-2.66-1.86-4.02-1.16-2.86-2.58-5.49-5.92-5.94-1.34-.18-1.9,1.73-1.06,2.56,7.11,7.04,6.25,18.1,5.9,27.27-.39,10.11,.22,21.15,8.73,28.01,3.76,3.03,8.24,4.97,12.85,6.33,5.08,1.5,10.38,2.13,15.4,3.82,2.5,.84,4.93,2.01,7,3.68s3.83,3.73,5.41,5.86c3.08,4.15,5.63,8.73,7.49,13.56,4.21,10.87,5.25,22.89,2.71,34.28-.42,1.88,2.47,2.68,2.89,.8h0Z"/><path class="b" d="M1538.05,374.36c.06-3.41-.67-6.99,.12-10.35,.88-3.75,5.19-3.77,8.06-2.23,4.01,2.16,6.78,5.99,11.16,7.57s8.41-.39,11.22-3.9,5.05-7.53,7.75-11.17,6.28-6.62,10.31-9.03c7.21-4.32,16.01-8.42,18.73-17.12,.69-2.19,.86-4.8-1.3-6.23-1.79-1.19-4.45-1.45-6.54-1.44-4.65,.02-9.2,1.93-12.44,5.27l2.51,1.46c1.37-3.44-1.52-7.12-4.85-7.92-4.01-.96-7.78,1.81-10.19,4.73l2.51,.66c-.57-3.65-1.76-7.81-5-9.99-3.66-2.46-8.1-.74-10.79,2.3-6.64,7.52-4.6,18.71-9.05,27.21-.85,1.62-2.32,3.73-4.41,3.57s-3.37-2.36-3.91-4.11c-1.55-4.94,.17-10.25,2.27-14.76,2.26-4.86,4.96-9.56,7.82-14.09,1.37-2.17,2.84-4.27,4.31-6.37,1.29-1.85,2.53-3.85,2.89-6.12,.4-2.55-.55-5.02-3.49-4.95-2.65,.06-5.46,.5-7.94,1.47-4.66,1.84-8.3,6.19-7.42,11.41,.1,.61,.84,1.13,1.45,1.1,3.67-.2,6.46-2.96,7.53-6.37,1.31-4.19-.42-8.63-2.36-12.33-.91-1.74-1.98-3.33-3.97-3.91-1.84-.54-3.83-.13-5.52,.67-3.39,1.62-5.51,4.96-5.96,8.62l2.95-.4c-1.43-4.67-6.86-7.74-11.57-6.02s-7.01,6.94-7.96,11.64c-2.53,12.57-1.12,26.14,3.66,38.01,1.05,2.61,2.27,5.17,4.16,7.28s4.8,4,7.69,3.08c2.31-.73,3.78-2.98,4.04-5.31,.31-2.7-1.17-5.27-3.17-6.98-2.16-1.84-4.88-3.04-7.67-3.51-2.94-.5-6.34-.5-8.67,1.62-1.01,.93-1.81,2.13-2.63,3.22-.96,1.28-1.88,2.6-2.62,4.02-1.4,2.68-2.04,5.57-1.61,8.59,.91,6.39,5.68,11.55,10.85,15.02s11.28,5.61,17.2,7.62c1.83,.62,2.62-2.27,.8-2.89-8.3-2.83-17.69-6.02-23.01-13.47-1.45-2.03-2.59-4.38-2.91-6.88s.35-4.86,1.57-7.02c.58-1.03,1.25-2.01,1.95-2.96,.77-1.05,1.54-2.27,2.54-3.12,1.8-1.53,4.88-1.13,7-.59,3.29,.83,9.81,4.58,6.73,8.81-1.5,2.07-3.99,.59-5.41-.79-1.74-1.7-2.87-3.94-3.79-6.15-4.07-9.8-5.6-20.64-4.6-31.19,.42-4.52,1.01-10.3,4.44-13.68,3.16-3.11,8.76-1.87,10.09,2.47,.53,1.72,2.75,1.22,2.95-.4,.3-2.47,1.95-4.73,4.15-5.87,1.08-.56,2.51-.94,3.69-.47,1.28,.5,1.87,2.15,2.43,3.28,1.29,2.6,2.5,5.76,1.78,8.7-.56,2.26-2.29,4.54-4.78,4.68l1.45,1.1c-.74-4.39,3.61-7.41,7.29-8.37,1.09-.28,2.19-.47,3.31-.58,.55-.06,1.11-.11,1.67-.13,.63-.02,.77-.08,.8,.59,.1,2.12-1.33,4.14-2.48,5.79-2.79,4.01-5.46,8.05-7.87,12.3-2.42,4.27-4.87,8.65-6.39,13.33-1.39,4.29-1.91,9.2-.03,13.43,1.57,3.53,5.33,6.19,9.17,4.3s5.26-6.51,6.25-10.22c1.21-4.52,1.71-9.2,3.01-13.7,.68-2.34,1.54-4.71,3.07-6.65,1.29-1.63,3.21-3.25,5.42-3.06,4.08,.35,5.22,5.74,5.72,8.98,.17,1.08,1.83,1.48,2.51,.66,1.62-1.96,3.93-4.17,6.69-4.03,2.09,.1,4.18,2.18,3.34,4.31-.57,1.44,1.53,2.47,2.51,1.46,2.7-2.79,6.44-4.37,10.32-4.39,.86,0,1.72,.06,2.57,.22s2.33,.34,2.7,1.21c.32,.74-.15,1.92-.38,2.62-.32,.97-.76,1.88-1.28,2.75-4.43,7.37-13.3,10.12-19.93,14.95-3.49,2.55-6.24,5.72-8.69,9.26s-4.46,7.49-7.5,10.47c-1.51,1.47-3.36,2.31-5.49,1.9s-3.99-1.65-5.64-2.99c-3.05-2.48-6-5.41-10.08-5.96s-7.62,1.33-8.56,5.31c-.86,3.66-.16,7.45-.23,11.15-.03,1.93,2.97,1.93,3,0h0Z"/><path class="b" d="M1536.25,375.69c15.35,9.28,34.8,6.8,50.04-1.32,7.9-4.21,14.97-9.85,21.43-16.01,3.24-3.09,6.5-6.28,9.39-9.71,2.64-3.14,4.78-7.11,3.49-11.31-.61-1.97-1.91-3.66-3.83-4.49-2.27-.98-4.75-.54-6.96,.38-3.81,1.59-8.95,4.5-9.13,9.16-.03,.81,.71,1.5,1.5,1.5,4.27-.01,7.51-2.89,9.96-6.12,2.89-3.8,5.22-8.11,7.43-12.33s5.11-8.94,4.92-13.77c-.09-2.38-1.3-3.88-3.59-4.55-1.85-.54-3.8-.59-5.7-.28-4.21,.67-8.08,3.38-10,7.2l2.8,.76c.05-3.85,1.77-7.53,1.18-11.41-.43-2.86-2.22-5.27-4.78-6.61-5.55-2.9-11.89-.99-16.13,3.24-2.73,2.72-4.67,6.13-6.39,9.54l2.74,1.16c1.94-5.21,2.54-11.21,.77-16.55s-5.48-8.95-10.47-10.89c-11.03-4.29-22.31,1.57-30.11,9.27-4.41,4.36-8.27,9.34-11.72,14.48-1.84,2.74-3.54,5.57-5.12,8.48-1.4,2.59-3.04,5.44-2.68,8.5,.15,1.3,.7,2.67,1.96,3.25,1.35,.63,2.6-.06,3.62-.95,1.98-1.72,3.28-4.2,3.84-6.73,1.28-5.74-.85-11.34-3.98-16.09s-7-9.64-11.79-12.89c-2.46-1.66-5.47-3.05-8.48-3.07-2.69-.01-5.2,1.29-6.9,3.34-1.86,2.26-2.7,5.04-2.75,7.95s.42,6.31,2.01,8.7,4.31,2.84,6.6,1.15c1.82-1.35,2.73-3.64,2.65-5.87-.19-5.51-5.4-8.46-10.49-7.64-5.54,.89-9.19,5.98-10.77,11.02-1.39,4.43-1.24,9.47,.52,13.76s5.39,8.1,10.14,8.6c2.33,.25,4.86-.53,5.98-2.74,1.26-2.48,.11-5.51-1.94-7.17s-5.08-2.41-7.77-2.66-5.74,.35-7.65,2.5-2.54,5.1-2.97,7.8-.53,5.24-.3,7.87c.49,5.49,2.27,10.89,5.3,15.51,1.44,2.2,3.14,4.22,5.07,6.01l2.12-2.12c-2.51-2.19-5.8-3.39-9.14-2.95s-5.47,2.71-5.73,5.98,1.84,6.27,3.87,8.73,4.29,4.71,6.73,6.75c10.13,8.46,22.81,13.39,35.52,16.45,14.8,3.56,30.08,4.22,45.07,1.42,7.35-1.37,14.55-3.47,21.6-5.97,3.53-1.25,7.02-2.61,10.48-4.03,2.98-1.23,6.11-2.56,8.22-5.1,2.08-2.49,3.05-6.2,1.44-9.18-1.44-2.68-4.51-3.78-7.42-3.67-6.73,.25-12.8,5.47-16.04,11.05-.36,.62-.2,1.3,.23,1.82,2.17,2.62,5.92,.37,7.9-1.28,2.37-1.96,4.11-4.71,5.01-7.64,1.74-5.63,.14-14.39-6.84-15.35-7.74-1.06-11.71,7.26-17.22,10.95-6.29,4.22-14.2,6.42-21.68,7.09-4.4,.39-8.88,.26-13.24-.46-3.97-.66-7.99-1.61-11.62,.73-1.62,1.04-.11,3.64,1.51,2.59,2.82-1.82,6-.99,9.09-.46,3.38,.57,6.79,.86,10.22,.82,6.71-.1,13.43-1.39,19.67-3.88,3.02-1.2,5.98-2.62,8.59-4.56s4.43-4.22,6.64-6.38c2.05-2,4.93-4.07,7.97-3.42,2.84,.61,4.23,3.72,4.53,6.35,.33,2.92-.44,5.88-1.99,8.36-.8,1.27-1.83,2.43-3.03,3.34-.72,.55-2.62,2.02-3.4,1.07l.23,1.82c2.55-4.4,7.03-8.54,12.2-9.44,1.93-.33,4.41-.2,5.72,1.48,1.59,2.05,.48,5.04-1.13,6.7-2.06,2.13-5,3.2-7.68,4.28-3.04,1.23-6.1,2.41-9.18,3.5-6.17,2.19-12.45,4.07-18.85,5.42-13.09,2.77-26.51,2.9-39.67,.51-11.68-2.12-23.41-5.78-33.6-11.98-5.39-3.28-10.31-7.35-14.26-12.29-1.62-2.02-4.08-5.75-1.74-8.18s6.84-.66,8.87,1.12c1.44,1.26,3.55-.8,2.12-2.12-6.47-5.98-9.97-14.73-9.59-23.51,.09-2.12,.42-4.23,1-6.27,.64-2.25,1.73-4.16,4.16-4.69,2.15-.47,4.63,.04,6.68,.78,1.67,.6,4.15,2.34,3.26,4.48-.7,1.69-3.2,1.38-4.56,.9-1.65-.58-3.09-1.72-4.21-3.06-2.3-2.75-3.22-6.49-3.19-10.01,.04-3.93,1.36-8.1,4.03-11.04s7.86-4.73,10.93-1.4c1.11,1.21,1.49,3.05,1.05,4.62-.4,1.44-2.19,3.41-3.49,1.67s-1.58-4.64-1.6-6.72c-.03-2.35,.52-4.75,2.1-6.55,3.44-3.91,8.63-1.68,12.17,.92,3.82,2.8,6.92,6.77,9.59,10.64s4.87,8.3,4.39,13.1c-.19,1.95-.86,3.96-2.07,5.52-.29,.37-.62,.72-.96,1.04-.41,.38-.48,.77-.66,.22-.39-1.22,.05-2.62,.51-3.75,.96-2.4,2.38-4.69,3.69-6.92s2.68-4.34,4.13-6.44c2.9-4.17,6.09-8.19,9.65-11.81,6.23-6.32,14.57-11.65,23.83-10.15,4,.65,7.88,2.55,10.29,5.89,2.62,3.63,3.3,8.22,2.83,12.59-.23,2.17-.8,4.29-1.56,6.33-.59,1.59,1.98,2.67,2.74,1.16,2.94-5.82,7.32-13.14,14.81-12.68,2.64,.16,5.54,1.46,6.58,4.05,.75,1.86,.46,3.94,.09,5.85-.41,2.15-.92,4.28-.95,6.49-.02,1.44,2.11,2.11,2.8,.76,1.36-2.71,3.79-4.66,6.71-5.49,1.39-.4,2.87-.54,4.3-.34,.65,.09,1.7,.23,2.22,.66,.7,.57,.5,1.85,.41,2.64-.44,3.97-2.85,7.84-4.68,11.31s-3.86,7.05-6.1,10.37c-1.96,2.89-4.68,6.16-8.48,6.18l1.5,1.5c.06-1.63,1.37-2.83,2.61-3.73,1.54-1.12,3.29-2.18,5.09-2.84,1.64-.6,3.59-.92,5.05,.28,1.13,.93,1.57,2.51,1.57,3.92,0,3.89-3.37,7-5.85,9.62-2.7,2.86-5.49,5.65-8.38,8.32-11.46,10.54-25.36,19.33-41.25,20.54-8.6,.65-17.31-.91-24.75-5.41-1.66-1-3.17,1.59-1.51,2.59h0Z"/></g><g><path class="b" d="M967.83,645.18c-.11-7-.22-14.01-.67-21-.41-6.31-.85-12.84-3.63-18.63-1.34-2.8-3.2-5.32-5.06-7.79-2.11-2.79-4.23-5.57-6.34-8.35-4.19-5.51-8.35-11.04-12.56-16.53-1.75-2.28-3.57-4.52-6-6.12-2.2-1.45-4.76-2.21-7.35-2.54-5.56-.72-11.14,.45-16.71,.11-5.25-.31-9.58-2.56-12.96-6.58s-5.37-8.74-7.27-13.42c-5.9-14.57-11.74-29.16-17.6-43.74l-2.2,1.69c8.23,5.77,16.91,10.88,25.95,15.26,4.54,2.19,9.16,4.21,13.86,6.04,4.33,1.69,8.93,3.01,12.81,5.63,7.13,4.82,9.08,13.88,11.42,21.61,2.63,8.69,6.66,16.76,11.9,24.17,6,8.49,13.2,16.03,20.83,23.06,.85,.78,2.73,.32,2.56-1.06l-2.42-19.47c-.81-6.47-1.79-12.95-2.19-19.47s.41-12.66,1.31-19.02c.84-5.93,1.28-11.83,.88-17.82-.78-11.64-3.95-22.94-7.32-34.05-1.74-5.72-3.54-11.42-5.13-17.19-.78-2.83-1.52-5.67-2.17-8.54-.22-.95-1.09-3-.28-3.73,.34-.3,.99-.35,1.42-.45,.76-.17,1.53-.31,2.29-.45,2.77-.5,5.69-.87,8.49-.45,1.33,.2,2.65,.59,3.82,1.26,.52,.3,2.66,1.55,1.92,2.2-.29,.26-1.07,.17-1.43,.16-.81-.02-1.63-.1-2.44-.17-1.77-.15-3.53-.35-5.29-.6-3.54-.52-7.05-1.24-10.52-2.14-1.87-.49-2.67,2.41-.8,2.89,3.39,.88,6.82,1.6,10.28,2.11,3.03,.45,6.32,1.08,9.39,.91,2.58-.14,4.99-2.13,3.63-4.9-1.12-2.29-3.97-3.66-6.32-4.3-2.67-.72-5.49-.69-8.21-.36-1.38,.16-2.74,.38-4.1,.65-1.28,.25-2.68,.43-3.8,1.14-2.8,1.77-1.3,5.59-.7,8.13,.74,3.15,1.58,6.29,2.47,9.4,3.55,12.45,7.95,24.69,10.35,37.43,1.17,6.2,1.81,12.51,1.58,18.82-.25,6.87-1.81,13.6-2.31,20.45-.58,7.91,.66,15.81,1.63,23.64l2.97,23.91,2.56-1.06c-13.51-12.45-25.98-26.81-31.57-44.64-2.44-7.8-4.2-16.59-10.39-22.44-3.33-3.15-7.59-4.89-11.82-6.46-4.71-1.76-9.38-3.6-13.95-5.7-10.38-4.74-20.3-10.45-29.64-16.99-1.02-.71-2.69,.49-2.2,1.69l15.74,39.11c3.68,9.15,7.47,20.73,17.24,25.09,5.05,2.25,10.61,1.86,15.99,1.56s11.19-.59,15.46,3.09c2.37,2.04,4.16,4.69,6.04,7.17l6.25,8.23c4.08,5.37,8.3,10.65,12.21,16.14,2.1,2.95,3.81,6.04,4.76,9.55s1.24,6.91,1.51,10.41c.61,7.8,.73,15.62,.85,23.43,.03,1.93,3.03,1.93,3,0h0Z"/><path class="b" d="M962.16,453.41c-2.12-3.52-4.07-7.14-5.78-10.88s-2.93-7.44-4.41-11.17c-.67-1.69-1.49-3.3-2.79-4.6-1.38-1.38-3.12-2.36-4.78-3.36-3.61-2.17-7.26-4.23-11.17-5.83-7.35-3.02-15.18-4.59-22.68-7.15s-13.85-6.14-19.13-11.75-9.28-12.71-10.18-20.24c-.44-3.75,0-7.64,1.75-11.02s4.58-5.72,8.12-7.06c7.91-3,17.04-3.19,25.36-2.38s17.41,2.66,26.14,1.21c4.31-.71,8.41-2.28,12.55-3.61s8.37-2.55,12.62-3.61,8.68-2.01,13.07-2.79,8.73-1.57,13.13-1.55c3.78,.02,7.59,.82,10.7,3.07s4.4,5.81,4.71,9.64c.35,4.27,.58,8.64,.25,12.91-.32,4.1-1.51,8.04-3.14,11.79s-3.57,7.29-5.34,10.94c-1.59,3.28-2.95,6.64-4.15,10.08-2.3,6.59-4.1,13.42-7.18,19.72s-7.5,11.54-13.81,14.75-14.11,4.34-21.38,4.64c-3.76,.15-7.9,.41-11.38-1.27-2.89-1.4-5.13-3.82-6.56-6.67-3.04-6.06-1.56-13.17,2.77-18.2,2.33-2.7,5.29-4.8,8.63-6.06,3.83-1.45,7.9-2.02,11.91-2.68,6.94-1.13,14.28-2.92,19.01-8.57,2.03-2.42,3.27-5.27,3.38-8.45,.03-.82-.71-1.49-1.5-1.5-14.54-.22-30.29,.56-43.6-6.32-3.07-1.59-6.29-3.54-8.24-6.49s-2.4-6.72,.05-9.37c2.26-2.45,5.84-3.28,9.02-3.69,4.15-.54,8.39-.51,12.57-.61,8.49-.21,17.15-.38,25.56,.97,3.57,.57,7.42,1.49,10.37,3.7,2.35,1.76,4.62,5.35,1.87,7.8-2.26,2.02-5.93,2.16-8.78,2.43-4.28,.4-8.59,.52-12.89,.39-3.77-.12-7.65-.29-11.33-1.2-1.3-.32-8.81-2.91-6.44-4.96,1.13-.99,2.86-1.37,4.25-1.83,1.76-.59,3.53-1.14,5.33-1.58,3.33-.83,6.85-1.38,10.28-.9,1.64,.23,3.26,.71,4.73,1.48,.46,.24,1.81,.78,1.92,1.37,.08,.41-.34,.64-.66,.83-1.47,.89-3.43,.86-5.09,1.04-2.02,.23-4.05,.53-6.07,.67-.52,.03-1.36,.15-1.83-.16-.15-.1-.23-.17-.24-.19-.03-.04,.1-.15,.08-.18h-.04c-.52,.06-.62-.42-.28-1.46-1.93-.1-1.92,2.9,0,3s3.13-2.42,1.72-3.83c-1.3-1.3-3.23-.55-4.05,.88-.99,1.75-.18,3.68,1.59,4.49,1.97,.9,4.38,.3,6.43,.07,2.39-.27,4.97-.29,7.3-.93,1.62-.45,3.48-1.4,4.03-3.11,1.34-4.2-5.37-6.31-8.35-6.82-4.43-.76-8.95-.06-13.24,1.1-2.17,.59-4.31,1.29-6.43,2.05-1.7,.61-3.57,1.45-4.45,3.13-2.24,4.24,4.15,7.3,7.23,8.3,4.49,1.45,9.46,1.62,14.13,1.75,5.26,.14,10.57-.07,15.79-.77,3.53-.48,7.65-1.69,9.16-5.29,1.73-4.13-1.26-8.28-4.6-10.49-3.93-2.6-8.78-3.5-13.37-4.06-5.45-.66-10.94-.83-16.43-.81s-10.78,.1-16.15,.41c-4.35,.25-9.13,.75-12.82,3.28s-5.19,6.66-4.06,10.94,4.67,7.52,8.4,9.79c3.96,2.42,8.34,4.15,12.82,5.33,9.05,2.39,18.51,2.64,27.82,2.75,2.34,.03,4.69,.05,7.03,.08l-1.5-1.5c-.25,7.13-7.7,11.34-13.83,12.88-8.01,2.02-16.79,1.86-23.8,6.79-5.77,4.06-10.02,10.81-9.71,18.04,.29,6.65,4.27,13.22,10.49,15.86,3.8,1.61,8.04,1.49,12.09,1.32s7.74-.53,11.54-1.27c7.4-1.44,14.57-4.52,19.81-10.08,4.91-5.21,7.77-11.89,10.11-18.56,2.49-7.12,4.53-14.35,7.85-21.15,3.72-7.62,7.94-15,8.67-23.62,.38-4.48,.15-9.11-.27-13.58-.36-3.93-1.48-7.63-4.43-10.4-6.42-6.02-15.63-5.18-23.64-3.94-9.04,1.4-17.98,3.44-26.73,6.1-4.4,1.34-8.71,3.02-13.18,4.09s-9.1,1.13-13.68,.79c-9.21-.7-18.21-2.56-27.49-1.7-7.91,.73-17.03,2.3-21.8,9.37s-3.8,15.91-.72,23.3,7.69,13.2,13.69,17.86c6.49,5.03,14.18,7.72,21.99,9.97,4.02,1.16,8.07,2.24,12.04,3.6s7.97,3.22,11.72,5.4c1.85,1.07,3.73,2.13,5.49,3.34s2.8,2.74,3.55,4.66c1.53,3.91,2.89,7.87,4.64,11.7s3.66,7.36,5.78,10.88c1,1.65,3.59,.15,2.59-1.51h0Z"/><path class="b" d="M962.38,375.42c.21,.2-.18-.3-.04-.06-.02-.03-.13-.33-.08-.14-.03-.26-.04-.33-.03-.2,0,.12,.01,.05,.04-.2-.03,.05-.04,.14-.05,.19-.02,.14,.17-.32,.03-.1,.06-.09,.24-.24,.06-.09-.14,.12,.3-.2,.08-.08,.09-.05,.6-.12,.38-.12l1.06,2.56c.71-.6,1.21-1.39,1.53-2.26,.39-1.06,.2-2.37-.88-2.93-.85-.45-1.91-.27-2.68,.25-.35,.24-.61,.53-.91,.82-.02,.02-.2,.19-.2,.19,.02,.03,.22-.22,.05-.04-.12,.12-.04,.02,.08-.02-.29,.1,.31,0,0-.01l1.3,2.26s.14-.25,.14-.25c-.13,.17-.16,.21-.09,.13,.08-.08,.04-.05-.13,.08,0,0,.24-.16,.24-.15-.2,.08-.24,.1-.14,.05,.05-.02,.09-.03,.14-.05,.1-.03,.2-.06,.29-.08l.1-.02c.17-.03,.14-.02-.09,0,.08-.07,.47-.04,.56-.04,.07,0,.14,0,.21,0,.11-.01-.46-.1-.18-.02,.13,.04,.25,.07,.38,.11,.15,.05,.33,.16,.49,.18-.3-.04-.18-.08-.02,0,.09,.04,.17,.08,.26,.12,.3,.14,.58,.31,.86,.48,.27,.16-.31-.23,0,.01,.17,.2,.07,.02-.3-.53l.61-1.54c.31-.21,.35-.14,.18-.09-.26,.08,.08-.05,.15-.02-.03-.01-.19,.01-.22,.01-.16,0-.31,0-.47-.02-.27-.02,.36,.09,.09,0-.07-.02-.14-.03-.21-.05-.05-.01-.11-.04-.16-.05-.12-.04-.04-.01,.22,.09-.13-.07-.07-.02,.18,.15l-.66,2.51c.05-.01,.11-.02,.16-.03-.48,.15-.32,.04-.12,.02s.42-.04,.63-.05c.51-.04,1.01-.07,1.52-.12,1.14-.11,2.87-.18,3.27-1.54,.44-1.54-1.19-2.22-2.32-2.61-1.01-.36-2.07-.63-3.13-.81-.59-.1-1.18-.2-1.78-.08-.99,.21-2.01,.75-2.73,1.46-.56,.55-.6,1.57,0,2.12s1.53,.59,2.12,0c.01,0,.13-.14,.16-.15-.12,.02-.18,.12-.03,.02,.14-.09,.27-.18,.41-.25,.07-.04,.15-.07,.22-.11,.34-.18-.19,.05,.04-.02,.16-.05,.33-.11,.49-.16,.37-.11-.31,0-.18,.02,.05,0,.11,0,.16,0,.07,0,.13,.01,.2,.02,.33,.02-.4-.07-.04,0,.91,.15,1.8,.37,2.68,.64,.21,.06,.41,.13,.61,.2,.09,.03,.19,.07,.28,.1,.04,.02,.09,.03,.13,.05,.26,.09-.35-.16-.12-.05,.13,.06,.25,.13,.38,.19,.24,.11-.23-.2-.15-.12,.02,.01,.03,.03,.04,.04-.31-.33-.5-.87-.33-1.31,.13-.34,.38-.65,.57-.77-.19,.13,.32-.09,.18-.07s-.3,.08-.45,.11c-.1,.02-.2,.03-.29,.05-.24,.04,.42-.05,.04,0-.22,.02-.44,.05-.66,.07-.9,.08-1.87,.06-2.76,.28-1.02,.25-1.55,1.8-.66,2.51,.72,.58,1.66,.79,2.58,.74,.54-.03,1.04-.12,1.47-.45,.72-.56,.84-1.57,.29-2.29-.49-.63-1.26-1.02-1.98-1.34-.81-.36-1.61-.68-2.51-.63-1.3,.08-2.84,.47-3.42,1.79-.23,.5-.29,1.01,0,1.51s.76,.71,1.3,.74c.8,.05,1.5-.36,2.08-.88,.17-.15,.31-.32,.47-.48,.05-.05,.09-.1,.14-.14-.18,.13-.2,.16-.07,.07l.09-.05c.15-.07,.12-.06-.09,.04,.05-.02,.09-.03,.14-.04,.12-.02,.06-.02-.17,.02,.17,0,.12,0-.15-.02-.17-.04-.3-.13-.39-.27-.06-.06-.46-.52-.27-.66-.03,.02-.1,.32-.11,.35,.11-.33-.05,.08-.09,.15-.07,.13-.15,.24-.23,.37,.17-.27-.04,.03-.08,.08-.11,.12-.24,.23-.36,.34-.45,.38-.53,1.13-.31,1.64s.77,.94,1.37,.92c2.1-.06,3.33-2.83,1.73-4.33-.57-.54-1.56-.61-2.12,0s-.61,1.55,0,2.12h0Z"/><path class="b" d="M970.49,459.56c12.7-.96,22.55-10.51,28.85-20.91,3.72-6.13,6.49-12.76,9.52-19.24,3.03-6.5,6.39-12.79,10.83-18.45s9.86-11.03,13.52-17.4c3.2-5.56,4.78-12.75,1.34-18.61-3.23-5.49-9.74-7-15.64-7.49-7.18-.59-14.4-.49-21.58-1.1-7.55-.64-14.98-2.07-21.97-5.08s-13.61-6.61-20.58-9.57-13.94-5.46-21.27-7.01c-6.9-1.46-14.14-2.24-21.13-1.05-6.45,1.1-12.43,4.25-16.28,9.64-1.71,2.4-2.86,5.21-3.22,8.14-.43,3.48,.41,6.91,1.76,10.11s3.27,6.4,4.99,9.55c1.85,3.38,3.63,6.8,5.35,10.24,3.29,6.6,7.16,13.54,6.93,21.13-.2,6.77-2.89,13.17-4.32,19.72s-1.42,12.98,1.79,18.92c6.76,12.49,22.17,16.95,35.2,19.16,3.78,.64,7.59,1.07,11.42,1.3,1.93,.12,1.92-2.88,0-3-7.51-.45-14.95-1.73-22.17-3.87-6.21-1.84-12.4-4.47-17.14-9.01s-7.25-9.98-7.07-16.3,2.57-12.35,4.03-18.44c.73-3.04,1.27-6.16,1.27-9.29,0-3.41-.75-6.75-1.92-9.94-2.54-6.91-6.17-13.54-9.64-20.02-1.66-3.1-3.48-6.13-5.04-9.28-1.47-2.96-2.66-6.17-2.56-9.52,.17-5.85,4.36-10.95,9.32-13.67,5.88-3.22,12.9-3.52,19.43-2.91,7.01,.65,13.89,2.45,20.52,4.78s13.44,5.42,19.96,8.58,12.73,6.2,19.7,7.81,14.06,2.08,21.15,2.38c3.61,.15,7.23,.25,10.84,.44,2.84,.15,5.69,.4,8.42,1.22s5.15,2.23,6.65,4.6,1.99,5.57,1.61,8.45c-.92,6.8-6.01,12.44-10.24,17.5-4.47,5.34-8.87,10.65-12.29,16.75s-5.94,12.18-8.83,18.3c-5.14,10.87-11.89,22.23-23.34,27.35-2.58,1.15-5.36,1.86-8.17,2.08-1.91,.15-1.93,3.15,0,3h0Z"/></g><g><path class="d" d="M951.14,678.09c-.11-7-.22-14.01-.67-21-.41-6.31-.85-12.84-3.63-18.63-1.34-2.8-3.2-5.32-5.06-7.79-2.11-2.79-4.23-5.57-6.34-8.35-4.19-5.51-8.35-11.04-12.56-16.53-1.75-2.28-3.57-4.52-6-6.12-2.2-1.45-4.76-2.21-7.35-2.54-5.56-.72-11.14,.45-16.71,.11-5.25-.31-9.58-2.56-12.96-6.58s-5.37-8.74-7.27-13.42c-5.9-14.57-11.74-29.16-17.6-43.74l-2.2,1.69c8.23,5.77,16.91,10.88,25.95,15.26,4.54,2.19,9.16,4.21,13.86,6.04,4.33,1.69,8.93,3.01,12.81,5.63,7.13,4.82,9.08,13.88,11.42,21.61,2.63,8.69,6.66,16.76,11.9,24.17,6,8.49,13.2,16.03,20.83,23.06,.85,.78,2.73,.32,2.56-1.06l-2.42-19.47c-.81-6.47-1.79-12.95-2.19-19.47s.41-12.66,1.31-19.02c.84-5.93,1.28-11.83,.88-17.82-.78-11.64-3.95-22.94-7.32-34.05-1.74-5.72-3.54-11.42-5.13-17.19-.78-2.83-1.52-5.67-2.17-8.54-.22-.95-1.09-3-.28-3.73,.34-.3,.99-.35,1.42-.45,.76-.17,1.53-.31,2.29-.45,2.77-.5,5.69-.87,8.49-.45,1.33,.2,2.65,.59,3.82,1.26,.52,.3,2.66,1.55,1.92,2.2-.29,.26-1.07,.17-1.43,.16-.81-.02-1.63-.1-2.44-.17-1.77-.15-3.53-.35-5.29-.6-3.54-.52-7.05-1.24-10.52-2.14-1.87-.49-2.67,2.41-.8,2.89,3.39,.88,6.82,1.6,10.28,2.11,3.03,.45,6.32,1.08,9.39,.91,2.58-.14,4.99-2.13,3.63-4.9-1.12-2.29-3.97-3.66-6.32-4.3-2.67-.72-5.49-.69-8.21-.36-1.38,.16-2.74,.38-4.1,.65-1.28,.25-2.68,.43-3.8,1.14-2.8,1.77-1.3,5.59-.7,8.13,.74,3.15,1.58,6.29,2.47,9.4,3.55,12.45,7.95,24.69,10.35,37.43,1.17,6.2,1.81,12.51,1.58,18.82-.25,6.87-1.81,13.6-2.31,20.45-.58,7.91,.66,15.81,1.63,23.64l2.97,23.91,2.56-1.06c-13.51-12.45-25.98-26.81-31.57-44.64-2.44-7.8-4.2-16.59-10.39-22.44-3.33-3.15-7.59-4.89-11.82-6.46-4.71-1.76-9.38-3.6-13.95-5.7-10.38-4.74-20.3-10.45-29.64-16.99-1.02-.71-2.69,.49-2.2,1.69l15.74,39.11c3.68,9.15,7.47,20.73,17.24,25.09,5.05,2.25,10.61,1.86,15.99,1.56,5.28-.3,11.19-.59,15.46,3.09,2.37,2.04,4.16,4.69,6.04,7.17l6.25,8.23c4.08,5.37,8.3,10.65,12.21,16.14,2.1,2.95,3.81,6.04,4.76,9.55s1.24,6.91,1.51,10.41c.61,7.8,.73,15.62,.85,23.43,.03,1.93,3.03,1.93,3,0h0Z"/><path class="d" d="M945.47,486.32c-2.12-3.52-4.07-7.14-5.78-10.88s-2.93-7.44-4.41-11.17c-.67-1.69-1.49-3.3-2.79-4.6-1.38-1.38-3.12-2.36-4.78-3.36-3.61-2.17-7.26-4.23-11.17-5.83-7.35-3.02-15.18-4.59-22.68-7.15s-13.85-6.14-19.13-11.75-9.28-12.71-10.18-20.24c-.44-3.75,0-7.64,1.75-11.02s4.58-5.72,8.12-7.06c7.91-3,17.04-3.19,25.36-2.38s17.41,2.66,26.14,1.21c4.31-.71,8.41-2.28,12.55-3.61s8.37-2.55,12.62-3.61,8.68-2.01,13.07-2.79,8.73-1.57,13.13-1.55c3.78,.02,7.59,.82,10.7,3.07s4.4,5.81,4.71,9.64c.35,4.27,.58,8.64,.25,12.91-.32,4.1-1.51,8.04-3.14,11.79s-3.57,7.29-5.34,10.94c-1.59,3.28-2.95,6.64-4.15,10.08-2.3,6.59-4.1,13.42-7.18,19.72s-7.5,11.54-13.81,14.75-14.11,4.34-21.38,4.64c-3.76,.15-7.9,.41-11.38-1.27-2.89-1.4-5.13-3.82-6.56-6.67-3.04-6.06-1.56-13.17,2.77-18.2,2.33-2.7,5.29-4.8,8.63-6.06,3.83-1.45,7.9-2.02,11.91-2.68,6.94-1.13,14.28-2.92,19.01-8.57,2.03-2.42,3.27-5.27,3.38-8.45,.03-.82-.71-1.49-1.5-1.5-14.54-.22-30.29,.56-43.6-6.32-3.07-1.59-6.29-3.54-8.24-6.49s-2.4-6.72,.05-9.37c2.26-2.45,5.84-3.28,9.02-3.69,4.15-.54,8.39-.51,12.57-.61,8.49-.21,17.15-.38,25.56,.97,3.57,.57,7.42,1.49,10.37,3.7,2.35,1.76,4.62,5.35,1.87,7.8-2.26,2.02-5.93,2.16-8.78,2.43-4.28,.4-8.59,.52-12.89,.39-3.77-.12-7.65-.29-11.33-1.2-1.3-.32-8.81-2.91-6.44-4.96,1.13-.99,2.86-1.37,4.25-1.83,1.76-.59,3.53-1.14,5.33-1.58,3.33-.83,6.85-1.38,10.28-.9,1.64,.23,3.26,.71,4.73,1.48,.46,.24,1.81,.78,1.92,1.37,.08,.41-.34,.64-.66,.83-1.47,.89-3.43,.86-5.09,1.04-2.02,.23-4.05,.53-6.07,.67-.52,.03-1.36,.15-1.83-.16-.15-.1-.23-.17-.24-.19-.03-.04,.1-.15,.08-.18h-.04c-.52,.06-.62-.42-.28-1.46-1.93-.1-1.92,2.9,0,3s3.13-2.42,1.72-3.83c-1.3-1.3-3.23-.55-4.05,.88-.99,1.75-.18,3.68,1.59,4.49,1.97,.9,4.38,.3,6.43,.07,2.39-.27,4.97-.29,7.3-.93,1.62-.45,3.48-1.4,4.03-3.11,1.34-4.2-5.37-6.31-8.35-6.82-4.43-.76-8.95-.06-13.24,1.1-2.17,.59-4.31,1.29-6.43,2.05-1.7,.61-3.57,1.45-4.45,3.13-2.24,4.24,4.15,7.3,7.23,8.3,4.49,1.45,9.46,1.62,14.13,1.75,5.26,.14,10.57-.07,15.79-.77,3.53-.48,7.65-1.69,9.16-5.29,1.73-4.13-1.26-8.28-4.6-10.49-3.93-2.6-8.78-3.5-13.37-4.06-5.45-.66-10.94-.83-16.43-.81s-10.78,.1-16.15,.41c-4.35,.25-9.13,.75-12.82,3.28s-5.19,6.66-4.06,10.94,4.67,7.52,8.4,9.79c3.96,2.42,8.34,4.15,12.82,5.33,9.05,2.39,18.51,2.64,27.82,2.75,2.34,.03,4.69,.05,7.03,.08l-1.5-1.5c-.25,7.13-7.7,11.34-13.83,12.88-8.01,2.02-16.79,1.86-23.8,6.79-5.77,4.06-10.02,10.81-9.71,18.04,.29,6.65,4.27,13.22,10.49,15.86,3.8,1.61,8.04,1.49,12.09,1.32s7.74-.53,11.54-1.27c7.4-1.44,14.57-4.52,19.81-10.08,4.91-5.21,7.77-11.89,10.11-18.56,2.49-7.12,4.53-14.35,7.85-21.15,3.72-7.62,7.94-15,8.67-23.62,.38-4.48,.15-9.11-.27-13.58-.36-3.93-1.48-7.63-4.43-10.4-6.42-6.02-15.63-5.18-23.64-3.94-9.04,1.4-17.98,3.44-26.73,6.1-4.4,1.34-8.71,3.02-13.18,4.09s-9.1,1.13-13.68,.79c-9.21-.7-18.21-2.56-27.49-1.7-7.91,.73-17.03,2.3-21.8,9.37s-3.8,15.91-.72,23.3,7.69,13.2,13.69,17.86c6.49,5.03,14.18,7.72,21.99,9.97,4.02,1.16,8.07,2.24,12.04,3.6s7.97,3.22,11.72,5.4c1.85,1.07,3.73,2.13,5.49,3.34s2.8,2.74,3.55,4.66c1.53,3.91,2.89,7.87,4.64,11.7s3.66,7.36,5.78,10.88c1,1.65,3.59,.15,2.59-1.51h0Z"/><path class="d" d="M945.68,408.34c.21,.2-.18-.3-.04-.06-.02-.03-.13-.33-.08-.14-.03-.26-.04-.33-.03-.2,0,.12,.01,.05,.04-.2-.03,.05-.04,.14-.05,.19-.02,.14,.17-.32,.03-.1,.06-.09,.24-.24,.06-.09-.14,.12,.3-.2,.08-.08,.09-.05,.6-.12,.38-.12l1.06,2.56c.71-.6,1.21-1.39,1.53-2.26,.39-1.06,.2-2.37-.88-2.93-.85-.45-1.91-.27-2.68,.25-.35,.24-.61,.53-.91,.82-.02,.02-.2,.19-.2,.19,.02,.03,.22-.22,.05-.04-.12,.12-.04,.02,.08-.02-.29,.1,.31,0,0-.01l1.3,2.26s.14-.25,.14-.25c-.13,.17-.16,.21-.09,.13,.08-.08,.04-.05-.13,.08,0,0,.24-.16,.24-.15-.2,.08-.24,.1-.14,.05,.05-.02,.09-.03,.14-.05,.1-.03,.2-.06,.29-.08l.1-.02c.17-.03,.14-.02-.09,0,.08-.07,.47-.04,.56-.04,.07,0,.14,0,.21,0,.11-.01-.46-.1-.18-.02,.13,.04,.25,.07,.38,.11,.15,.05,.33,.16,.49,.18-.3-.04-.18-.08-.02,0,.09,.04,.17,.08,.26,.12,.3,.14,.58,.31,.86,.48,.27,.16-.31-.23,0,.01,.17,.2,.07,.02-.3-.53l.61-1.54c.31-.21,.35-.14,.18-.09-.26,.08,.08-.05,.15-.02-.03-.01-.19,.01-.22,.01-.16,0-.31,0-.47-.02-.27-.02,.36,.09,.09,0-.07-.02-.14-.03-.21-.05-.05-.01-.11-.04-.16-.05-.12-.04-.04-.01,.22,.09-.13-.07-.07-.02,.18,.15l-.66,2.51c.05-.01,.11-.02,.16-.03-.48,.15-.32,.04-.12,.02s.42-.04,.63-.05c.51-.04,1.01-.07,1.52-.12,1.14-.11,2.87-.18,3.27-1.54,.44-1.54-1.19-2.22-2.32-2.61-1.01-.36-2.07-.63-3.13-.81-.59-.1-1.18-.2-1.78-.08-.99,.21-2.01,.75-2.73,1.46-.56,.55-.6,1.57,0,2.12s1.53,.59,2.12,0c.01,0,.13-.14,.16-.15-.12,.02-.18,.12-.03,.02,.14-.09,.27-.18,.41-.25,.07-.04,.15-.07,.22-.11,.34-.18-.19,.05,.04-.02,.16-.05,.33-.11,.49-.16,.37-.11-.31,0-.18,.02,.05,0,.11,0,.16,0,.07,0,.13,.01,.2,.02,.33,.02-.4-.07-.04,0,.91,.15,1.8,.37,2.68,.64,.21,.06,.41,.13,.61,.2,.09,.03,.19,.07,.28,.1,.04,.02,.09,.03,.13,.05,.26,.09-.35-.16-.12-.05,.13,.06,.25,.13,.38,.19,.24,.11-.23-.2-.15-.12,.02,.01,.03,.03,.04,.04-.31-.33-.5-.87-.33-1.31,.13-.34,.38-.65,.57-.77-.19,.13,.32-.09,.18-.07s-.3,.08-.45,.11c-.1,.02-.2,.03-.29,.05-.24,.04,.42-.05,.04,0-.22,.02-.44,.05-.66,.07-.9,.08-1.87,.06-2.76,.28-1.02,.25-1.55,1.8-.66,2.51,.72,.58,1.66,.79,2.58,.74,.54-.03,1.04-.12,1.47-.45,.72-.56,.84-1.57,.29-2.29-.49-.63-1.26-1.02-1.98-1.34-.81-.36-1.61-.68-2.51-.63-1.3,.08-2.84,.47-3.42,1.79-.23,.5-.29,1.01,0,1.51s.76,.71,1.3,.74c.8,.05,1.5-.36,2.08-.88,.17-.15,.31-.32,.47-.48,.05-.05,.09-.1,.14-.14-.18,.13-.2,.16-.07,.07l.09-.05c.15-.07,.12-.06-.09,.04,.05-.02,.09-.03,.14-.04,.12-.02,.06-.02-.17,.02,.17,0,.12,0-.15-.02-.17-.04-.3-.13-.39-.27-.06-.06-.46-.52-.27-.66-.03,.02-.1,.32-.11,.35,.11-.33-.05,.08-.09,.15-.07,.13-.15,.24-.23,.37,.17-.27-.04,.03-.08,.08-.11,.12-.24,.23-.36,.34-.45,.38-.53,1.13-.31,1.64s.77,.94,1.37,.92c2.1-.06,3.33-2.83,1.73-4.33-.57-.54-1.56-.61-2.12,0s-.61,1.55,0,2.12h0Z"/><path class="d" d="M953.8,492.47c12.7-.96,22.55-10.51,28.85-20.91,3.72-6.13,6.49-12.76,9.52-19.24s6.39-12.79,10.83-18.45,9.86-11.03,13.52-17.4c3.2-5.56,4.78-12.75,1.34-18.61-3.23-5.49-9.74-7-15.64-7.49-7.18-.59-14.4-.49-21.58-1.1-7.55-.64-14.98-2.07-21.97-5.08s-13.61-6.61-20.58-9.57-13.94-5.46-21.27-7.01c-6.9-1.46-14.14-2.24-21.13-1.05-6.45,1.1-12.43,4.25-16.28,9.64-1.71,2.4-2.86,5.21-3.22,8.14-.43,3.48,.41,6.91,1.76,10.11s3.27,6.4,4.99,9.55c1.85,3.38,3.63,6.8,5.35,10.24,3.29,6.6,7.16,13.54,6.93,21.13-.2,6.77-2.89,13.17-4.32,19.72s-1.42,12.98,1.79,18.92c6.76,12.49,22.17,16.95,35.2,19.16,3.78,.64,7.59,1.07,11.42,1.3,1.93,.12,1.92-2.88,0-3-7.51-.45-14.95-1.73-22.17-3.87-6.21-1.84-12.4-4.47-17.14-9.01s-7.25-9.98-7.07-16.3,2.57-12.35,4.03-18.44c.73-3.04,1.27-6.16,1.27-9.29,0-3.41-.75-6.75-1.92-9.94-2.54-6.91-6.17-13.54-9.64-20.02-1.66-3.1-3.48-6.13-5.04-9.28-1.47-2.96-2.66-6.17-2.56-9.52,.17-5.85,4.36-10.95,9.32-13.67,5.88-3.22,12.9-3.52,19.43-2.91,7.01,.65,13.89,2.45,20.52,4.78s13.44,5.42,19.96,8.58,12.73,6.2,19.7,7.81,14.06,2.08,21.15,2.38c3.61,.15,7.23,.25,10.84,.44,2.84,.15,5.69,.4,8.42,1.22s5.15,2.23,6.65,4.6,1.99,5.57,1.61,8.45c-.92,6.8-6.01,12.44-10.24,17.5-4.47,5.34-8.87,10.65-12.29,16.75s-5.94,12.18-8.83,18.3c-5.14,10.87-11.89,22.23-23.34,27.35-2.58,1.15-5.36,1.86-8.17,2.08-1.91,.15-1.93,3.15,0,3h0Z"/></g><g><path class="d" d="M1523.45,602.9c2.31-10.39,1.87-21.31-1.21-31.49-1.51-5.01-3.65-9.85-6.38-14.32-2.75-4.5-6.07-9.03-10.46-12.06-4.49-3.1-9.97-4.23-15.21-5.35-4.91-1.05-9.85-2.26-14.31-4.62s-8.2-5.89-10.07-10.68-2.07-10.48-1.93-15.77c.29-10.67,1.61-23.21-6.71-31.45l-1.06,2.56c2.18,.29,2.99,3.67,3.67,5.34,.51,1.26,1.05,2.52,1.86,3.62,1.04,1.41,2.39,2.5,3.81,3.5,6.73,4.75,13.72,9.17,20.58,13.73,5.75,3.84,12.58,7.47,16.68,13.22,2.19,3.06,3.11,6.57,3.82,10.22s1.46,7.33,2.81,10.86c3,7.81,7.78,14.71,12.56,21.51,.86,1.22,2.7,.78,2.8-.76,.63-10.35-1.56-20.54-3.16-30.71-1.51-9.6-2.52-19.72,.39-29.17,1.18-3.84,2.99-7.58,5.53-10.71,2.73-3.38,6.07-5.62,9.94-7.5s7.32-4.2,9.9-7.83,3.96-7.58,4.73-11.73c1.03-5.56,.91-11.23,.8-16.86-.12-5.94-.26-11.88-.43-17.82-.03-1.04-1.29-2-2.26-1.3-10.46,7.62-21.32,15.54-28.21,26.74-3.27,5.32-5.57,11.28-6.31,17.5-.36,3.01-.29,6.04,.19,9.03,.54,3.36,1.76,6.51,.61,9.89-.62,1.83-1.56,3.56-2.25,5.36-.65,1.69-1.18,3.42-1.6,5.17-.9,3.79-1.27,7.71-1.12,11.6l2.8-.76c-3.93-5.23-5.65-11.54-6.67-17.91-1.16-7.25-1.76-14.62-2.52-21.93s-1.91-15.26-1.93-22.89c0-3.7,.54-7.23,1.4-10.82,.91-3.78,1.27-7.34,.76-11.22-.55-4.17-1.46-8.31-2.24-12.45l-2.44-12.98c-.36-1.9-3.25-1.09-2.89,.8,1.45,7.69,3.01,15.37,4.33,23.09,.67,3.95,.63,7.6-.3,11.51-.83,3.52-1.51,6.99-1.6,10.63-.2,7.77,1.02,15.63,1.81,23.34,.75,7.29,1.42,14.61,2.45,21.87,1.02,7.21,2.8,14.54,7.25,20.47,.82,1.09,2.86,.88,2.8-.76-.26-6.75,1.27-12.98,3.97-19.12,1.36-3.11,1.81-5.9,1.19-9.26-.58-3.16-1.28-6.15-1.22-9.39,.24-12.41,7.64-23.26,16.38-31.5,5.25-4.94,11.07-9.2,16.89-13.44l-2.26-1.3c.15,5.28,.28,10.56,.39,15.84s.31,10.15-.24,15.19c-.47,4.4-1.66,8.78-3.99,12.57-1.08,1.75-2.4,3.33-3.97,4.66-1.7,1.44-3.72,2.41-5.71,3.38-3.84,1.87-7.27,4.12-10.07,7.4-2.64,3.09-4.62,6.65-6.04,10.45-3.37,8.99-3.06,18.83-1.82,28.2,1.52,11.51,4.45,22.94,3.74,34.64l2.8-.76c-4.37-6.22-8.83-12.53-11.77-19.57-1.48-3.55-2.38-7.21-3.09-10.97-.71-3.78-1.53-7.58-3.57-10.9-3.8-6.18-10.38-10.02-16.27-13.94-7.16-4.77-14.33-9.54-21.49-14.32-1.61-1.08-3.33-2.19-4.42-3.83-.82-1.24-1.3-2.66-1.86-4.02-1.16-2.86-2.58-5.49-5.92-5.94-1.34-.18-1.9,1.73-1.06,2.56,7.11,7.04,6.25,18.1,5.9,27.27-.39,10.11,.22,21.15,8.73,28.01,3.76,3.03,8.24,4.97,12.85,6.33,5.08,1.5,10.38,2.13,15.4,3.82,2.5,.84,4.93,2.01,7,3.68s3.83,3.73,5.41,5.86c3.08,4.15,5.63,8.73,7.49,13.56,4.21,10.87,5.25,22.89,2.71,34.28-.42,1.88,2.47,2.68,2.89,.8h0Z"/><path class="d" d="M1500.38,404.94c.06-3.41-.67-6.99,.12-10.35,.88-3.75,5.19-3.77,8.06-2.23,4.01,2.16,6.78,5.99,11.16,7.57s8.41-.39,11.22-3.9c2.83-3.54,5.05-7.53,7.75-11.17s6.28-6.62,10.31-9.03c7.21-4.32,16.01-8.42,18.73-17.12,.69-2.19,.86-4.8-1.3-6.23-1.79-1.19-4.45-1.45-6.54-1.44-4.65,.02-9.2,1.93-12.44,5.27l2.51,1.46c1.37-3.44-1.52-7.12-4.85-7.92-4.01-.96-7.78,1.81-10.19,4.73l2.51,.66c-.57-3.65-1.76-7.81-5-9.99-3.66-2.46-8.1-.74-10.79,2.3-6.64,7.52-4.6,18.71-9.05,27.21-.85,1.62-2.32,3.73-4.41,3.57s-3.37-2.36-3.91-4.11c-1.55-4.94,.17-10.25,2.27-14.76,2.26-4.86,4.96-9.56,7.82-14.09,1.37-2.17,2.84-4.27,4.31-6.37,1.29-1.85,2.53-3.85,2.89-6.12,.4-2.55-.55-5.02-3.49-4.95-2.65,.06-5.46,.5-7.94,1.47-4.66,1.84-8.3,6.19-7.42,11.41,.1,.61,.84,1.13,1.45,1.1,3.67-.2,6.46-2.96,7.53-6.37,1.31-4.19-.42-8.63-2.36-12.33-.91-1.74-1.98-3.33-3.97-3.91-1.84-.54-3.83-.13-5.52,.67-3.39,1.62-5.51,4.96-5.96,8.62l2.95-.4c-1.43-4.67-6.86-7.74-11.57-6.02s-7.01,6.94-7.96,11.64c-2.53,12.57-1.12,26.14,3.66,38.01,1.05,2.61,2.27,5.17,4.16,7.28s4.8,4,7.69,3.08c2.31-.73,3.78-2.98,4.04-5.31,.31-2.7-1.17-5.27-3.17-6.98-2.16-1.84-4.88-3.04-7.67-3.51-2.94-.5-6.34-.5-8.67,1.62-1.01,.93-1.81,2.13-2.63,3.22-.96,1.28-1.88,2.6-2.62,4.02-1.4,2.68-2.04,5.57-1.61,8.59,.91,6.39,5.68,11.55,10.85,15.02s11.28,5.61,17.2,7.62c1.83,.62,2.62-2.27,.8-2.89-8.3-2.83-17.69-6.02-23.01-13.47-1.45-2.03-2.59-4.38-2.91-6.88s.35-4.86,1.57-7.02c.58-1.03,1.25-2.01,1.95-2.96,.77-1.05,1.54-2.27,2.54-3.12,1.8-1.53,4.88-1.13,7-.59,3.29,.83,9.81,4.58,6.73,8.81-1.5,2.07-3.99,.59-5.41-.79-1.74-1.7-2.87-3.94-3.79-6.15-4.07-9.8-5.6-20.64-4.6-31.19,.42-4.52,1.01-10.3,4.44-13.68,3.16-3.11,8.76-1.87,10.09,2.47,.53,1.72,2.75,1.22,2.95-.4,.3-2.47,1.95-4.73,4.15-5.87,1.08-.56,2.51-.94,3.69-.47,1.28,.5,1.87,2.15,2.43,3.28,1.29,2.6,2.5,5.76,1.78,8.7-.56,2.26-2.29,4.54-4.78,4.68l1.45,1.1c-.74-4.39,3.61-7.41,7.29-8.37,1.09-.28,2.19-.47,3.31-.58,.55-.06,1.11-.11,1.67-.13,.63-.02,.77-.08,.8,.59,.1,2.12-1.33,4.14-2.48,5.79-2.79,4.01-5.46,8.05-7.87,12.3-2.42,4.27-4.87,8.65-6.39,13.33-1.39,4.29-1.91,9.2-.03,13.43,1.57,3.53,5.33,6.19,9.17,4.3s5.26-6.51,6.25-10.22c1.21-4.52,1.71-9.2,3.01-13.7,.68-2.34,1.54-4.71,3.07-6.65,1.29-1.63,3.21-3.25,5.42-3.06,4.08,.35,5.22,5.74,5.72,8.98,.17,1.08,1.83,1.48,2.51,.66,1.62-1.96,3.93-4.17,6.69-4.03,2.09,.1,4.18,2.18,3.34,4.31-.57,1.44,1.53,2.47,2.51,1.46,2.7-2.79,6.44-4.37,10.32-4.39,.86,0,1.72,.06,2.57,.22s2.33,.34,2.7,1.21c.32,.74-.15,1.92-.38,2.62-.32,.97-.76,1.88-1.28,2.75-4.43,7.37-13.3,10.12-19.93,14.95-3.49,2.55-6.24,5.72-8.69,9.26s-4.46,7.49-7.5,10.47c-1.51,1.47-3.36,2.31-5.49,1.9s-3.99-1.65-5.64-2.99c-3.05-2.48-6-5.41-10.08-5.96s-7.62,1.33-8.56,5.31c-.86,3.66-.16,7.45-.23,11.15-.03,1.93,2.97,1.93,3,0h0Z"/><path class="d" d="M1498.58,406.27c15.35,9.28,34.8,6.8,50.04-1.32,7.9-4.21,14.97-9.85,21.43-16.01,3.24-3.09,6.5-6.28,9.39-9.71,2.64-3.14,4.78-7.11,3.49-11.31-.61-1.97-1.91-3.66-3.83-4.49-2.27-.98-4.75-.54-6.96,.38-3.81,1.59-8.95,4.5-9.13,9.16-.03,.81,.71,1.5,1.5,1.5,4.27-.01,7.51-2.89,9.96-6.12,2.89-3.8,5.22-8.11,7.43-12.33s5.11-8.94,4.92-13.77c-.09-2.38-1.3-3.88-3.59-4.55-1.85-.54-3.8-.59-5.7-.28-4.21,.67-8.08,3.38-10,7.2l2.8,.76c.05-3.85,1.77-7.53,1.18-11.41-.43-2.86-2.22-5.27-4.78-6.61-5.55-2.9-11.89-.99-16.13,3.24-2.73,2.72-4.67,6.13-6.39,9.54l2.74,1.16c1.94-5.21,2.54-11.21,.77-16.55s-5.48-8.95-10.47-10.89c-11.03-4.29-22.31,1.57-30.11,9.27-4.41,4.36-8.27,9.34-11.72,14.48-1.84,2.74-3.54,5.57-5.12,8.48-1.4,2.59-3.04,5.44-2.68,8.5,.15,1.3,.7,2.67,1.96,3.25,1.35,.63,2.6-.06,3.62-.95,1.98-1.72,3.28-4.2,3.84-6.73,1.28-5.74-.85-11.34-3.98-16.09s-7-9.64-11.79-12.89c-2.46-1.66-5.47-3.05-8.48-3.07-2.69-.01-5.2,1.29-6.9,3.34-1.86,2.26-2.7,5.04-2.75,7.95s.42,6.31,2.01,8.7,4.31,2.84,6.6,1.15c1.82-1.35,2.73-3.64,2.65-5.87-.19-5.51-5.4-8.46-10.49-7.64-5.54,.89-9.19,5.98-10.77,11.02-1.39,4.43-1.24,9.47,.52,13.76s5.39,8.1,10.14,8.6c2.33,.25,4.86-.53,5.98-2.74,1.26-2.48,.11-5.51-1.94-7.17s-5.08-2.41-7.77-2.66-5.74,.35-7.65,2.5-2.54,5.1-2.97,7.8-.53,5.24-.3,7.87c.49,5.49,2.27,10.89,5.3,15.51,1.44,2.2,3.14,4.22,5.07,6.01l2.12-2.12c-2.51-2.19-5.8-3.39-9.14-2.95s-5.47,2.71-5.73,5.98,1.84,6.27,3.87,8.73,4.29,4.71,6.73,6.75c10.13,8.46,22.81,13.39,35.52,16.45,14.8,3.56,30.08,4.22,45.07,1.42,7.35-1.37,14.55-3.47,21.6-5.97,3.53-1.25,7.02-2.61,10.48-4.03,2.98-1.23,6.11-2.56,8.22-5.1s3.05-6.2,1.44-9.18c-1.44-2.68-4.51-3.78-7.42-3.67-6.73,.25-12.8,5.47-16.04,11.05-.36,.62-.2,1.3,.23,1.82,2.17,2.62,5.92,.37,7.9-1.28,2.37-1.96,4.11-4.71,5.01-7.64,1.74-5.63,.14-14.39-6.84-15.35-7.74-1.06-11.71,7.26-17.22,10.95-6.29,4.22-14.2,6.42-21.68,7.09-4.4,.39-8.88,.26-13.24-.46-3.97-.66-7.99-1.61-11.62,.73-1.62,1.04-.11,3.64,1.51,2.59,2.82-1.82,6-.99,9.09-.46,3.38,.57,6.79,.86,10.22,.82,6.71-.1,13.43-1.39,19.67-3.88,3.02-1.2,5.98-2.62,8.59-4.56s4.43-4.22,6.64-6.38c2.05-2,4.93-4.07,7.97-3.42,2.84,.61,4.23,3.72,4.53,6.35,.33,2.92-.44,5.88-1.99,8.36-.8,1.27-1.83,2.43-3.03,3.34-.72,.55-2.62,2.02-3.4,1.07l.23,1.82c2.55-4.4,7.03-8.54,12.2-9.44,1.93-.33,4.41-.2,5.72,1.48,1.59,2.05,.48,5.04-1.13,6.7-2.06,2.13-5,3.2-7.68,4.28-3.04,1.23-6.1,2.41-9.18,3.5-6.17,2.19-12.45,4.07-18.85,5.42-13.09,2.77-26.51,2.9-39.67,.51-11.68-2.12-23.41-5.78-33.6-11.98-5.39-3.28-10.31-7.35-14.26-12.29-1.62-2.02-4.08-5.75-1.74-8.18s6.84-.66,8.87,1.12c1.44,1.26,3.55-.8,2.12-2.12-6.47-5.98-9.97-14.73-9.59-23.51,.09-2.12,.42-4.23,1-6.27,.64-2.25,1.73-4.16,4.16-4.69,2.15-.47,4.63,.04,6.68,.78,1.67,.6,4.15,2.34,3.26,4.48-.7,1.69-3.2,1.38-4.56,.9-1.65-.58-3.09-1.72-4.21-3.06-2.3-2.75-3.22-6.49-3.19-10.01,.04-3.93,1.36-8.1,4.03-11.04s7.86-4.73,10.93-1.4c1.11,1.21,1.49,3.05,1.05,4.62-.4,1.44-2.19,3.41-3.49,1.67s-1.58-4.64-1.6-6.72c-.03-2.35,.52-4.75,2.1-6.55,3.44-3.91,8.63-1.68,12.17,.92,3.82,2.8,6.92,6.77,9.59,10.64s4.87,8.3,4.39,13.1c-.19,1.95-.86,3.96-2.07,5.52-.29,.37-.62,.72-.96,1.04-.41,.38-.48,.77-.66,.22-.39-1.22,.05-2.62,.51-3.75,.96-2.4,2.38-4.69,3.69-6.92s2.68-4.34,4.13-6.44c2.9-4.17,6.09-8.19,9.65-11.81,6.23-6.32,14.57-11.65,23.83-10.15,4,.65,7.88,2.55,10.29,5.89,2.62,3.63,3.3,8.22,2.83,12.59-.23,2.17-.8,4.29-1.56,6.33-.59,1.59,1.98,2.67,2.74,1.16,2.94-5.82,7.32-13.14,14.81-12.68,2.64,.16,5.54,1.46,6.58,4.05,.75,1.86,.46,3.94,.09,5.85-.41,2.15-.92,4.28-.95,6.49-.02,1.44,2.11,2.11,2.8,.76,1.36-2.71,3.79-4.66,6.71-5.49,1.39-.4,2.87-.54,4.3-.34,.65,.09,1.7,.23,2.22,.66,.7,.57,.5,1.85,.41,2.64-.44,3.97-2.85,7.84-4.68,11.31s-3.86,7.05-6.1,10.37c-1.96,2.89-4.68,6.16-8.48,6.18l1.5,1.5c.06-1.63,1.37-2.83,2.61-3.73,1.54-1.12,3.29-2.18,5.09-2.84,1.64-.6,3.59-.92,5.05,.28,1.13,.93,1.57,2.51,1.57,3.92,0,3.89-3.37,7-5.85,9.62-2.7,2.86-5.49,5.65-8.38,8.32-11.46,10.54-25.36,19.33-41.25,20.54-8.6,.65-17.31-.91-24.75-5.41-1.66-1-3.17,1.59-1.51,2.59h0Z"/></g><g><path class="d" d="M1186.53,723.6c7.04-13.23,14.15-27.45,13.72-42.84-.19-6.61-1.72-13.27-5.03-19.03-3.6-6.27-9.25-10.58-15.31-14.3s-12.17-7.34-17.86-11.67-10.9-9.14-15.42-14.6c-2.21-2.67-4.23-5.5-6.01-8.47-1.99-3.32-3.59-6.86-5.65-10.14-3.88-6.19-9.58-10.79-15.52-14.9-11.02-7.62-26.63-16.28-26.02-31.84,.07-1.71,.42-3.37,.99-4.98l-1.85,1.05c25.94,5.63,50.76,16.07,72.86,30.77,9.56,6.36,18.83,13.89,25.25,23.54,3.08,4.64,5.43,9.74,6.61,15.19,1.34,6.16,1.05,12.55-.14,18.71-2.75,14.25-9.5,27.38-12,41.69l2.74-.36c-4.72-6.52-5.97-14.53-5.84-22.41,.15-8.81,1.71-17.6,3.14-26.27,3.1-18.88,6.96-37.7,8.33-56.82,.76-10.66,.7-21.39-.71-31.99-.11-.81-.61-1.49-1.5-1.5-.73,0-1.61,.7-1.5,1.5,2.55,19.21,.61,38.61-2.39,57.66-1.52,9.66-3.29,19.28-4.9,28.92-1.46,8.81-3.06,17.72-3.43,26.66-.37,8.94,.82,18.34,6.2,25.76,.67,.92,2.5,1.04,2.74-.36,2.3-13.19,8.19-25.38,11.28-38.37,1.49-6.28,2.31-12.82,1.57-19.26-.67-5.76-2.5-11.29-5.27-16.38-5.73-10.5-14.89-18.76-24.51-25.64-10.75-7.69-22.42-14.19-34.45-19.62-13.89-6.27-28.41-11.09-43.3-14.32-.84-.18-1.56,.25-1.85,1.05-2.32,6.54-.74,13.77,2.7,19.62,3.69,6.27,9.52,10.9,15.41,14.98s12.3,7.86,17.51,12.98c2.71,2.67,4.88,5.66,6.72,8.98s3.43,6.56,5.46,9.67c7.68,11.8,18.71,21,30.49,28.51,6.06,3.86,12.73,7.07,17.91,12.13,4.82,4.7,7.66,10.9,8.87,17.47,2.74,14.88-3.22,29.43-9.89,42.42-.91,1.77-1.83,3.52-2.77,5.27s1.68,3.22,2.59,1.51h0Z"/><path class="d" d="M1193.02,545.66c-2.07-11.29-5.65-22.24-10.58-32.6-.83-1.74-3.42-.22-2.59,1.51,4.82,10.12,8.26,20.85,10.28,31.88,.35,1.9,3.24,1.09,2.89-.8h0Z"/><path class="d" d="M1180.96,510.99c-7.44-1.11-13.89-5.91-20.37-9.42s-13.53-6.93-20.8-9.1c-7.74-2.31-15.56-2.68-23.59-2.65-7.31,.03-14.71,.01-21.64-2.59-2.92-1.1-5.71-2.69-7.98-4.84s-4.52-5.25-4.51-8.62c.03-7.62,7.99-11.58,14.1-13.86,6.85-2.56,14.59-4.9,21.92-3.15,3.69,.89,6.8,2.93,9.8,5.18s6.12,4.63,9.05,7.1,5.71,5.09,8.19,8.01,4.73,6.18,7.25,9.14,5.51,5.59,8.5,8.14c3.14,2.68,6.33,5.3,9.55,7.86,1.62,1.29,3.25,2.56,4.89,3.82v-2.59c-1.88,1.11-2.55,3.45-1.82,5.47,.84,2.32,3.35,3.58,5.69,3.79,2.88,.26,4.01-2.18,3.62-4.72-.35-2.31-1.91-4.41-4.07-5.33-.63-.27-1.3-.28-1.82,.23-1.74,1.72-2.09,4.56-.63,6.57,.41,.56,.99,.85,1.69,.69,2.11-.49,2.93-3.45,1.22-4.87-1.01-.84-3.12-.09-2.51,1.46l1.47,3.7c.34,.85,1.31,1.47,2.2,.9,2.03-1.32,2.12-4.64-.2-5.75-1.73-.83-3.26,1.76-1.51,2.59,.16,.08,.47,.4,.2,.57l2.2,.9-1.47-3.7-2.51,1.46c.18,.15-.06-.11,.11-.15l1.69,.69c-.69-.95-.7-2.08,.16-2.93l-1.82,.23c1.06,.45,1.9,1.18,2.37,2.25,.19,.44,.29,.92,.31,1.4,.03,.71,.12,.89-.51,.82-1.06-.11-2.39-.57-2.95-1.56-.39-.7-.34-1.7,.4-2.13,1.06-.63,.86-1.93,0-2.59-3.49-2.68-6.93-5.43-10.31-8.25-3.2-2.65-6.43-5.3-9.38-8.24s-5.35-6.27-7.89-9.52-5.18-6.06-8.17-8.73-6.2-5.15-9.4-7.59-6.12-4.75-9.72-6.23c-7.4-3.03-15.73-1.51-23.07,.9-6.83,2.25-14.76,5.14-18.26,11.95-1.62,3.16-2.11,6.82-.79,10.18s3.58,5.94,6.27,8.04c12.92,10.08,29.95,5.23,44.86,7.59,7.89,1.24,15.38,4.18,22.5,7.72,3.62,1.8,7.16,3.75,10.67,5.74s6.71,3.9,10.33,5.33c1.83,.73,3.71,1.26,5.66,1.55s2.7-2.61,.8-2.89h0Z"/><path class="d" d="M1170.41,508.41c-5.63-.43-11.36-.89-16.66-2.98-2.62-1.04-5.06-2.5-7.68-3.54s-5.61-1.67-8.48-2.18c-5.88-1.03-11.83-1.67-17.79-1.89-2.83-.11-5.69-.17-8.52-.03-2.44,.12-4.92,.56-6.86,2.14-3.19,2.61-3.71,7.39-2.27,11.06,1.72,4.4,5.93,7.05,10.13,8.76,9.55,3.88,20.39,4.7,30.53,3.13,5.7-.88,11.25-2.61,16.46-5.09s10.69-6.95,16.71-5.77c1.89,.37,2.69-2.52,.8-2.89-5.06-.99-9.7,1.13-14.07,3.47s-8.7,4.44-13.48,5.81c-9.42,2.7-19.54,2.97-29.08,.67-4.4-1.06-9.32-2.48-12.7-5.64-2.66-2.48-4.24-6.75-2.11-10.09,1.21-1.88,3.43-2.4,5.53-2.54,2.64-.17,5.31-.11,7.95-.03,5.7,.17,11.38,.71,17,1.65,2.97,.5,5.96,1.05,8.79,2.09s5.36,2.59,8.12,3.71c5.59,2.26,11.72,2.72,17.67,3.17,1.93,.15,1.92-2.85,0-3h0Z"/><path class="d" d="M1179.52,504.49c-.13-7.76-1.91-15.41-3.48-22.98-1.55-7.43-3.32-14.82-6.07-21.91-2.55-6.58-5.76-12.98-9.74-18.82-3.77-5.52-8.52-10.62-14.72-13.38-5.52-2.46-13.29-3.56-18.27,.7s-4.53,11.82-4.57,17.59c-.05,7.29,.79,14.53,3.58,21.32s6.59,12.45,10.45,18.33c2.1,3.2,4.3,6.38,6.98,9.13s5.91,4.86,9.19,6.85c3.7,2.24,7.41,4.48,11.11,6.72,3.25,1.97,6.7,3.98,10.63,3.79,1.92-.09,1.93-3.09,0-3-3.23,.15-6.03-1.52-8.71-3.14-3.03-1.82-6.05-3.66-9.08-5.49s-6.02-3.47-8.68-5.68c-2.43-2.01-4.49-4.43-6.33-6.98-3.74-5.18-7.27-10.68-10.28-16.32-3.25-6.08-5.22-12.48-5.71-19.38-.24-3.47-.21-6.95-.07-10.42,.11-2.71,.26-5.56,1.33-8.09,2.53-5.96,10.07-5.76,15.28-3.97,5.93,2.04,10.65,6.55,14.27,11.54,3.86,5.33,7.02,11.27,9.55,17.34,2.98,7.14,4.92,14.63,6.54,22.18s3.64,15.94,3.77,24.05c.03,1.93,3.03,1.93,3,0h0Z"/><path class="d" d="M1177.59,502.73c-7.95-1.99-10.21-12.05-12.12-18.83-2.36-8.39-3.9-17.01-4.56-25.7-.18-2.35-.3-4.71-.35-7.07s0-4.8,1.01-6.97c.82-1.74-1.77-3.26-2.59-1.51-1.93,4.1-1.49,8.8-1.23,13.19,.28,4.79,.82,9.56,1.6,14.29s1.78,9.32,3.04,13.89,2.5,9.08,4.66,13.19c2.05,3.91,5.35,7.32,9.74,8.42,1.87,.47,2.67-2.42,.8-2.89h0Z"/><path class="d" d="M1161.28,445.29c1.78-9.62,5.58-18.71,10.68-27.03,2.28-3.73,5.1-7.9,9.7-8.81,4.14-.82,7.03,2.15,8.68,5.58,1.95,4.04,2.72,8.78,3.43,13.17,.83,5.13,1.2,10.33,1.22,15.53,.03,10.33-1.45,20.6-4.02,30.59-2.84,11.05-6.99,21.73-11.88,32.03-.82,1.73,1.76,3.26,2.59,1.51,9.39-19.77,16.17-41.13,16.31-63.19,.03-5.55-.37-11.09-1.21-16.57-.74-4.8-1.64-9.82-3.7-14.26-1.71-3.7-4.67-6.96-8.91-7.45-4.9-.57-9.17,2.58-12.02,6.26-3.51,4.53-6.24,9.84-8.52,15.07s-4.17,10.99-5.24,16.78c-.35,1.89,2.54,2.7,2.89,.8h0Z"/><path class="d" d="M1179.11,497.45c1.22-9.35,4.19-18.71,8.19-27.23,1.98-4.21,4.24-8.88,7.68-12.1s8.24-4.63,12.74-5.7c4.91-1.18,10.42-2.6,15.35-.76,1.97,.73,3.85,2.03,4.96,3.84,1.29,2.1,1.27,4.58,.74,6.91-2.05,9.06-8.07,17.44-15.25,23.16-4.68,3.73-10.2,6.35-15.44,9.2l-17.38,9.45c-1.7,.92-.18,3.51,1.51,2.59l16.73-9.09c5.23-2.84,10.7-5.46,15.46-9.06,7.96-6.02,14.27-14.68,16.98-24.35,.75-2.69,1.11-5.67,.16-8.36-.78-2.18-2.26-3.97-4.12-5.32-4.43-3.22-10.05-3.15-15.22-2.23s-10.69,2.14-15.33,4.72-7.64,6.98-10.16,11.62c-5.44,10.03-9.12,21.42-10.6,32.73-.11,.81,.77,1.49,1.5,1.5,.9,0,1.4-.7,1.5-1.5h0Z"/><path class="d" d="M1179.18,500.79c2.8-4.38,7.53-7.49,11.59-10.63s8.57-6.39,13.25-8.95,9.42-4.4,14.56-5.2c2.9-.46,5.84-.6,8.73-1.16s5.73-1.4,8.55-2.27c6.64-2.04,13.26-4.16,19.86-6.32l-1.69-.69c1.33,3.14-.1,6.79-1.46,9.67-1.2,2.53-2.61,4.97-4.19,7.28-3.25,4.73-7.29,8.92-11.79,12.48-9.77,7.74-21.8,12.22-34.1,13.8-7.61,.98-15.33,.89-22.94,0-1.91-.22-1.9,2.78,0,3,14.24,1.67,29.06,.46,42.42-4.96,11.45-4.64,21.68-12.32,28.77-22.5,1.99-2.85,3.72-5.9,5.08-9.1,1.55-3.62,2.36-7.45,.78-11.2-.24-.58-1.13-.88-1.69-.69-6.15,2.01-12.31,3.98-18.49,5.9-2.83,.88-5.66,1.76-8.55,2.41s-5.84,.87-8.78,1.26c-10.94,1.44-20.37,7.42-28.97,13.98-4.76,3.63-10.25,7.24-13.53,12.37-1.04,1.63,1.55,3.14,2.59,1.51h0Z"/><path class="d" d="M1181.22,507.73c8.44,6.79,18,11.97,28.18,15.62s22.25,6.65,33.35,4.1c4.62-1.06,9.71-3.21,12.03-7.63,2.24-4.26,1.33-9.34-2.8-12.02-3.91-2.54-9.04-2.51-13.49-3.19-5.86-.89-11.65-2.21-17.32-3.92-6.13-1.85-12.29-3.98-18.75-4.22-6.81-.25-13.3,2.01-19.61,4.28-1.8,.65-1.03,3.55,.8,2.89,5.18-1.86,10.49-3.82,16.04-4.14s10.41,.97,15.42,2.46c5.26,1.57,10.47,3.2,15.85,4.32,4.82,1.01,9.74,1.37,14.56,2.32,3.77,.74,8.13,2.63,7.52,7.25s-5.22,7.07-9.26,8.25c-10.16,2.96-21.09,.5-30.88-2.73-10.64-3.5-20.76-8.73-29.5-15.76-1.49-1.2-3.63,.91-2.12,2.12h0Z"/></g><g><path class="d" d="M664.75,594.34c10.12-5.39,17.09-14.87,22.49-24.72,2.9-5.29,5.53-10.73,8.11-16.18s5.38-11.28,6.89-17.23c.68-2.66,.85-5.49-.3-8.05-1.03-2.3-3.02-4.03-5.56-4.34-5.73-.71-9.47,4.77-11.76,9.2-2.62,5.06-4.14,10.6-5.18,16.18-1.14,6.09-1.88,12.26-2.61,18.41-1.73,14.57-2.86,29.21-4,43.83l2.95-.4c-5.48-27.43-11.01-56.55-.56-83.55,2.77-7.16,6.26-14.04,8.3-21.46,.51-1.86-2.38-2.66-2.89-.8-1.86,6.75-4.91,13.06-7.54,19.53s-4.54,13.24-5.59,20.19c-2.12,14.05-1.21,28.28,.88,42.28,1.23,8.25,2.87,16.43,4.5,24.6,.35,1.75,2.82,1.19,2.95-.4,.93-12,1.87-24,3.12-35.97,.64-6.1,1.36-12.18,2.22-18.25,.73-5.17,1.57-10.35,3.1-15.36,.77-2.52,1.72-4.99,2.93-7.33,1.13-2.18,2.43-4.46,4.29-6.1,1.73-1.53,4.51-2.46,6.47-.78s2.07,4.4,1.63,6.66c-.53,2.77-1.63,5.47-2.66,8.09s-2.18,5.25-3.38,7.82c-2.38,5.13-4.87,10.23-7.49,15.24-5.43,10.38-12.21,20.64-22.83,26.29-1.7,.91-.19,3.5,1.51,2.59h0Z"/><path class="d" d="M683.65,506.09c.66-4.27-.4-8.31-1.62-12.38s-2.08-8.26-2.35-12.59c-.54-8.9-.2-17.91-.2-26.82,0-1.93-3-1.93-3,0,0,8.76-.31,17.59,.17,26.34,.23,4.27,.88,8.44,2.09,12.54s2.65,7.98,2.01,12.11c-.29,1.89,2.6,2.7,2.89,.8h0Z"/><path class="d" d="M669.19,435.68c-.12,6.28,2.61,12.02,5.36,17.51s5.9,10.67,10.65,14.73c4.19,3.58,9.15,6.26,14.48,7.7s11.74,2.39,16.18-1.18c4.76-3.83,5.23-10.17,5.1-15.82-.03-1.34-.07-2.72,.29-4.02,.4-1.48,1.38-2.49,2.43-3.55,2.03-2.04,3.63-4.33,4.49-7.11,.79-2.57,1.05-5.5-.75-7.7-.83-1.01-1.92-1.77-2.94-2.56-1.23-.96-2.47-1.91-3.74-2.82-2.37-1.7-4.85-3.25-7.54-4.41-2.83-1.22-5.78-1.86-8.81-2.35-3.61-.59-7.27-1.16-10.94-1.08s-7.17,.84-10.66,1.74c-5.78,1.5-13.34,3.39-14.04,10.5-.19,1.92,2.81,1.91,3,0,.52-5.33,7.74-6.55,11.83-7.61,2.76-.72,5.57-1.37,8.42-1.57s5.85,.06,8.74,.47,5.7,.81,8.45,1.62c2.56,.75,4.93,1.95,7.19,3.37s4.27,2.94,6.31,4.53c.88,.68,1.94,1.36,2.58,2.29,.76,1.11,.55,2.56,.26,3.79-.58,2.54-1.89,4.67-3.7,6.51s-3.22,3.46-3.66,5.96-.09,5.2-.21,7.8-.64,5.31-2.09,7.57c-2.97,4.63-8.66,4.21-13.43,3.21s-9.38-3.08-13.36-6c-4.93-3.62-8.35-8.5-11.1-13.89s-5.91-11.28-5.78-17.63c.04-1.93-2.96-1.93-3,0h0Z"/><path class="d" d="M668.03,433.04c-1.42,.45-2.74,1.26-3.72,2.39-1.08,1.24-1.99,3.01-1.36,4.68,.19,.5,.51,.9,1.05,1.05s1.02-.04,1.46-.39c1.75-1.37,3.26-2.97,4.6-4.74,.32-.43,.67-.86,.93-1.33,.45-.79,.43-1.83-.34-2.42-.43-.33-1.02-.45-1.55-.27-.32,.11-.58,.29-.86,.47-.39,.25-.78,.51-1.17,.77-1.68,1.16-3.32,2.5-4.35,4.3-.27,.47-.54,1.01-.69,1.53-.29,1.09,.48,2.28,1.66,2.25,.78-.02,1.33-.51,1.87-1.01,.4-.37,.79-.75,1.16-1.14,1.72-1.78,3.24-3.78,4.48-5.92,.63-1.09-.42-2.62-1.69-2.2-3.6,1.19-6.47,4.14-7.5,7.8-.21,.75,.26,1.67,1.05,1.85s1.62-.24,1.85-1.05c.1-.36,.2-.77,.38-1.1-.19,.35-.01,.04,.02-.03,.04-.08,.08-.16,.11-.24,.09-.17,.18-.34,.27-.51,.19-.34,.41-.66,.64-.97,.16-.23-.13,.15,0,.01,.07-.08,.13-.16,.2-.24,.13-.15,.26-.29,.39-.43,.27-.28,.55-.55,.85-.79,.07-.06,.14-.11,.21-.17,.14-.12-.24,.17,0,.01,.17-.12,.34-.24,.52-.36,.31-.2,.63-.38,.97-.54,.08-.04,.16-.08,.24-.11,.06-.03,.13-.06,.19-.09l-.16,.07c.16,0,.44-.16,.6-.22l-1.69-2.2c-.4,.68-.82,1.35-1.27,2-.23,.33-.46,.65-.7,.96-.04,.05-.22,.28-.03,.04-.05,.07-.1,.13-.15,.2-.13,.16-.26,.32-.39,.48-.49,.59-1.01,1.17-1.55,1.72-.28,.28-.56,.56-.85,.83-.15,.14-.3,.28-.46,.42-.04,.03-.17,.12-.19,.17,.04-.15,.49-.26,.6-.26l.76,.2,.18,.15,.39,.66c.03,.08-.11,.79,.03,.4,.01-.03,.03-.07,.04-.1,.04-.1,.03-.07-.05,.11,.08-.03,.17-.36,.21-.44,.16-.3,.34-.59,.54-.87,0-.01,.22-.29,.08-.11s.06-.07,.09-.1c.12-.14,.24-.28,.36-.41,.24-.25,.49-.5,.75-.73,.24-.21,.52-.54,.81-.68-.09,.04-.18,.14-.04,.03,.08-.06,.15-.11,.23-.17,.15-.11,.3-.22,.46-.33,.29-.2,.59-.4,.89-.6,.16-.1,.31-.2,.47-.3,.06-.04,.12-.08,.19-.12,.35-.22,.14,.03-.31,.01l-.76-.2-.2-.15-.39-.66c-.02-.05-.04-.79,.11-.79-.01,0-.1,.16-.11,.17-.09,.14-.18,.28-.28,.41-.19,.27-.38,.54-.58,.81-.09,.12-.08,.1,0,0-.05,.07-.1,.13-.15,.2-.1,.13-.21,.26-.31,.39-.23,.27-.46,.54-.7,.8-.91,1-1.91,1.92-2.97,2.76l2.51,.66c-.03-.07-.05-.14-.07-.21-.04-.17-.04-.14,0,.07-.05-.1,0-.28,0-.39,0-.11,0-.07-.02,.12,.01-.07,.03-.15,.05-.22,.02-.07,.04-.15,.07-.22,.06-.16,.05-.15-.02,.03-.02-.19,.31-.56,.41-.71,.04-.06,.09-.12,.13-.18l-.1,.13c.06-.12,.2-.24,.29-.34,.18-.19,.37-.37,.57-.54,.06-.05,.11-.1,.17-.14-.16,.12-.17,.13-.03,.03,.09-.06,.18-.13,.28-.19,.22-.14,.45-.27,.68-.38,.07-.03,.13-.06,.2-.09-.19,.08-.2,.08-.05,.02,.14-.05,.28-.1,.42-.15,.75-.24,1.3-1.05,1.05-1.85-.24-.75-1.04-1.3-1.85-1.05h0Z"/><path class="d" d="M669.62,430.54c-1.99-1.81-4.62-2.55-7.21-3.04-1.43-.27-2.89-.46-4.34-.58s-3.02-.29-4.47,.03c-2.72,.61-4.22,3.36-2.86,5.88s4.28,2.8,6.77,3.07c3.3,.36,6.62,.42,9.93,.21,1.92-.12,1.93-3.12,0-3-2.99,.19-5.99,.16-8.98-.11-1.27-.12-2.66-.17-3.86-.64-.6-.24-1.64-.92-1.4-1.73,.28-.97,1.9-.86,2.64-.84,1.45,.04,2.91,.16,4.35,.37,2.42,.35,5.42,.79,7.3,2.5,1.43,1.3,3.55-.82,2.12-2.12h0Z"/><path class="d" d="M672.21,431.53c-.15,1.96,.72,4.06,2.26,5.29,1.71,1.37,3.93,1.6,5.87,.56,1.83-.98,3.13-3.2,2.48-5.28-.43-1.35-1.6-1.97-2.84-2.44-1.15-.44-2.35-.68-3.57-.8-.63-.06-1.27-.08-1.91-.05-.69,.04-1.46,.06-2.06,.47-.63,.44-.93,1.06-1.03,1.8-.04,.27-.05,.54-.06,.81,0,.08,.02,.21-.02,.28,.03-.21,.03-.24,0-.07-.02,.07-.04,.14-.07,.2-.28,.73,.31,1.68,1.05,1.85,.86,.2,1.54-.26,1.85-1.05,.14-.36,.17-.76,.19-1.15,0-.15,.02-.3,.02-.45,0-.32,0,.09-.02,.08-.08-.05,.24-.46-.03-.02-.07,.11-.17,.19-.27,.26-.2,.13-.13,.07-.02,.03-.26,.1-.12,.01,0,0,.11,0,.21-.02,.32-.03,.48-.03,.96-.04,1.43-.01,.21,.01,.42,.03,.64,.05,.11,.01,.21,.02,.32,.04-.07,0-.23-.04,.07,.02,.45,.08,.89,.17,1.32,.29s.86,.27,1.28,.44c-.24-.1,.21,.1,.26,.13,.08,.04,.15,.09,.22,.13,.24,.15-.08-.07,.04,.04,.16,.14-.1-.2,0,0s-.01-.2,.01,.02c0,.04,.06,.33,.04,.14s0,.1,0,.15c0,.05,0,.32,0,.09,0-.21,0,.01-.02,.08-.03,.12-.19,.53-.04,.22-.07,.15-.15,.29-.24,.43-.03,.04-.17,.24-.04,.07s-.02,.02-.06,.06c-.1,.11-.21,.21-.32,.31-.04,.04-.24,.17-.07,.06,.18-.12-.09,.05-.13,.08-.13,.08-.26,.15-.4,.22-.24,.13,0,0,.05-.02-.07,.02-.14,.05-.21,.08-.14,.05-.29,.08-.44,.11-.29,.07,.04,0,.06,0-.06,.03-.27,.02-.34,.02-.08,0-.15,0-.23,0-.29,0,.03,.02,.06,.02-.13,.02-.33-.07-.45-.1-.08-.02-.15-.06-.23-.08,.27,.08,.11,.05,.03,.01-.18-.09-.34-.19-.51-.3-.07-.04-.2-.18,.02,.02-.07-.07-.15-.13-.22-.2-.13-.12-.25-.25-.37-.39-.18-.21-.01-.02,.02,.02-.07-.1-.14-.2-.2-.3-.09-.15-.17-.32-.26-.48-.11-.2,.11,.33-.01-.03-.03-.1-.07-.19-.1-.29-.05-.17-.09-.35-.13-.53-.06-.27,0-.02,0,.04-.01-.12-.02-.24-.03-.36,0-.2,0-.4,.01-.6,.06-.78-.73-1.53-1.5-1.5-.86,.04-1.44,.66-1.5,1.5h0Z"/><path class="d" d="M673.53,430.1c-1.26-3.23-.78-7.14,1.48-9.83,.6-.71,1.31-1.44,2.17-1.83,.54-.25,1.7-.58,2.11,0,.45,.63,.2,1.68-.06,2.32-.38,.91-1.01,1.73-1.67,2.45-1.73,1.89-3.72,3.53-5.87,4.91l2.2,.9-.27-1.56c-.29-1.69-2.96-1.26-2.95,.4v.92c.01,.85,.69,1.45,1.51,1.5l.57,.04c.81,.05,1.5-.72,1.5-1.5,0-.85-.69-1.45-1.5-1.5l-.57-.04,1.5,1.5v-.92l-2.95,.4,.27,1.56c.16,.94,1.45,1.38,2.2,.9,2.42-1.55,4.72-3.4,6.63-5.55,1.79-2.02,3.42-4.85,2.34-7.6-1.29-3.31-5.41-2.72-7.72-.91-1.97,1.54-3.37,3.76-4.08,6.15-.79,2.63-.74,5.56,.26,8.12,.29,.75,1.01,1.28,1.85,1.05,.72-.2,1.34-1.09,1.05-1.85h0Z"/><path class="d" d="M670.66,429.5c-4.74-3.3-10.26-6.19-13.29-11.32-.6-1.01-1.23-2.21-1.38-3.39-.05-.39-.07-.81,.26-1.05,.44-.32,1.26-.2,1.75-.09,2.47,.58,4.25,2.93,5.84,4.73,2.34,2.65,4.63,5.34,6.5,8.34,1.02,1.63,3.62,.13,2.59-1.51-2.01-3.22-4.47-6.11-6.97-8.95-2.04-2.31-4.35-5.03-7.57-5.58-1.65-.28-3.5-.06-4.62,1.31-1.04,1.28-.93,3.04-.45,4.52,1.03,3.19,3.14,5.94,5.58,8.19,3.1,2.86,6.78,4.99,10.23,7.39,1.59,1.11,3.09-1.49,1.51-2.59h0Z"/><path class="d" d="M671.13,403.45c-3.99,8.51-5.64,17.96-4.61,27.32,.21,1.9,3.21,1.92,3,0-.97-8.81,.43-17.77,4.21-25.81,.82-1.74-1.77-3.26-2.59-1.51h0Z"/><path class="d" d="M667.56,398.28c1.29,8.28,2.17,16.61,2.68,24.98,.12,1.92,3.12,1.93,3,0-.52-8.63-1.46-17.23-2.79-25.78-.3-1.9-3.19-1.09-2.89,.8h0Z"/><path class="d" d="M673.3,432.99c-1.44-1.36-3.78-.02-3.28,1.91,.22,.85,1.05,1.17,1.85,1.05,1.12-.17,1.89-1.26,1.8-2.36-.1-1.22-1.11-1.86-2.23-1.99-.87-.1-1.41,.77-1.5,1.5-.2,1.66,.03,3.33,1.52,4.33,.59,.4,.95,.63,1.24,1.32,.33,.79,.51,1.65,.72,2.48,.98,3.91,1.33,7.92,1.12,11.95-.1,1.93,2.9,1.92,3,0,.21-4.02-.14-8.07-1.05-12-.37-1.61-.72-3.46-1.71-4.82-.25-.34-.51-.62-.83-.88-.24-.19-.8-.4-.98-.64-.3-.4-.09-1.29-.03-1.74l-1.5,1.5,.22,.02-.76-.2-.16-.23v-.8l.33-.33,1.85,1.05-.04-.17v.8l-.53,.61h-.8l-.36-.23c1.4,1.33,3.52-.79,2.12-2.12h0Z"/><path class="d" d="M672.21,433.51l-.55,1.15c-.43,.9-.08,1.88,.9,2.2,2.84,.96,3.37,4.49,3.51,7.06,.19,3.54,.27,7.09,.4,10.63,.07,1.92,3.07,1.93,3,0-.15-4.12-.06-8.35-.56-12.44-.43-3.5-2-6.95-5.56-8.14l.9,2.2,.55-1.15c.82-1.74-1.76-3.26-2.59-1.51h0Z"/><path class="d" d="M673.1,437.8c.14,1.27,.75,2.16,1.33,3.26,.55,1.03,.41,2.4,.47,3.54l.43,8.18c.1,1.92,3.1,1.93,3,0l-.43-8.18c-.07-1.32,0-2.8-.43-4.06-.2-.57-.49-1.09-.8-1.6-.2-.34-.52-.73-.57-1.14-.09-.8-.62-1.5-1.5-1.5-.74,0-1.59,.69-1.5,1.5h0Z"/><path class="d" d="M671.9,431.56c.13-.45,.21-.93,.23-1.4,.05-.82-.32-1.61-1.1-1.93-.39-.16-.8-.2-1.21-.09-.33,.09-.67,.29-.9,.54-.45,.49-.62,1.15-.54,1.81,0,.27,.07,.52,.2,.76,.13,.23,.31,.4,.54,.54,.46,.27,1.06,.28,1.51,0,.65-.39,1.08-.98,1.33-1.69,.2-.56,.21-1.29,0-1.85-.09-.24-.2-.48-.39-.66-.23-.23-.54-.37-.86-.41-.27-.04-.52,0-.78,.1-.29,.12-.56,.33-.72,.61-.03,.06-.07,.12-.11,.18l.23-.3c-.09,.11-.18,.21-.3,.29l.3-.23c-.1,.07-.21,.14-.33,.19l.36-.15c-.12,.05-.24,.08-.36,.1l.4-.05c-.06,0-.11,.01-.17,.01-.38,.01-.8,.15-1.06,.44-.23,.25-.37,.53-.41,.86s0,.68,.18,.96c.22,.34,.51,.55,.9,.69,.21,.07,.44,.1,.66,.11s.45-.03,.67-.07c.16-.03,.3-.09,.46-.16s.3-.12,.43-.22c.36-.26,.66-.54,.89-.92s.35-.84,.35-1.29c0-1.12-1.28-1.89-2.26-1.3l-1.41,.86c-.33,.2-.59,.52-.69,.9s-.05,.84,.15,1.16,.51,.6,.9,.69,.81,.06,1.16-.15l1.41-.86-2.26-1.3s0,.1,0,.15l.05-.4c-.01,.08-.03,.16-.06,.24l.15-.36c-.04,.1-.1,.19-.16,.28l.23-.3c-.07,.09-.15,.16-.23,.23l.3-.23c-.09,.07-.18,.12-.28,.17l.36-.15c-.1,.04-.2,.07-.31,.09l.4-.05c-.1,.01-.19,.01-.29,0l.4,.05c-.07-.01-.14-.03-.21-.05l-.4,2.95c1.05-.04,2.04-.59,2.56-1.52l-2.74-.36c.04,.11,.07,.22,.09,.33l-.05-.4c.01,.13,.01,.25,0,.38l.05-.4c-.02,.14-.06,.28-.11,.41l.15-.36c-.06,.13-.13,.25-.21,.37l.23-.3c-.08,.1-.17,.19-.27,.27l.3-.23s-.08,.06-.13,.09l2.26,1.3c-.02-.14-.03-.28-.02-.43l-.05,.4c.01-.08,.03-.15,.06-.22l-.15,.36s.04-.07,.06-.1l-.23,.3s.05-.05,.08-.07l-.3,.23s.06-.04,.09-.05l-.36,.15s.09-.03,.13-.04l-.4,.05s.04,0,.07,0l-.4-.05s.06,.01,.1,.03l-.36-.15s.04,.02,.06,.04l-.3-.23s.04,.03,.05,.06l-.23-.3s.03,.05,.04,.07l-.15-.36s.02,.08,.03,.12l-.05-.4c.02,.2,0,.4-.03,.6l.05-.4c-.03,.23-.08,.46-.15,.68-.11,.37-.04,.83,.15,1.16,.18,.31,.54,.61,.9,.69,.38,.09,.81,.07,1.16-.15s.58-.51,.69-.9h0Z"/><path class="d" d="M674.18,404.42c1.01-4.14,3.54-7.54,6.46-10.56s6.37-6.43,10.07-8.74c3.9-2.44,8.95-3.08,13.45-2.21,1.9,.37,3.77,1.06,5.15,2.46s2.02,3.45,2.24,5.4c.48,4.37-.62,8.78,.38,13.12,1.06,4.59,5.08,7.26,7.15,11.3,1.78,3.46,3.39,9.47,.21,12.6s-8.57,3.65-12.79,3.41c-5.38-.3-10.6-1.92-15.75-3.36-2.57-.72-5.19-1.7-7.86-1.94s-5.37,.89-7.83,2.01c-1.76,.8-.23,3.38,1.51,2.59,2.6-1.18,4.99-2.01,7.84-1.31,2.54,.62,5.04,1.4,7.56,2.1,4.96,1.39,10.01,2.75,15.18,2.94,4.73,.17,10.13-.73,13.82-3.92s3.48-8.97,2.06-13.37c-.78-2.39-1.96-4.61-3.51-6.59s-3.41-3.57-4.29-5.87c-1.72-4.52-.15-9.6-.76-14.3s-3.11-8.15-7.55-9.67-9.97-1.31-14.28,.3c-5.06,1.9-9.2,6.06-13.01,9.78s-7.11,7.85-8.37,13.01c-.46,1.88,2.44,2.68,2.89,.8h0Z"/><path class="d" d="M670.6,397.68c-.71-3.68-1.88-7.25-3.49-10.65-1.42-3.01-3.21-5.99-5.87-8.06-2.48-1.94-5.79-2.97-8.92-2.19-3.35,.84-5.24,3.9-8.09,5.58-3.26,1.92-6.53,1.9-10.15,1.43s-6.2,.93-8.26,3.7c-3.75,5.04-3.25,11.99-1.6,17.72,2.02,6.98,6.28,14.6,14.14,15.85,.88,.14,1.5-.23,1.85-1.05,2.02-4.83-2.01-9.2-5.99-11.27-4.74-2.47-10.13-4.55-15.38-5.58-4.79-.93-9.97-.69-14.03,2.29s-5.52,7.13-4.5,11.87c.54,2.51,1.67,4.91,1.93,7.48s-.35,5.02-1,7.44c-1.24,4.54-2.88,9.44-1.09,14.07,1.58,4.08,5.16,6.95,9.21,8.39,4.87,1.73,10.26,.99,15.04-.68,5.21-1.82,9.91-4.73,14.83-7.18,2.38-1.19,4.82-2.05,7.3-2.99,2.05-.78,3.96-2.13,4.17-4.49,.48-5.29-7.13-4.3-10.34-3.62-4.28,.91-8.25,3.1-11.5,6.01s-5.77,6.61-7.26,10.7c-1.73,4.74-1.51,9.5,1.73,13.5,1.43,1.77,3.26,3.21,5.2,4.39,1.83,1.12,4.66,1.77,5.7,3.77s.93,4.31,1.73,6.35,2.28,3.63,4.15,4.68c8.64,4.83,18.89-2.97,24.39-9.28,5.99-6.88,9.72-15.51,11.76-24.34,.51-2.21,.92-4.45,1.23-6.69,.11-.81-.2-1.6-1.05-1.85-.7-.2-1.73,.25-1.85,1.05-1.11,7.92-3.36,15.77-7.33,22.74s-9.76,13.43-17.24,16.05c-3.55,1.24-8.34,1.21-10.68-2.27-1.08-1.6-1.18-3.63-1.62-5.45-.47-1.94-1.35-3.65-3.01-4.82s-3.62-1.81-5.31-2.92-3.15-2.35-4.26-3.94c-2.56-3.67-1.79-7.96,.03-11.8,3.2-6.76,9.71-12.11,17.21-13.19,.92-.13,1.86-.18,2.79-.17,.54,0,2.12-.14,2.48,.39,.4,.6-.34,1.43-.77,1.74-.88,.63-2,.88-3.01,1.23-4.47,1.57-8.59,3.94-12.77,6.13-7.38,3.87-17.36,7.88-24.82,1.95-3.21-2.55-4.39-6.25-3.75-10.25,.69-4.32,2.57-8.38,2.75-12.8,.09-2.26-.44-4.44-1.09-6.59s-1.42-4.24-1.21-6.45c.36-3.71,3.74-6.46,7.13-7.43,4.69-1.34,9.7,.11,14.14,1.66,2.25,.79,4.48,1.66,6.66,2.65,1.92,.86,3.91,1.82,5.33,3.42,1.32,1.48,1.87,3.46,1.09,5.33l1.85-1.05c-6.08-.97-9.58-6.42-11.44-11.84-1.68-4.89-2.88-10.98-.3-15.79,.64-1.19,1.5-2.35,2.64-3.12,1.45-.98,2.96-.79,4.6-.54,2.89,.43,5.76,.32,8.53-.73,2.9-1.1,4.88-3.02,7.2-4.97s5.07-2.13,7.7-.72c2.85,1.54,4.63,4.46,6.03,7.27,1.69,3.4,2.86,7.02,3.58,10.74,.37,1.89,3.26,1.09,2.89-.8h0Z"/><path class="d" d="M670.53,425.3s.06,.07,.08,.11l-.23-.3c.44,.57,.8,1.19,1.08,1.85l-.15-.36c.27,.64,.46,1.31,.57,2,.05,.35,.4,.73,.69,.9,.32,.19,.8,.27,1.16,.15s.71-.34,.9-.69l.15-.36c.07-.27,.07-.53,0-.8-.13-.86-.41-1.65-.76-2.45s-.82-1.49-1.36-2.16c-.22-.28-.72-.44-1.06-.44-.37,0-.81,.16-1.06,.44s-.46,.66-.44,1.06l.05,.4c.07,.25,.2,.47,.39,.66h0Z"/></g><g><path class="d" d="M297.02,613.6c6.86-12.91,13.8-26.76,13.43-41.76-.16-6.48-1.64-13.03-4.86-18.7-3.5-6.16-9.01-10.41-14.95-14.06s-11.9-7.17-17.46-11.39-10.65-8.9-15.08-14.22c-2.21-2.65-4.22-5.46-5.99-8.42-1.94-3.23-3.51-6.68-5.5-9.88-3.83-6.13-9.47-10.67-15.35-14.73-10.77-7.43-26.01-15.94-25.33-31.15,.07-1.64,.42-3.22,.96-4.76l-1.85,1.05c25.38,5.51,49.67,15.72,71.29,30.11,9.34,6.21,18.41,13.57,24.68,23,3.01,4.53,5.31,9.51,6.48,14.84,1.32,6.02,1.04,12.26-.11,18.29-2.68,13.96-9.3,26.83-11.75,40.85l2.74-.36c-4.6-6.36-5.83-14.16-5.71-21.85,.13-8.59,1.66-17.16,3.05-25.62,3.04-18.52,6.83-36.97,8.18-55.73,.75-10.44,.69-20.95-.69-31.34-.11-.81-.61-1.49-1.5-1.5-.73,0-1.61,.7-1.5,1.5,2.5,18.85,.59,37.89-2.36,56.57-1.47,9.36-3.19,18.67-4.75,28.02-1.44,8.67-3.02,17.45-3.38,26.26s.81,17.93,6.07,25.2c.67,.92,2.5,1.04,2.74-.36,2.25-12.91,8.01-24.82,11.03-37.53,1.46-6.15,2.27-12.53,1.54-18.84-.65-5.64-2.43-11.04-5.14-16.02-5.59-10.28-14.54-18.36-23.94-25.1-10.5-7.53-21.93-13.89-33.69-19.22-13.62-6.17-27.87-10.9-42.49-14.07-.84-.18-1.56,.25-1.85,1.05-2.26,6.39-.74,13.44,2.61,19.16,3.59,6.13,9.28,10.67,15.04,14.67s12.02,7.68,17.13,12.67c2.68,2.62,4.82,5.56,6.64,8.83s3.39,6.48,5.4,9.56c7.51,11.51,18.26,20.49,29.76,27.83,5.98,3.82,12.6,6.98,17.7,12.01,4.69,4.63,7.44,10.74,8.59,17.18,2.59,14.54-3.27,28.73-9.78,41.4-.87,1.68-1.75,3.36-2.64,5.03s1.68,3.22,2.59,1.51h0Z"/><path class="d" d="M303.38,439.44c-2.03-11.05-5.53-21.77-10.36-31.91-.83-1.74-3.42-.22-2.59,1.51,4.72,9.9,8.08,20.4,10.06,31.19,.35,1.9,3.24,1.09,2.89-.8h0Z"/><path class="d" d="M291.56,405.49c-7.33-1.1-13.69-5.84-20.07-9.29s-13.28-6.78-20.42-8.89c-7.6-2.24-15.27-2.56-23.14-2.53-7.12,.03-14.32-.02-21.05-2.59-5.4-2.06-12.32-6.95-12.04-13.47,.32-7.4,8.19-11.09,14.16-13.29,6.7-2.48,14.27-4.69,21.41-2.85,3.66,.95,6.73,3.09,9.7,5.34s6.01,4.57,8.88,7.02c3.19,2.73,6.16,5.68,8.78,8.96s5.01,6.71,7.94,9.71,6.42,5.87,9.76,8.63,7.01,5.69,10.59,8.45v-2.59c-1.89,1.13-2.55,3.5-1.75,5.51,.88,2.22,3.28,3.41,5.55,3.62,2.77,.25,3.93-2.05,3.59-4.53-.32-2.33-1.85-4.44-4.02-5.37-.63-.27-1.3-.27-1.82,.23-1.72,1.69-2.06,4.49-.62,6.47,.41,.56,.99,.85,1.69,.69,2.08-.49,2.9-3.42,1.2-4.82-1.01-.84-3.12-.09-2.51,1.46l1.44,3.63c.34,.85,1.31,1.47,2.2,.9,2.01-1.3,2.1-4.59-.2-5.68-1.73-.83-3.26,1.76-1.51,2.59,.15,.07,.43,.36,.2,.5l2.2,.9-1.44-3.63-2.51,1.46c.17,.14-.08-.15,.12-.2l1.69,.69c-.67-.92-.68-2.01,.15-2.83l-1.82,.23c.99,.42,1.77,1.07,2.24,2.05,.24,.5,.37,1.07,.37,1.62,0,.63,.11,.71-.47,.64-1-.12-2.17-.5-2.76-1.37-.46-.68-.48-1.72,.28-2.18,1.06-.63,.87-1.92,0-2.59-6.59-5.07-13.36-10.25-19.26-16.13-2.81-2.81-5.14-6.01-7.58-9.14s-5.02-5.92-7.92-8.53-5.95-4.97-9.03-7.33-6.23-4.89-9.91-6.39c-7.16-2.93-15.21-1.51-22.33,.8-6.72,2.18-14.53,4.99-18.06,11.62-1.62,3.03-2.18,6.62-.97,9.9s3.49,5.98,6.17,8.08c12.61,9.9,29.23,5.21,43.81,7.46,7.75,1.19,15.11,4.07,22.11,7.55,3.49,1.73,6.9,3.61,10.29,5.53s6.75,3.94,10.39,5.37c1.78,.7,3.6,1.22,5.49,1.5s2.7-2.61,.8-2.89h0Z"/><path class="d" d="M281.22,402.97c-5.5-.42-11.1-.86-16.28-2.91-2.5-.99-4.82-2.38-7.32-3.39s-5.31-1.64-8.04-2.13c-5.78-1.04-11.64-1.68-17.5-1.92-2.83-.11-5.68-.17-8.52-.05-2.34,.1-4.76,.46-6.67,1.91-3.24,2.44-3.92,7.05-2.63,10.71,1.56,4.42,5.68,7.12,9.82,8.84,9.38,3.88,20.07,4.71,30.05,3.18,5.59-.85,11.05-2.54,16.15-4.97s10.48-6.82,16.38-5.67c1.89,.37,2.69-2.52,.8-2.89-4.93-.97-9.45,1.08-13.71,3.36s-8.62,4.4-13.36,5.75c-9.28,2.64-19.24,2.87-28.62,.56-4.3-1.06-9.09-2.48-12.35-5.64-2.52-2.45-3.99-6.87-1.63-9.96,1.26-1.65,3.42-2.04,5.37-2.15,2.64-.15,5.31-.09,7.95,0,5.52,.18,11.03,.72,16.48,1.64,2.91,.49,5.84,1.04,8.6,2.09s5.1,2.49,7.74,3.55c5.47,2.21,11.47,2.66,17.3,3.1,1.93,.15,1.92-2.85,0-3h0Z"/><path class="d" d="M290.17,399.17c-.12-7.48-1.82-14.84-3.33-22.13s-3.15-14.23-5.73-21.05-5.68-13.05-9.65-18.92c-3.6-5.32-8.09-10.28-13.98-13.09-5.42-2.59-13.12-3.89-18.21,.15s-4.74,11.41-4.8,17.13c-.08,7.17,.68,14.32,3.41,21s6.52,12.38,10.36,18.22c2.03,3.09,4.17,6.17,6.75,8.83s5.82,4.8,9.06,6.76c3.55,2.15,7.1,4.29,10.65,6.44,3.26,1.97,6.69,4.03,10.65,3.85,1.92-.09,1.93-3.09,0-3-3.33,.15-6.18-1.66-8.92-3.32-2.93-1.77-5.87-3.55-8.8-5.32s-5.78-3.35-8.32-5.49c-2.31-1.95-4.28-4.27-6.04-6.71-3.69-5.13-7.19-10.57-10.15-16.16-3.15-5.95-5.03-12.22-5.48-18.95-.22-3.32-.19-6.64-.05-9.96,.11-2.71,.25-5.59,1.39-8.1,2.67-5.87,10.31-5.38,15.42-3.47,5.69,2.13,10.18,6.6,13.65,11.47,3.74,5.26,6.82,11.09,9.26,17.06,2.87,7.02,4.74,14.36,6.31,21.77s3.45,15.21,3.57,22.97c.03,1.93,3.03,1.93,3,0h0Z"/><path class="d" d="M288.26,397.41c-7.81-1.96-10.01-11.89-11.88-18.55-2.29-8.19-3.79-16.6-4.43-25.08-.18-2.35-.3-4.7-.34-7.06-.04-2.23,.02-4.54,.99-6.59,.82-1.74-1.77-3.26-2.59-1.51-1.87,3.98-1.46,8.52-1.22,12.79,.27,4.64,.79,9.27,1.53,13.86s1.77,9.35,3.04,13.93c1.18,4.27,2.41,8.69,4.44,12.65s5.27,7.35,9.65,8.45c1.87,.47,2.67-2.42,.8-2.89h0Z"/><path class="d" d="M272.31,341.24c1.74-9.41,5.46-18.29,10.44-26.43,2.28-3.73,5.2-8.03,9.9-8.69,4.03-.56,6.69,2.55,8.21,5.88,1.82,4,2.57,8.61,3.25,12.92,.78,4.98,1.13,10.02,1.13,15.06,0,10.01-1.44,19.96-3.93,29.64-2.78,10.82-6.84,21.27-11.63,31.35-.82,1.73,1.76,3.26,2.59,1.51,9.15-19.26,15.77-40.06,15.96-61.56,.05-5.39-.32-10.77-1.12-16.1-.72-4.78-1.6-9.74-3.59-14.18-1.6-3.58-4.41-6.87-8.49-7.47-4.86-.71-9.16,2.28-12.02,5.93-3.48,4.45-6.18,9.69-8.44,14.85s-4.1,10.8-5.15,16.49c-.35,1.89,2.54,2.7,2.89,.8h0Z"/><path class="d" d="M289.76,392.28c1.18-9.06,4.05-18.11,7.89-26.38,1.88-4.04,4.02-8.47,7.19-11.66s7.99-4.8,12.46-5.89c4.83-1.18,10.27-2.63,15.16-.95,1.94,.67,3.84,1.9,4.98,3.64,1.39,2.12,1.39,4.63,.83,7.03-2.05,8.86-7.93,17.03-14.98,22.63-4.59,3.64-10,6.2-15.12,8.99l-16.91,9.19c-1.7,.92-.18,3.51,1.51,2.59l16.47-8.95c4.98-2.71,10.2-5.21,14.76-8.61,7.9-5.88,14.14-14.39,16.86-23.9,.77-2.68,1.15-5.67,.19-8.36-.79-2.2-2.3-3.98-4.19-5.32-4.49-3.18-10.18-2.95-15.33-1.97s-10.38,2.13-14.87,4.75-7.24,6.88-9.64,11.34c-5.26,9.78-8.84,20.85-10.28,31.85-.11,.81,.77,1.49,1.5,1.5,.9,0,1.4-.7,1.5-1.5h0Z"/><path class="d" d="M289.83,395.56c2.76-4.32,7.43-7.38,11.43-10.47s8.35-6.21,12.92-8.71,9.33-4.33,14.42-5.1c2.87-.43,5.76-.59,8.61-1.16s5.68-1.42,8.48-2.29c6.36-1.96,12.69-3.99,19.02-6.06l-1.69-.69c1.24,2.94-.02,6.38-1.27,9.1-1.18,2.56-2.59,5.01-4.18,7.34-3.18,4.66-7.14,8.78-11.56,12.29-9.61,7.63-21.49,12.05-33.61,13.57-7.38,.92-14.86,.84-22.24-.03-1.91-.22-1.9,2.78,0,3,13.93,1.63,28.42,.45,41.5-4.84,11.27-4.56,21.33-12.12,28.28-22.15,1.91-2.76,3.58-5.7,4.9-8.79,1.52-3.55,2.32-7.31,.77-10.99-.24-.58-1.13-.88-1.69-.69-5.86,1.92-11.74,3.8-17.63,5.63-2.8,.87-5.61,1.76-8.47,2.42s-5.9,.92-8.88,1.31c-10.76,1.41-20.02,7.28-28.48,13.73-4.65,3.55-10,7.07-13.2,12.08-1.04,1.63,1.55,3.14,2.59,1.51h0Z"/><path class="d" d="M291.77,402.36c8.27,6.65,17.65,11.73,27.63,15.31s21.57,6.44,32.35,4.05c4.68-1.04,9.94-3.21,12.17-7.78,2.05-4.2,1.09-9.06-2.95-11.62s-9.03-2.44-13.46-3.12c-5.79-.9-11.49-2.23-17.1-3.93-5.97-1.81-12-3.86-18.3-4s-12.74,2.02-18.78,4.2c-1.8,.65-1.03,3.55,.8,2.89,4.92-1.77,9.97-3.63,15.23-4.02s10.24,.81,15.17,2.27,10.17,3.12,15.39,4.23c4.8,1.02,9.67,1.43,14.48,2.32,3.67,.69,8.03,2.38,7.6,6.9s-5.23,7.17-9.28,8.32c-9.91,2.81-20.55,.38-30.08-2.77-10.36-3.42-20.23-8.52-28.75-15.38-1.49-1.2-3.63,.91-2.12,2.12h0Z"/></g></svg>