<svg xmlns="http://www.w3.org/2000/svg" width="256" height="256" viewBox="0 0 100 100"><rect width="100" height="100" rx="50" fill="#eea05f"></rect><path fill="#fff" d="M44.54 41.43L44.60 40.92Q44.60 39.84 44.19 38.42Q43.78 36.99 42.89 35.59Q42.00 34.19 40.67 33.05Q39.33 31.91 37.56 31.40L37.56 31.40Q34.13 30.51 31.65 30.13Q29.18 29.75 27.15 29.75L27.15 29.75Q24.93 29.75 23.05 30.13Q21.18 30.51 18.96 31.02L18.96 31.02Q19.21 33.18 19.43 35.75Q19.66 38.32 19.82 40.80Q19.97 43.27 20.07 45.49Q20.16 47.71 20.16 49.11L20.16 49.11Q20.16 49.43 20.16 49.87Q20.16 50.32 20.23 50.83L20.23 50.83Q21.12 50.83 21.97 50.83Q22.83 50.83 23.72 50.89L23.72 50.89Q25.12 50.95 26.48 50.95Q27.85 50.95 29.24 50.95L29.24 50.95Q31.78 50.95 34.03 50.83Q36.29 50.70 37.94 50.25L37.94 50.25Q40.10 49.62 41.37 48.76Q42.64 47.91 43.27 46.89Q43.90 45.87 44.13 44.67Q44.35 43.46 44.48 42.19L44.48 42.19L44.54 41.43ZM38.45 27.97L38.45 27.97Q40.79 28.61 42.64 30.07Q44.48 31.53 45.68 33.37Q46.89 35.21 47.52 37.21Q48.16 39.21 48.16 40.92L48.16 40.92Q48.16 41.18 48.13 41.37Q48.09 41.56 48.09 41.81L48.09 41.81L48.03 42.57Q47.90 43.91 47.59 45.46Q47.27 47.02 46.38 48.54Q45.49 50.06 43.71 51.43Q41.94 52.79 38.89 53.62L38.89 53.62Q36.99 54.19 34.54 54.35Q32.10 54.51 29.31 54.51L29.31 54.51Q27.91 54.51 26.51 54.51Q25.12 54.51 23.66 54.44L23.66 54.44Q22.83 54.38 22.04 54.38Q21.24 54.38 20.42 54.38L20.42 54.38Q20.61 57.17 20.93 60.38Q21.24 63.58 21.53 66.38Q21.82 69.17 22.04 71.07Q22.26 72.98 22.26 73.11L22.26 73.11Q22.26 73.80 21.78 74.31Q21.31 74.82 20.48 74.88L20.48 74.88Q19.78 74.88 19.28 74.44Q18.77 73.99 18.70 73.30L18.70 73.30Q18.64 73.11 18.48 71.58Q18.32 70.06 18.10 67.81Q17.88 65.55 17.63 62.82Q17.37 60.09 17.15 57.46Q16.93 54.82 16.77 52.60Q16.61 50.38 16.61 49.11L16.61 49.11Q16.61 47.52 16.51 45.24Q16.42 42.95 16.23 40.42Q16.04 37.88 15.82 35.37Q15.59 32.86 15.34 30.83L15.34 30.83Q15.21 30.70 15.15 30.48Q15.09 30.26 14.96 29.75L14.96 29.75Q14.96 29.50 15.09 29.12L15.09 29.12Q15.02 28.80 14.99 28.42Q14.96 28.04 14.83 27.53L14.83 27.53Q14.83 26.89 15.28 26.39Q15.72 25.88 16.61 25.75L16.61 25.75Q17.24 25.75 17.75 26.20Q18.26 26.64 18.39 27.53L18.39 27.53Q20.67 26.96 22.70 26.58Q24.73 26.20 27.08 26.20L27.08 26.20Q29.31 26.20 32.00 26.61Q34.70 27.02 38.45 27.97ZM70.63 47.97L70.69 47.97Q71.39 47.97 71.90 48.48Q72.41 48.98 72.47 49.75L72.47 49.75Q72.47 50.44 71.96 50.98Q71.45 51.52 70.76 51.52L70.76 51.52Q68.47 51.65 66.22 51.81Q63.96 51.97 62.19 52.13Q60.41 52.29 59.20 52.44Q58.00 52.60 57.81 52.60L57.81 52.60Q57.93 54.38 58.12 56.57Q58.31 58.76 58.54 61.01Q58.76 63.27 58.98 65.42Q59.20 67.58 59.36 69.27Q59.52 70.95 59.65 71.99Q59.77 73.04 59.77 73.11L59.77 73.11Q59.77 73.80 59.30 74.31Q58.82 74.82 57.93 74.88L57.93 74.88Q57.23 74.88 56.76 74.44Q56.28 73.99 56.22 73.30L56.22 73.30Q56.16 73.11 56.00 71.58Q55.84 70.06 55.62 67.81Q55.39 65.55 55.14 62.82Q54.89 60.09 54.66 57.46Q54.44 54.82 54.28 52.60Q54.12 50.38 54.12 49.11L54.12 49.11Q54.12 47.21 53.97 44.22Q53.81 41.24 53.55 38.10Q53.30 34.96 52.98 32.10Q52.66 29.24 52.35 27.53L52.35 27.53Q52.35 26.89 52.79 26.39Q53.24 25.88 54.12 25.75L54.12 25.75Q55.52 25.75 55.84 27.08L55.84 27.08Q56.28 26.45 57.04 26.32L57.04 26.32Q57.17 26.32 58.60 26.13Q60.03 25.94 62.22 25.72Q64.41 25.50 67.07 25.31Q69.74 25.12 72.34 25.12L72.34 25.12Q77.55 25.12 80.63 25.56Q83.70 26.01 83.83 26.07L83.83 26.07Q85.23 26.39 85.16 28.16L85.16 28.16Q84.97 29.56 83.07 29.56L83.07 29.56Q81.80 29.37 80.15 29.12L80.15 29.12Q78.75 28.99 76.75 28.83Q74.75 28.67 72.34 28.67L72.34 28.67Q69.87 28.67 67.26 28.86Q64.66 29.05 62.47 29.27Q60.28 29.50 58.85 29.69Q57.43 29.88 57.30 29.88L57.30 29.88Q56.73 29.88 56.22 29.56L56.22 29.56Q56.54 31.66 56.79 34.38Q57.04 37.11 57.23 39.84Q57.43 42.57 57.55 45.02Q57.68 47.46 57.68 49.05L57.68 49.05Q58.25 48.98 59.52 48.83Q60.79 48.67 62.54 48.51Q64.28 48.35 66.38 48.22Q68.47 48.10 70.63 47.97L70.63 47.97Z"></path></svg>