<?xml version="1.0" encoding="UTF-8"?><svg xmlns="http://www.w3.org/2000/svg" viewBox="0 0 1920 1080"><defs><style>.c{fill:#fff;}.c,.d{opacity:.11;}.d{fill:#f8ddec;}.e{opacity:.1;}.f{fill:#ffe3fc;}.g{opacity:.3;}</style></defs><g id="a"><g class="e"><g><path class="d" d="M1518.22,293.55c2.08,0-.45-3.03-.71-3.39-1.19-1.57-2.44-3.1-3.75-4.57-.62-.9-1.41-1.57-2.37-2.03-2.08,0,.45,3.03,.71,3.39,1.19,1.57,2.44,3.1,3.75,4.57,.62,.9,1.41,1.57,2.37,2.03Z"/><path class="d" d="M1518.95,290.92c1.96,0-.84-2.65-.86-2.67-1.13-.96-2.31-1.86-3.53-2.7-.62-.58-1.35-.9-2.17-.97-1.96,0,.84,2.65,.86,2.67,1.13,.96,2.31,1.86,3.53,2.7,.62,.58,1.35,.9,2.17,.97Z"/><path class="d" d="M1520.09,293.32c2.37,0-1.52-3.61-1.53-3.62-1.63-1.63-3.31-3.21-5.04-4.73-.85-.92-1.84-1.61-2.99-2.06-2.37,0,1.52,3.61,1.53,3.62,1.63,1.63,3.31,3.21,5.04,4.73,.85,.92,1.84,1.61,2.99,2.06Z"/><path class="d" d="M1524.07,297.66c2.17,0-.94-3.16-1.05-3.28-1.34-1.43-2.73-2.8-4.18-4.12-.7-.82-1.56-1.4-2.55-1.75-2.17,0,.94,3.16,1.05,3.28,1.34,1.43,2.73,2.8,4.18,4.12,.7,.82,1.56,1.4,2.55,1.75Z"/><path class="d" d="M1523.52,294.37c2.33,0-1.7-3.31-1.53-3.17-1.56-1.28-3.16-2.5-4.82-3.66-.83-.74-1.77-1.23-2.83-1.47-2.33,0,1.7,3.31,1.53,3.17,1.56,1.28,3.16,2.5,4.82,3.66,.83,.74,1.77,1.23,2.83,1.47Z"/><path class="d" d="M1518.85,292.65c1.07,0,1.8-2.19,.28-2.19-1.07,0-1.8,2.19-.28,2.19Z"/><path class="d" d="M1517.07,293.28c1.58,0,.54-1.89,.2-2.49-.64-1.05-1.35-2.05-2.13-3.01-.36-.63-.88-1.05-1.55-1.25-1.58,0-.54,1.89-.2,2.49,.64,1.05,1.35,2.05,2.13,3.01,.36,.63,.88,1.05,1.55,1.25Z"/><path class="d" d="M1519.92,297.92c1.85,0,.22-2.45-.14-3.07-.87-1.44-1.81-2.84-2.82-4.2-.46-.83-1.1-1.46-1.92-1.87-1.85,0-.22,2.45,.14,3.07,.87,1.44,1.81,2.84,2.82,4.2,.46,.83,1.1,1.46,1.92,1.87Z"/><path class="d" d="M1522.01,291.31c1.08,0,1.64-.61,.85-1.58-.84-.66-1.73-1.24-2.69-1.71-.93-.53-1.9-.97-2.91-1.3-1.08,0-1.64,.61-.85,1.58,.84,.66,1.73,1.24,2.69,1.71,.93,.53,1.9,.97,2.91,1.3Z"/><path class="d" d="M1517.81,296c1.69,0,.57-2.04,.2-2.78-.69-1.3-1.44-2.56-2.26-3.77-.36-.76-.91-1.32-1.64-1.68-1.69,0-.57,2.04-.2,2.78,.69,1.3,1.44,2.56,2.26,3.77,.36,.76,.91,1.32,1.64,1.68Z"/><path class="d" d="M1521.92,290.9c.69,0,1.09-1.07,.8-1.6-.39-.72-1.95-1.37-2.73-1.37-.69,0-1.09,1.07-.8,1.6,.39,.72,1.95,1.37,2.73,1.37Z"/><path class="d" d="M1517.49,294.08c.45,0,1.36-.59,1.44-1.06,.07-.42-.38-1.15-.84-1.15s-1.36,.59-1.44,1.06c-.07,.42,.38,1.15,.84,1.15Z"/></g></g><rect class="f" x="-20" width="1963" height="1086"/><g class="g"><g><path class="c" d="M1995.42,63c-3.37,10.85-10.92,13.65-22.65,8.39-12.66-1.58-25.34-2.99-38.04-4.24-25.43-2.6-50.88-5-76.33-7.32-44.92-4.11-89.87-7.93-134.84-11.55-96.35-7.75-192.79-14.53-289.32-19.69-88.27-4.72-176.63-8.1-265.03-9.32-95.54-1.32-191.02,.63-286.53,2.74-93.96,2.08-188,3.8-281.97,1.26-82.06-2.22-164.05-6.49-245.95-12.02C172.91-1.03-8.56-19.43-189.04-44.95c3.8,8.35,9.82,14.96,18.06,19.83C-145.15-4.33-118.95,15.97-92.38,35.78c26.37,20.09,53.09,39.69,80.18,58.8,6.95,6.58,14.96,10.55,24.04,11.91,184.2,18.26,368.98,31.02,554.01,36.61,42.23,1.28,84.48,2.18,126.73,2.53,23.66,.2,47.32,.22,70.99-.02,17.56-.17,35.12-.54,52.68-.66,50.44-.33,100.89-.54,151.33-.85,43.5-.27,87-.44,130.5-.16s88.44,.98,132.64,2.54c49.66,1.76,99.33,3.76,148.96,6.2,87.32,4.29,174.57,9.92,261.75,16.42,95.72,7.13,191.39,15.12,286.94,24.17,44.4,4.2,88.82,8.55,133.06,14.17,24.52,3.11,49.03,6.58,73.31,11.27,11.23,2.24,22.43,4.61,33.61,7.1,11.34,2.84,14.29-1.34,8.85-12.56-2.99-8.12-8.29-14.64-15.89-19.57-23.27-20.6-46.94-40.73-71-60.39-23.84-19.93-48.07-39.39-72.68-58.36-6.27-6.54-13.68-10.51-22.21-11.92Z"/><path class="c" d="M2051.44,154.66c-9.91-3.32-19.85-6.56-29.82-9.7-11.72-.46-23.4-1.48-35.02-3.06-25.17-2.83-50.34-5.53-75.55-7.95-44.81-4.3-89.67-8.16-134.53-11.84-96.39-7.92-192.86-14.89-289.42-20.34-94.68-5.34-189.47-9.21-284.3-10.63-92.39-1.38-184.75,.13-277.11,2.18-90.82,2.02-181.66,3.78-272.5,2.11-88.45-1.62-176.82-6.13-265.08-12.02C206.24,71.26,24.77,53.01-155.73,27.69c1.46,7.4,5.35,13.54,11.68,18.4,18.3,19.42,37.04,38.41,56.22,56.97,18.93,18.81,38.29,37.17,58.06,55.09,4.99,6.23,11.2,10,18.63,11.31,183.63,21.17,367.97,36.35,552.63,44.87,42.17,1.95,84.36,3.55,126.57,4.58,23.69,.58,47.39,.98,71.08,1.06,17.66,.06,35.31-.12,52.97-.09,50.56,.1,101.11-.03,151.66-.58,43.6-.47,87.2-1.11,130.81-1.47,44.27-.37,88.54-.52,132.81,.28,25.34,.46,50.68,1.17,76.03,1.75,24.32,.56,48.63,1.26,72.94,2.12,87.42,3.08,174.78,7.8,262.06,13.6,95.84,6.36,191.6,13.9,287.28,22.36,44.52,3.93,89.05,7.94,133.46,13.01,24.52,2.8,49.06,5.83,73.35,10.24,11.18,2.04,22.3,4.35,33.37,6.91,11.31,2.15,22.43,5.06,33.35,8.73-.95-7.28-4.4-13.43-10.34-18.46-11.8-13.94-23.93-27.59-36.38-40.95-15.3-16.92-30.85-33.61-46.63-50.08-10.4-12.07-21.87-22.97-34.43-32.69Z"/><path class="c" d="M1987.21,18.88l-5.88,4.98,6.22-.11c-11.61,0-23.15-.86-34.64-2.57-12.69-1.33-25.38-2.62-38.08-3.85-25.55-2.51-51.12-4.88-76.69-7.17-45-4.04-90.02-7.82-135.05-11.4-89.98-7.14-180.03-13.39-270.15-18.33-94.57-5.18-189.24-8.79-283.95-9.93-92.65-1.12-185.26,.77-277.89,2.68-90.84,1.88-181.72,3.27-272.57,1.08-84.91-2.05-169.76-6.51-254.51-12.2C165.42-49.92-12.8-67.86-190.08-92.7c-7.78-1.57-8.62,.18-2.52,5.26,14.75,9.97,30.3,18.54,46.64,25.73,30.59,15.16,61.36,29.92,92.33,44.29C-37.81-9.16-21.39-2.41-4.38,2.86c182.14,17.94,364.85,30.45,547.8,35.87,41.71,1.24,83.43,2.09,125.15,2.45,40.66,.35,81.31-.18,121.97-.42,50.27-.31,100.54-.61,150.81-.93,43.75-.28,87.5-.44,131.25-.16,95.16,.61,190.27,4,285.31,8.74,88.06,4.4,176.04,10.14,263.96,16.74,96.18,7.22,192.31,15.31,288.34,24.32,44.71,4.2,89.42,8.53,134.01,13.85,25.02,2.99,50.01,6.27,74.87,10.41,11.5,1.99,22.99,4.01,34.47,6.08,4.85,.11,9.69-.18,14.5-.86l-3.57-5.09-10.79-11.69c-12.33-9.34-25.51-17.33-39.54-23.98-19.53-10.59-39.21-20.88-59.04-30.89-15.76-8.25-31.7-16.11-47.84-23.58-6.28-4.31-12.97-5.92-20.06-4.84Z"/><path class="c" d="M2019.09,184.1c-12.63-8.66-26.39-12.44-41.29-11.34-12.21-1.27-24.41-2.63-36.59-4.09-25.2-2.82-50.45-5.27-75.7-7.63-44.85-4.18-89.74-7.99-134.64-11.62-96.34-7.78-192.77-14.6-289.29-19.82-88.3-4.78-176.68-8.24-265.1-9.55-50.59-.75-101.2-.73-151.79-.16-44.92,.51-89.83,1.59-134.73,2.59-93.99,2.1-188.04,3.87-282.05,1.53-82.11-2.05-164.14-6.17-246.1-11.64C179.91,100.21-1.59,81.93-182.13,56.6c.47,7.5,3.51,14.05,9.14,19.67,15.56,21.52,31.61,42.67,48.14,63.45,16.26,21,33,41.61,50.21,61.83,4.12,6.8,9.77,11.31,16.94,13.55,184.51,22.33,369.79,38.44,555.4,47.99,42.41,2.18,84.84,4.03,127.28,5.3,23.86,.71,47.73,1.25,71.61,1.45,17.8,.15,35.6,.06,53.4,.17,50.66,.32,101.3,.3,151.95-.26,43.5-.48,87.01-1.22,130.51-1.76,43.99-.55,88-.96,131.99-.44,25.15,.3,50.29,.86,75.44,1.29,24.19,.41,48.37,.97,72.56,1.69,87.09,2.6,174.12,6.95,261.08,12.44,95.63,6.05,191.2,13.36,286.66,21.67,44.36,3.86,88.74,7.82,132.99,12.88,24.19,2.76,48.4,5.77,72.35,10.18,10.81,2.02,21.57,4.28,32.28,6.79,11.32,2.05,22.26,5.39,32.82,10.04,.09-7.31-2.45-13.86-7.62-19.64-13.82-21.72-28.16-43.11-43-64.15-14.56-21.24-29.61-42.13-45.16-62.65-3.63-6.85-8.88-11.52-15.76-13.98Z"/><path class="c" d="M2012.41,96.97c-6.55,8.52-15.17,10.78-25.87,6.77-12.54-1.59-25.09-3.04-37.67-4.35-25.35-2.7-50.74-5.13-76.13-7.49-44.89-4.16-89.81-7.99-134.74-11.62-96.34-7.78-192.76-14.57-289.27-19.78-88.27-4.76-176.63-8.2-265.03-9.49-95.53-1.4-191.01,.41-286.51,2.49-93.97,2.05-188,3.78-281.99,1.33-82.08-2.14-164.08-6.3-246.01-11.77C187.28,30.91,5.75,12.62-174.8-12.79c2.98,8.37,8.3,15.17,15.96,20.42,23.46,21.75,47.32,43.04,71.6,63.88,24.05,21.1,48.49,41.73,73.32,61.89,6.28,6.84,13.76,11.15,22.47,12.93,184.34,19.35,369.31,33.03,554.55,39.7,42.3,1.52,84.62,2.68,126.95,3.26,23.73,.33,47.47,.47,71.21,.34,17.64-.1,35.28-.42,52.92-.49,50.52-.19,101.03-.37,151.55-.78,43.49-.35,86.99-.7,130.49-.66,44.13,.04,88.27,.44,132.39,1.74,25.3,.75,50.59,1.72,75.88,2.56s48.5,1.74,72.74,2.8c87.24,3.84,174.4,9.13,261.49,15.37,95.68,6.85,191.3,14.65,286.82,23.51,44.36,4.12,88.75,8.35,132.96,13.86,24.4,3.04,48.8,6.41,72.94,11.1,11.15,2.22,22.25,4.63,33.31,7.23,8.24,3.51,14.42,1.59,18.55-5.76-2.41-8.32-7.24-15.22-14.48-20.69-21.78-22.25-43.99-44.06-66.62-65.43-22.4-21.63-45.21-42.8-68.44-63.53-5.8-6.98-12.91-11.48-21.33-13.51Z"/><path class="c" d="M2045.53,338.53c-18.93-33.07-40.39-64.26-64.38-93.58-8.33-10.26-18.41-16.84-30.26-19.74-11.16-.95-22.31-1.95-33.47-2.98-12.37-1.53-24.76-2.88-37.16-4.05-44.7-4.41-89.48-8.12-134.25-11.79-96.48-7.9-193.05-14.9-289.7-20.33-94.99-5.33-190.08-9.16-285.21-10.5-47.01-.66-94.02-.58-141.04-.06-48.54,.53-97.06,1.9-145.58,3.22-94.06,2.56-188.13,4.7-282.23,2.74-88.42-1.84-176.74-6.98-264.93-13.34-181.59-13.08-362.78-32.1-542.95-58.35-2.07,3.7-1.84,7.5,.69,11.4,5.38,11.79,11.31,23.3,17.78,34.53,6.17,11.4,12.86,22.48,20.08,33.24,2,4.2,5.12,6.39,9.35,6.57,176.21,25.16,353.33,43.73,530.85,56.8,83.25,6.13,166.6,11.4,250.07,13.28,43.89,.99,87.77,1.64,131.67,1.39,46.86-.26,93.7-1.28,140.54-2.56,47.54-1.29,95.07-2.93,142.62-3.8,44-.81,88.03-1.01,132.04-.83,87.37,.35,174.72,3.04,261.98,7.19,89.56,4.27,179.04,10.09,268.44,16.86,44.93,3.4,89.84,7.03,134.73,10.88,25.4,2.18,50.81,4.4,76.17,7.02,12.25,1.22,24.48,2.63,36.69,4.22,10.81,1.58,21.62,3.2,32.41,4.86l-3.78-.92,17.86,4.79-3.77-1.06c24.35,19.33,45.55,41.74,63.6,67.21,1.71,2.61,3.99,3.59,6.86,2.94,2.33-1.79,3.04-4.18,2.12-7.16-2.01-6.76-4.6-13.29-7.75-19.61-2.84-6.46-6.22-12.63-10.13-18.49Z"/><path class="c" d="M2011.48,227.07c-10.26-12.54-22.45-22.09-36.59-28.64-11.66-1.57-23.36-2.85-35.08-3.84-12.38-1.47-24.77-2.84-37.17-4.13-12.62-1.3-25.24-2.54-37.87-3.72-44.8-4.23-89.64-8.04-134.49-11.7-96.4-7.86-192.88-14.8-289.44-20.18-94.7-5.28-189.5-9.06-284.34-10.36-44.04-.6-88.08-.59-132.12-.19-48.32,.44-96.63,1.64-144.94,2.79-90.83,2.16-181.67,3.98-272.52,2.26-88.49-1.67-176.9-6.35-265.19-12.38C159.86,124.57-21.6,106.09-202.09,80.5c-.97,6.14,.66,11.8,4.89,16.97,10.52,18.54,21.57,36.76,33.13,54.67,11.28,18.09,23.06,35.85,35.36,53.26,2.88,6.03,7.3,9.91,13.27,11.65,177.93,23.37,356.64,40.44,535.72,51.86,48.41,3.09,96.86,5.73,145.33,7.71,17.87,.73,35.75,1.36,53.64,1.83,23.76,.62,47.52,.76,71.28,1.09,44.41,.61,88.81,.8,133.22,.38,46.7-.44,93.39-1.41,140.08-2.36s94.44-2,141.66-2c19.17,0,38.34,.24,57.51,.35,24.14,.15,48.28,.33,72.42,.75,90.16,1.56,180.27,5.34,270.29,10.46,92.51,5.26,184.95,11.94,277.3,19.49,44.64,3.65,89.28,7.43,133.85,11.82,24.74,2.43,49.5,4.94,74.12,8.44,11.51,1.59,22.96,3.5,34.36,5.75,10.69,1.57,20.97,4.57,30.83,9l-4.67-2.31,26.67,21.37c4.35,3.88,6.06,2.95,5.11-2.81-3.75-12.21-8.96-23.8-15.64-34.77-11.36-21.59-23.1-42.98-35.22-64.15-5.67-11.52-12.65-22.14-20.95-31.86Z"/><path class="c" d="M2030.8,73.54c-9.29,3.82-18.89,4.52-28.8,2.11-6.27-.75-12.55-1.46-18.83-2.14-23.27-2.55-46.57-4.87-69.88-7.07-51.31-4.85-102.66-9.24-154.02-13.38-79.26-6.38-158.57-12.15-237.94-16.95-95.03-5.74-190.16-10.1-285.35-12.14-95.33-2.04-190.64-1.1-285.97,.96-91.93,1.98-183.88,4-275.84,2.76-88.72-1.2-177.39-5.39-265.93-11.01C220.37,4.77,32.9-13.75-153.54-39.78l-6.26-.68,3.02,5.53,12.78,11.02C-128-12.22-111.74-.87-95.23,10.12-69.96,27.28-44.57,44.29-18.71,60.55c7.01,5.05,14.42,9.4,22.22,13.05,4.1,3.18,8.69,4.68,13.79,4.49,168.47,17.87,337.45,30.87,506.72,38.13,48.1,2.07,96.22,3.68,144.35,4.64,41.05,.82,82.08,.92,123.14,.63,46.82-.32,93.64-.27,140.47-.67s93.56-.91,140.34-1.06c44.41-.15,88.82,.03,133.23,.9,26,.51,51.98,1.46,77.97,2.26,24.4,.75,48.79,1.55,73.18,2.53,93.99,3.75,187.9,9.34,281.72,15.99,96.08,6.81,192.09,14.65,288.02,23.3,44.68,4.03,89.36,8.15,133.94,13.21,24.9,2.83,49.79,5.89,74.5,10.08,11.64,2,23.24,4.21,34.8,6.63,9.85,3.91,19.29,3.71,28.33-.59-2.66-7.19-7.53-12.74-14.62-16.66-21.4-16.73-43.17-32.96-65.31-48.71-21.93-16.03-44.22-31.55-66.85-46.58-5.96-5.49-12.76-8.36-20.42-8.61Z"/><path class="c" d="M2060.35,289.47c-20.58-25.36-41.76-50.19-63.55-74.5-6.57-2.77-13.54-3.68-20.89-2.73-11.77,.2-23.46-.65-35.08-2.57-12.55-1.42-25.11-2.72-37.68-3.91-44.76-4.33-89.58-8.11-134.4-11.8-96.46-7.94-193-15.01-289.64-20.53-94.94-5.43-189.98-9.38-285.06-10.89-47-.75-94-.76-141-.35-48.5,.42-96.99,1.66-145.48,2.89-94.03,2.39-188.08,4.48-282.14,2.64-88.43-1.74-176.77-6.61-265-12.78C178.72,142.23-2.57,123.53-182.88,97.67c-1.41,4.9-.34,9.5,3.19,13.79,8.33,14.45,17.18,28.58,26.54,42.38,9.08,14,18.66,27.64,28.73,40.93,2.58,4.93,6.4,7.69,11.46,8.3,176.76,24.06,354.35,41.75,532.33,53.8,42.15,2.85,84.33,5.37,126.53,7.49,23.67,1.19,47.35,2.23,71.04,2.99,23.6,.76,47.2,1.05,70.8,1.46,44.32,.76,88.64,.97,132.97,.54,43.68-.43,87.36-1.38,131.04-2.42,44.27-1.05,88.55-2.26,132.84-2.78,25.73-.3,51.46-.18,77.19-.14,18.19,.03,36.37,.06,54.56,.24,93.51,.93,186.99,4.4,280.37,9.4,89.52,4.79,178.96,11.01,268.33,18.06,44.86,3.54,89.71,7.26,134.54,11.28,25.28,2.27,50.57,4.56,75.79,7.41,12.17,1.32,24.3,2.9,36.4,4.73,10.69,1.79,21.39,3.52,32.1,5.18l-4.25-1.28c22.54,8.42,40.2,23.57,52.98,45.43,2.1,4.3,5.33,6.56,9.7,6.78,1.96-3.9,1.58-7.83-1.12-11.78-5.88-12.18-12.3-24.06-19.27-35.66-6.66-11.77-13.84-23.22-21.54-34.34Z"/><path class="c" d="M2008.08,135.91c-10.06,3.85-20.42,4.84-31.07,2.96-12.38-1.51-24.77-2.94-37.17-4.31-25.26-2.77-50.56-5.22-75.86-7.59-44.85-4.19-89.74-8.03-134.65-11.66-96.34-7.8-192.77-14.61-289.28-19.84-88.29-4.79-176.67-8.25-265.09-9.57-95.54-1.43-191.03,.31-286.54,2.38-93.97,2.04-188,3.8-281.98,1.4-82.09-2.09-164.09-6.19-246.02-11.64C178.53,65.94-2.97,47.7-183.51,22.4c1.74,8.37,5.99,15.49,12.74,21.38,19.85,23.37,40.15,46.34,60.91,68.91,20.51,22.8,41.46,45.18,62.86,67.13,5.22,7.28,11.92,12.18,20.08,14.7,184.97,20.73,370.63,35.55,556.59,43.53,42.49,1.82,85,3.29,127.52,4.16,23.88,.49,47.77,.8,71.66,.8,17.77,0,35.54-.23,53.31-.22,50.62,.04,101.22-.05,151.84-.52,43.43-.4,86.86-.92,130.29-1.13,43.91-.22,87.84-.17,131.74,.81,25.13,.56,50.26,1.36,75.39,2,24.15,.62,48.3,1.38,72.44,2.29,86.98,3.27,173.9,8.12,260.74,14,95.53,6.47,191,14.03,286.35,22.68,44.24,4.02,88.5,8.15,132.59,13.58,24.11,2.97,48.23,6.26,72.07,10.95,10.83,2.18,21.61,4.56,32.35,7.14,8.23,2.28,16.28,1.83,24.16-1.35-1.18-8.32-4.92-15.56-11.25-21.71-18.16-24.01-36.79-47.65-55.91-70.9-18.85-23.48-38.17-46.56-57.95-69.24-4.73-7.45-11.04-12.6-18.95-15.45Z"/><path class="c" d="M2063.36,215.27c-12.27-15.14-27.09-25.31-44.47-30.5-11.87-2.88-23.89-4.64-36.08-5.27-12.4-1.48-24.81-2.89-37.23-4.22-12.63-1.33-25.27-2.59-37.92-3.79-44.81-4.29-89.67-8.1-134.53-11.77-96.41-7.88-192.9-14.84-289.49-20.25-94.72-5.31-189.55-9.13-284.41-10.47-44.06-.63-88.12-.63-132.18-.26-48.36,.41-96.7,1.57-145.05,2.71-90.85,2.13-181.72,3.96-272.59,2.27-88.44-1.64-176.79-6.25-265.04-12.23C202.6,109.16,21.22,90.76-159.18,65.3c-.03,6.33,2.45,11.79,7.44,16.4,13.29,17.25,27.05,34.11,41.29,50.58,13.97,16.7,28.41,32.99,43.3,48.88,3.75,5.66,8.74,8.99,14.99,9.97,177.17,22.2,355.09,38.42,533.35,48.76,42.23,2.45,84.49,4.55,126.76,6.21,23.72,.93,47.46,1.69,71.2,2.16,23.59,.47,47.18,.45,70.77,.67,44.34,.42,88.67,.47,133,.01,43.65-.45,87.3-1.26,130.95-2,44.19-.75,88.39-1.5,132.59-1.47,25.72,.02,51.43,.49,77.14,.81,18.16,.23,36.32,.45,54.48,.81,93.4,1.85,186.75,6.01,280,11.54,89.43,5.3,178.79,11.87,268.08,19.2,44.77,3.68,89.54,7.49,134.26,11.79,25.11,2.41,50.23,4.9,75.26,8.12,12.05,1.5,24.06,3.28,36.03,5.33,11,1.87,21.92,4.15,32.75,6.85l-5-1.54c18.52,5.29,34.95,14.67,49.28,28.13,4.86,3.16,6.41,1.98,4.64-3.54-5.48-11.44-12.32-22.05-20.52-31.83-14.37-19.51-29.09-38.76-44.15-57.74-7.29-10.47-15.73-19.85-25.34-28.14Z"/><path class="c" d="M2016.4,35.96l-7.33,4.47h6.2c-12.08-.62-24.12-1.72-36.11-3.32-12.7-1.34-25.4-2.62-38.11-3.85-25.55-2.49-51.12-4.84-76.7-7.11-44.99-4-90-7.77-135.03-11.33-89.93-7.12-179.93-13.36-270.01-18.3-94.47-5.17-189.06-8.77-283.67-9.91-92.54-1.11-185.04,.78-277.55,2.71-90.85,1.9-181.74,3.31-272.6,1.13-85.02-2.04-169.98-6.5-254.83-12.2C191.82-33.76,13.39-51.73-164.11-76.62c-7.59-1.69-8.47,.04-2.65,5.2,14.16,10.15,29.14,18.93,44.96,26.35C-92.26-29.51-62.52-14.33-32.58,.45-17.29,8.91-1.39,15.89,15.14,21.4c175.79,18.18,352.12,31,528.73,37.56,47.69,1.77,95.4,3.04,143.11,3.67,40.63,.54,81.24,.19,121.86,.02,44.05-.18,88.09-.39,132.14-.75,46.86-.38,93.73-.76,140.6-.72,47.99,.04,95.99,.49,143.97,1.85,44.21,1.25,88.42,2.86,132.6,4.77,91.15,3.95,182.22,9.55,273.21,16.11,93.03,6.7,185.99,14.35,278.88,22.67,44.86,4.01,89.71,8.13,134.5,12.86,25.28,2.67,50.56,5.5,75.73,9.02,12.33,1.7,24.63,3.62,36.88,5.77,9.78,2.38,19.69,3.76,29.74,4.12h6.2l1.52-5.83c-3.45-6.72-8.9-11.55-16.33-14.48-22.99-13.64-46.28-26.74-69.88-39.31-23.43-12.88-47.14-25.21-71.13-37-6.52-4.62-13.54-6.54-21.06-5.75Z"/></g></g><g class="g"><g><path class="c" d="M1993.42,332c-3.37,10.85-10.92,13.65-22.65,8.39-12.66-1.58-25.34-2.99-38.04-4.24-25.43-2.6-50.88-5-76.33-7.32-44.92-4.11-89.87-7.93-134.84-11.55-96.35-7.75-192.79-14.53-289.32-19.69-88.27-4.72-176.63-8.1-265.03-9.32-95.54-1.32-191.02,.63-286.53,2.74-93.96,2.08-188,3.8-281.97,1.26-82.06-2.22-164.05-6.49-245.95-12.02-181.86-12.28-363.32-30.68-543.81-56.2,3.8,8.35,9.82,14.96,18.06,19.83,25.82,20.78,52.02,41.08,78.6,60.9,26.37,20.09,53.09,39.69,80.18,58.8,6.95,6.58,14.96,10.55,24.04,11.91,184.2,18.26,368.98,31.02,554.01,36.61,42.23,1.28,84.48,2.18,126.73,2.53,23.66,.2,47.32,.22,70.99-.02,17.56-.17,35.12-.54,52.68-.66,50.44-.33,100.89-.54,151.33-.85,43.5-.27,87-.44,130.5-.16s88.44,.98,132.64,2.54c49.66,1.76,99.33,3.76,148.96,6.2,87.32,4.29,174.57,9.92,261.75,16.42,95.72,7.13,191.39,15.12,286.94,24.17,44.4,4.2,88.82,8.55,133.06,14.17,24.52,3.11,49.03,6.58,73.31,11.27,11.23,2.24,22.43,4.61,33.61,7.1,11.34,2.84,14.29-1.34,8.85-12.56-2.99-8.12-8.29-14.64-15.89-19.57-23.27-20.6-46.94-40.73-71-60.39-23.84-19.93-48.07-39.39-72.68-58.36-6.27-6.54-13.68-10.51-22.21-11.92Z"/><path class="c" d="M2049.44,423.66c-9.91-3.32-19.85-6.56-29.82-9.7-11.72-.46-23.4-1.48-35.02-3.06-25.17-2.83-50.34-5.53-75.55-7.95-44.81-4.3-89.67-8.16-134.53-11.84-96.39-7.92-192.86-14.89-289.42-20.34-94.68-5.34-189.47-9.21-284.3-10.63-92.39-1.38-184.75,.13-277.11,2.18-90.82,2.02-181.66,3.78-272.5,2.11-88.45-1.62-176.82-6.13-265.08-12.02-181.86-12.14-363.33-30.39-543.83-55.71,1.46,7.4,5.35,13.54,11.68,18.4,18.3,19.42,37.04,38.41,56.22,56.97,18.93,18.81,38.29,37.17,58.06,55.09,4.99,6.23,11.2,10,18.63,11.31,183.63,21.17,367.97,36.35,552.63,44.87,42.17,1.95,84.36,3.55,126.57,4.58,23.69,.58,47.39,.98,71.08,1.06,17.66,.06,35.31-.12,52.97-.09,50.56,.1,101.11-.03,151.66-.58,43.6-.47,87.2-1.11,130.81-1.47,44.27-.37,88.54-.52,132.81,.28,25.34,.46,50.68,1.17,76.03,1.75,24.32,.56,48.63,1.26,72.94,2.12,87.42,3.08,174.78,7.8,262.06,13.6,95.84,6.36,191.6,13.9,287.28,22.36,44.52,3.93,89.05,7.94,133.46,13.01,24.52,2.8,49.06,5.83,73.35,10.24,11.18,2.04,22.3,4.35,33.37,6.91,11.31,2.15,22.43,5.06,33.35,8.73-.95-7.28-4.4-13.43-10.34-18.46-11.8-13.94-23.93-27.59-36.38-40.95-15.3-16.92-30.85-33.61-46.63-50.08-10.4-12.07-21.87-22.97-34.43-32.69Z"/><path class="c" d="M1985.21,287.88l-5.88,4.98,6.22-.11c-11.61,0-23.15-.86-34.64-2.57-12.69-1.33-25.38-2.62-38.08-3.85-25.55-2.51-51.12-4.88-76.69-7.17-45-4.04-90.02-7.82-135.05-11.4-89.98-7.14-180.03-13.39-270.15-18.33-94.57-5.18-189.24-8.79-283.95-9.93-92.65-1.12-185.26,.77-277.89,2.68-90.84,1.88-181.72,3.27-272.57,1.08-84.91-2.05-169.76-6.51-254.51-12.2-178.61-11.98-356.82-29.92-534.11-54.76-7.78-1.57-8.62,.18-2.52,5.26,14.75,9.97,30.3,18.54,46.64,25.73,30.59,15.16,61.36,29.92,92.33,44.29,15.83,8.24,32.25,15,49.26,20.27,182.14,17.94,364.85,30.45,547.8,35.87,41.71,1.24,83.43,2.09,125.15,2.45,40.66,.35,81.31-.18,121.97-.42,50.27-.31,100.54-.61,150.81-.93,43.75-.28,87.5-.44,131.25-.16,95.16,.61,190.27,4,285.31,8.74,88.06,4.4,176.04,10.14,263.96,16.74,96.18,7.22,192.31,15.31,288.34,24.32,44.71,4.2,89.42,8.53,134.01,13.85,25.02,2.99,50.01,6.27,74.87,10.41,11.5,1.99,22.99,4.01,34.47,6.08,4.85,.11,9.69-.18,14.5-.86l-3.57-5.09-10.79-11.69c-12.33-9.34-25.51-17.33-39.54-23.98-19.53-10.59-39.21-20.88-59.04-30.89-15.76-8.25-31.7-16.11-47.84-23.58-6.28-4.31-12.97-5.92-20.06-4.84Z"/><path class="c" d="M2017.09,453.1c-12.63-8.66-26.39-12.44-41.29-11.34-12.21-1.27-24.41-2.63-36.59-4.09-25.2-2.82-50.45-5.27-75.7-7.63-44.85-4.18-89.74-7.99-134.64-11.62-96.34-7.78-192.77-14.6-289.29-19.82-88.3-4.78-176.68-8.24-265.1-9.55-50.59-.75-101.2-.73-151.79-.16-44.92,.51-89.83,1.59-134.73,2.59-93.99,2.1-188.04,3.87-282.05,1.53-82.11-2.05-164.14-6.17-246.1-11.64-181.89-12.16-363.4-30.44-543.93-55.77,.47,7.5,3.51,14.05,9.14,19.67,15.56,21.52,31.61,42.67,48.14,63.45,16.26,21,33,41.61,50.21,61.83,4.12,6.8,9.77,11.31,16.94,13.55,184.51,22.33,369.79,38.44,555.4,47.99,42.41,2.18,84.84,4.03,127.28,5.3,23.86,.71,47.73,1.25,71.61,1.45,17.8,.15,35.6,.06,53.4,.17,50.66,.32,101.3,.3,151.95-.26,43.5-.48,87.01-1.22,130.51-1.76,43.99-.55,88-.96,131.99-.44,25.15,.3,50.29,.86,75.44,1.29,24.19,.41,48.37,.97,72.56,1.69,87.09,2.6,174.12,6.95,261.08,12.44,95.63,6.05,191.2,13.36,286.66,21.67,44.36,3.86,88.74,7.82,132.99,12.88,24.19,2.76,48.4,5.77,72.35,10.18,10.81,2.02,21.57,4.28,32.28,6.79,11.32,2.05,22.26,5.39,32.82,10.04,.09-7.31-2.45-13.86-7.62-19.64-13.82-21.72-28.16-43.11-43-64.15-14.56-21.24-29.61-42.13-45.16-62.65-3.63-6.85-8.88-11.52-15.76-13.98Z"/><path class="c" d="M2010.41,365.97c-6.55,8.52-15.17,10.78-25.87,6.77-12.54-1.59-25.09-3.04-37.67-4.35-25.35-2.7-50.74-5.13-76.13-7.49-44.89-4.16-89.81-7.99-134.74-11.62-96.34-7.78-192.76-14.57-289.27-19.78-88.27-4.76-176.63-8.2-265.03-9.49-95.53-1.4-191.01,.41-286.51,2.49-93.97,2.05-188,3.78-281.99,1.33-82.08-2.14-164.08-6.3-246.01-11.77-181.92-12.15-363.45-30.45-544.01-55.85,2.98,8.37,8.3,15.17,15.96,20.42,23.46,21.75,47.32,43.04,71.6,63.88,24.05,21.1,48.49,41.73,73.32,61.89,6.28,6.84,13.76,11.15,22.47,12.93,184.34,19.35,369.31,33.03,554.55,39.7,42.3,1.52,84.62,2.68,126.95,3.26,23.73,.33,47.47,.47,71.21,.34,17.64-.1,35.28-.42,52.92-.49,50.52-.19,101.03-.37,151.55-.78,43.49-.35,86.99-.7,130.49-.66,44.13,.04,88.27,.44,132.39,1.74,25.3,.75,50.59,1.72,75.88,2.56s48.5,1.74,72.74,2.8c87.24,3.84,174.4,9.13,261.49,15.37,95.68,6.85,191.3,14.65,286.82,23.51,44.36,4.12,88.75,8.35,132.96,13.86,24.4,3.04,48.8,6.41,72.94,11.1,11.15,2.22,22.25,4.63,33.31,7.23,8.24,3.51,14.42,1.59,18.55-5.76-2.41-8.32-7.24-15.22-14.48-20.69-21.78-22.25-43.99-44.06-66.62-65.43-22.4-21.63-45.21-42.8-68.44-63.53-5.8-6.98-12.91-11.48-21.33-13.51Z"/><path class="c" d="M2043.53,607.53c-18.93-33.07-40.39-64.26-64.38-93.58-8.33-10.26-18.41-16.84-30.26-19.74-11.16-.95-22.31-1.95-33.47-2.98-12.37-1.53-24.76-2.88-37.16-4.05-44.7-4.41-89.48-8.12-134.25-11.79-96.48-7.9-193.05-14.9-289.7-20.33-94.99-5.33-190.08-9.16-285.21-10.5-47.01-.66-94.02-.58-141.04-.06-48.54,.53-97.06,1.9-145.58,3.22-94.06,2.56-188.13,4.7-282.23,2.74-88.42-1.84-176.74-6.98-264.93-13.34-181.59-13.08-362.78-32.1-542.95-58.35-2.07,3.7-1.84,7.5,.69,11.4,5.38,11.79,11.31,23.3,17.78,34.53,6.17,11.4,12.86,22.48,20.08,33.24,2,4.2,5.12,6.39,9.35,6.57,176.21,25.16,353.33,43.73,530.85,56.8,83.25,6.13,166.6,11.4,250.07,13.28,43.89,.99,87.77,1.64,131.67,1.39,46.86-.26,93.7-1.28,140.54-2.56,47.54-1.29,95.07-2.93,142.62-3.8,44-.81,88.03-1.01,132.04-.83,87.37,.35,174.72,3.04,261.98,7.19,89.56,4.27,179.04,10.09,268.44,16.86,44.93,3.4,89.84,7.03,134.73,10.88,25.4,2.18,50.81,4.4,76.17,7.02,12.25,1.22,24.48,2.63,36.69,4.22,10.81,1.58,21.62,3.2,32.41,4.86l-3.78-.92,17.86,4.79-3.77-1.06c24.35,19.33,45.55,41.74,63.6,67.21,1.71,2.61,3.99,3.59,6.86,2.94,2.33-1.79,3.04-4.18,2.12-7.16-2.01-6.76-4.6-13.29-7.75-19.61-2.84-6.46-6.22-12.63-10.13-18.49Z"/><path class="c" d="M2009.48,496.07c-10.26-12.54-22.45-22.09-36.59-28.64-11.66-1.57-23.36-2.85-35.08-3.84-12.38-1.47-24.77-2.84-37.17-4.13-12.62-1.3-25.24-2.54-37.87-3.72-44.8-4.23-89.64-8.04-134.49-11.7-96.4-7.86-192.88-14.8-289.44-20.18-94.7-5.28-189.5-9.06-284.34-10.36-44.04-.6-88.08-.59-132.12-.19-48.32,.44-96.63,1.64-144.94,2.79-90.83,2.16-181.67,3.98-272.52,2.26-88.49-1.67-176.9-6.35-265.19-12.38-181.86-12.41-363.33-30.89-543.82-56.48-.97,6.14,.66,11.8,4.89,16.97,10.52,18.54,21.57,36.76,33.13,54.67,11.28,18.09,23.06,35.85,35.36,53.26,2.88,6.03,7.3,9.91,13.27,11.65,177.93,23.37,356.64,40.44,535.72,51.86,48.41,3.09,96.86,5.73,145.33,7.71,17.87,.73,35.75,1.36,53.64,1.83,23.76,.62,47.52,.76,71.28,1.09,44.41,.61,88.81,.8,133.22,.38,46.7-.44,93.39-1.41,140.08-2.36,47.21-.97,94.44-2,141.66-2,19.17,0,38.34,.24,57.51,.35,24.14,.15,48.28,.33,72.42,.75,90.16,1.56,180.27,5.34,270.29,10.46,92.51,5.26,184.95,11.94,277.3,19.49,44.64,3.65,89.28,7.43,133.85,11.82,24.74,2.43,49.5,4.94,74.12,8.44,11.51,1.59,22.96,3.5,34.36,5.75,10.69,1.57,20.97,4.57,30.83,9l-4.67-2.31,26.67,21.37c4.35,3.88,6.06,2.95,5.11-2.81-3.75-12.21-8.96-23.8-15.64-34.77-11.36-21.59-23.1-42.98-35.22-64.15-5.67-11.52-12.65-22.14-20.95-31.86Z"/><path class="c" d="M2028.8,342.54c-9.29,3.82-18.89,4.52-28.8,2.11-6.27-.75-12.55-1.46-18.83-2.14-23.27-2.55-46.57-4.87-69.88-7.07-51.31-4.85-102.66-9.24-154.02-13.38-79.26-6.38-158.57-12.15-237.94-16.95-95.03-5.74-190.16-10.1-285.35-12.14-95.33-2.04-190.64-1.1-285.97,.96-91.93,1.98-183.88,4-275.84,2.76-88.72-1.2-177.39-5.39-265.93-11.01-187.87-11.91-375.34-30.43-561.79-56.46l-6.26-.68,3.02,5.53,12.78,11.02c16.01,11.7,32.27,23.04,48.77,34.03,25.28,17.16,50.66,34.17,76.52,50.43,7.01,5.05,14.42,9.4,22.22,13.05,4.1,3.18,8.69,4.68,13.79,4.49,168.47,17.87,337.45,30.87,506.72,38.13,48.1,2.07,96.22,3.68,144.35,4.64,41.05,.82,82.08,.92,123.14,.63,46.82-.32,93.64-.27,140.47-.67s93.56-.91,140.34-1.06c44.41-.15,88.82,.03,133.23,.9,26,.51,51.98,1.46,77.97,2.26,24.4,.75,48.79,1.55,73.18,2.53,93.99,3.75,187.9,9.34,281.72,15.99,96.08,6.81,192.09,14.65,288.02,23.3,44.68,4.03,89.36,8.15,133.94,13.21,24.9,2.83,49.79,5.89,74.5,10.08,11.64,2,23.24,4.21,34.8,6.63,9.85,3.91,19.29,3.71,28.33-.59-2.66-7.19-7.53-12.74-14.62-16.66-21.4-16.73-43.17-32.96-65.31-48.71-21.93-16.03-44.22-31.55-66.85-46.58-5.96-5.49-12.76-8.36-20.42-8.61Z"/><path class="c" d="M2058.35,558.47c-20.58-25.36-41.76-50.19-63.55-74.5-6.57-2.77-13.54-3.68-20.89-2.73-11.77,.2-23.46-.65-35.08-2.57-12.55-1.42-25.11-2.72-37.68-3.91-44.76-4.33-89.58-8.11-134.4-11.8-96.46-7.94-193-15.01-289.64-20.53-94.94-5.43-189.98-9.38-285.06-10.89-47-.75-94-.76-141-.35-48.5,.42-96.99,1.66-145.48,2.89-94.03,2.39-188.08,4.48-282.14,2.64-88.43-1.74-176.77-6.61-265-12.78-181.7-12.7-362.99-31.4-543.3-57.26-1.41,4.9-.34,9.5,3.19,13.79,8.33,14.45,17.18,28.58,26.54,42.38,9.08,14,18.66,27.64,28.73,40.93,2.58,4.93,6.4,7.69,11.46,8.3,176.76,24.06,354.35,41.75,532.33,53.8,42.15,2.85,84.33,5.37,126.53,7.49,23.67,1.19,47.35,2.23,71.04,2.99,23.6,.76,47.2,1.05,70.8,1.46,44.32,.76,88.64,.97,132.97,.54,43.68-.43,87.36-1.38,131.04-2.42,44.27-1.05,88.55-2.26,132.84-2.78,25.73-.3,51.46-.18,77.19-.14,18.19,.03,36.37,.06,54.56,.24,93.51,.93,186.99,4.4,280.37,9.4,89.52,4.79,178.96,11.01,268.33,18.06,44.86,3.54,89.71,7.26,134.54,11.28,25.28,2.27,50.57,4.56,75.79,7.41,12.17,1.32,24.3,2.9,36.4,4.73,10.69,1.79,21.39,3.52,32.1,5.18l-4.25-1.28c22.54,8.42,40.2,23.57,52.98,45.43,2.1,4.3,5.33,6.56,9.7,6.78,1.96-3.9,1.58-7.83-1.12-11.78-5.88-12.18-12.3-24.06-19.27-35.66-6.66-11.77-13.84-23.22-21.54-34.34Z"/><path class="c" d="M2006.08,404.91c-10.06,3.85-20.42,4.84-31.07,2.96-12.38-1.51-24.77-2.94-37.17-4.31-25.26-2.77-50.56-5.22-75.86-7.59-44.85-4.19-89.74-8.03-134.65-11.66-96.34-7.8-192.77-14.61-289.28-19.84-88.29-4.79-176.67-8.25-265.09-9.57-95.54-1.43-191.03,.31-286.54,2.38-93.97,2.04-188,3.8-281.98,1.4-82.09-2.09-164.09-6.19-246.02-11.64-181.9-12.1-363.4-30.34-543.94-55.65,1.74,8.37,5.99,15.49,12.74,21.38,19.85,23.37,40.15,46.34,60.91,68.91,20.51,22.8,41.46,45.18,62.86,67.13,5.22,7.28,11.92,12.18,20.08,14.7,184.97,20.73,370.63,35.55,556.59,43.53,42.49,1.82,85,3.29,127.52,4.16,23.88,.49,47.77,.8,71.66,.8,17.77,0,35.54-.23,53.31-.22,50.62,.04,101.22-.05,151.84-.52,43.43-.4,86.86-.92,130.29-1.13,43.91-.22,87.84-.17,131.74,.81,25.13,.56,50.26,1.36,75.39,2,24.15,.62,48.3,1.38,72.44,2.29,86.98,3.27,173.9,8.12,260.74,14,95.53,6.47,191,14.03,286.35,22.68,44.24,4.02,88.5,8.15,132.59,13.58,24.11,2.97,48.23,6.26,72.07,10.95,10.83,2.18,21.61,4.56,32.35,7.14,8.23,2.28,16.28,1.83,24.16-1.35-1.18-8.32-4.92-15.56-11.25-21.71-18.16-24.01-36.79-47.65-55.91-70.9-18.85-23.48-38.17-46.56-57.95-69.24-4.73-7.45-11.04-12.6-18.95-15.45Z"/><path class="c" d="M2061.36,484.27c-12.27-15.14-27.09-25.31-44.47-30.5-11.87-2.88-23.89-4.64-36.08-5.27-12.4-1.48-24.81-2.89-37.23-4.22-12.63-1.33-25.27-2.59-37.92-3.79-44.81-4.29-89.67-8.1-134.53-11.77-96.41-7.88-192.9-14.84-289.49-20.25-94.72-5.31-189.55-9.13-284.41-10.47-44.06-.63-88.12-.63-132.18-.26-48.36,.41-96.7,1.57-145.05,2.71-90.85,2.13-181.72,3.96-272.59,2.27-88.44-1.64-176.79-6.25-265.04-12.23-181.77-12.33-363.15-30.72-543.55-56.18-.03,6.33,2.45,11.79,7.44,16.4,13.29,17.25,27.05,34.11,41.29,50.58,13.97,16.7,28.41,32.99,43.3,48.88,3.75,5.66,8.74,8.99,14.99,9.97,177.17,22.2,355.09,38.42,533.35,48.76,42.23,2.45,84.49,4.55,126.76,6.21,23.72,.93,47.46,1.69,71.2,2.16,23.59,.47,47.18,.45,70.77,.67,44.34,.42,88.67,.47,133,.01,43.65-.45,87.3-1.26,130.95-2,44.19-.75,88.39-1.5,132.59-1.47,25.72,.02,51.43,.49,77.14,.81,18.16,.23,36.32,.45,54.48,.81,93.4,1.85,186.75,6.01,280,11.54,89.43,5.3,178.79,11.87,268.08,19.2,44.77,3.68,89.54,7.49,134.26,11.79,25.11,2.41,50.23,4.9,75.26,8.12,12.05,1.5,24.06,3.28,36.03,5.33,11,1.87,21.92,4.15,32.75,6.85l-5-1.54c18.52,5.29,34.95,14.67,49.28,28.13,4.86,3.16,6.41,1.98,4.64-3.54-5.48-11.44-12.32-22.05-20.52-31.83-14.37-19.51-29.09-38.76-44.15-57.74-7.29-10.47-15.73-19.85-25.34-28.14Z"/><path class="c" d="M2014.4,304.96l-7.33,4.47h6.2c-12.08-.62-24.12-1.72-36.11-3.32-12.7-1.34-25.4-2.62-38.11-3.85-25.55-2.49-51.12-4.84-76.7-7.11-44.99-4-90-7.77-135.03-11.33-89.93-7.12-179.93-13.36-270.01-18.3-94.47-5.17-189.06-8.77-283.67-9.91-92.54-1.11-185.04,.78-277.55,2.71-90.85,1.9-181.74,3.31-272.6,1.13-85.02-2.04-169.98-6.5-254.83-12.2-178.83-12.01-357.26-29.98-534.76-54.87-7.59-1.69-8.47,.04-2.65,5.2,14.16,10.15,29.14,18.93,44.96,26.35,29.54,15.57,59.28,30.74,89.23,45.53,15.29,8.46,31.19,15.44,47.72,20.95,175.79,18.18,352.12,31,528.73,37.56,47.69,1.77,95.4,3.04,143.11,3.67,40.63,.54,81.24,.19,121.86,.02,44.05-.18,88.09-.39,132.14-.75,46.86-.38,93.73-.76,140.6-.72,47.99,.04,95.99,.49,143.97,1.85,44.21,1.25,88.42,2.86,132.6,4.77,91.15,3.95,182.22,9.55,273.21,16.11,93.03,6.7,185.99,14.35,278.88,22.67,44.86,4.01,89.71,8.13,134.5,12.86,25.28,2.67,50.56,5.5,75.73,9.02,12.33,1.7,24.63,3.62,36.88,5.77,9.78,2.38,19.69,3.76,29.74,4.12h6.2l1.52-5.83c-3.45-6.72-8.9-11.55-16.33-14.48-22.99-13.64-46.28-26.74-69.88-39.31-23.43-12.88-47.14-25.21-71.13-37-6.52-4.62-13.54-6.54-21.06-5.75Z"/></g></g><g class="g"><g><path class="c" d="M1993.42,694c-3.37,10.85-10.92,13.65-22.65,8.39-12.66-1.58-25.34-2.99-38.04-4.24-25.43-2.6-50.88-5-76.33-7.32-44.92-4.11-89.87-7.93-134.84-11.55-96.35-7.75-192.79-14.53-289.32-19.69-88.27-4.72-176.63-8.1-265.03-9.32-95.54-1.32-191.02,.63-286.53,2.74-93.96,2.08-188,3.8-281.97,1.26-82.06-2.22-164.05-6.49-245.95-12.02-181.86-12.28-363.32-30.68-543.81-56.2,3.8,8.35,9.82,14.96,18.06,19.83,25.82,20.78,52.02,41.08,78.6,60.9,26.37,20.09,53.09,39.69,80.18,58.8,6.95,6.58,14.96,10.55,24.04,11.91,184.2,18.26,368.98,31.02,554.01,36.61,42.23,1.28,84.48,2.18,126.73,2.53,23.66,.2,47.32,.22,70.99-.02,17.56-.17,35.12-.54,52.68-.66,50.44-.33,100.89-.54,151.33-.85,43.5-.27,87-.44,130.5-.16,44.22,.28,88.44,.98,132.64,2.54,49.66,1.76,99.33,3.76,148.96,6.2,87.32,4.29,174.57,9.92,261.75,16.42,95.72,7.13,191.39,15.12,286.94,24.17,44.4,4.2,88.82,8.55,133.06,14.17,24.52,3.11,49.03,6.58,73.31,11.27,11.23,2.24,22.43,4.61,33.61,7.1,11.34,2.84,14.29-1.34,8.85-12.56-2.99-8.12-8.29-14.64-15.89-19.57-23.27-20.6-46.94-40.73-71-60.39-23.84-19.93-48.07-39.39-72.68-58.36-6.27-6.54-13.68-10.51-22.21-11.92Z"/><path class="c" d="M2049.44,785.66c-9.91-3.32-19.85-6.56-29.82-9.7-11.72-.46-23.4-1.48-35.02-3.06-25.17-2.83-50.34-5.53-75.55-7.95-44.81-4.3-89.67-8.16-134.53-11.84-96.39-7.92-192.86-14.89-289.42-20.34-94.68-5.34-189.47-9.21-284.3-10.63-92.39-1.38-184.75,.13-277.11,2.18s-181.66,3.78-272.5,2.11c-88.45-1.62-176.82-6.13-265.08-12.02-181.86-12.14-363.33-30.39-543.83-55.71,1.46,7.4,5.35,13.54,11.68,18.4,18.3,19.42,37.04,38.41,56.22,56.97,18.93,18.81,38.29,37.17,58.06,55.09,4.99,6.23,11.2,10,18.63,11.31,183.63,21.17,367.97,36.35,552.63,44.87,42.17,1.95,84.36,3.55,126.57,4.58,23.69,.58,47.39,.98,71.08,1.06,17.66,.06,35.31-.12,52.97-.09,50.56,.1,101.11-.03,151.66-.58,43.6-.47,87.2-1.11,130.81-1.47,44.27-.37,88.54-.52,132.81,.28,25.34,.46,50.68,1.17,76.03,1.75,24.32,.56,48.63,1.26,72.94,2.12,87.42,3.08,174.78,7.8,262.06,13.6,95.84,6.36,191.6,13.9,287.28,22.36,44.52,3.93,89.05,7.94,133.46,13.01,24.52,2.8,49.06,5.83,73.35,10.24,11.18,2.04,22.3,4.35,33.37,6.91,11.31,2.15,22.43,5.06,33.35,8.73-.95-7.28-4.4-13.43-10.34-18.46-11.8-13.94-23.93-27.59-36.38-40.95-15.3-16.92-30.85-33.61-46.63-50.08-10.4-12.07-21.87-22.97-34.43-32.69Z"/><path class="c" d="M1985.21,649.88l-5.88,4.98,6.22-.11c-11.61,0-23.15-.86-34.64-2.57-12.69-1.33-25.38-2.62-38.08-3.85-25.55-2.51-51.12-4.88-76.69-7.17-45-4.04-90.02-7.82-135.05-11.4-89.98-7.14-180.03-13.39-270.15-18.33-94.57-5.18-189.24-8.79-283.95-9.93-92.65-1.12-185.26,.77-277.89,2.68-90.84,1.88-181.72,3.27-272.57,1.08-84.91-2.05-169.76-6.51-254.51-12.2-178.61-11.98-356.82-29.92-534.11-54.76-7.78-1.57-8.62,.18-2.52,5.26,14.75,9.97,30.3,18.54,46.64,25.73,30.59,15.16,61.36,29.92,92.33,44.29,15.83,8.24,32.25,15,49.26,20.27,182.14,17.94,364.85,30.45,547.8,35.87,41.71,1.24,83.43,2.09,125.15,2.45,40.66,.35,81.31-.18,121.97-.42,50.27-.31,100.54-.61,150.81-.93,43.75-.28,87.5-.44,131.25-.16,95.16,.61,190.27,4,285.31,8.74,88.06,4.4,176.04,10.14,263.96,16.74,96.18,7.22,192.31,15.31,288.34,24.32,44.71,4.2,89.42,8.53,134.01,13.85,25.02,2.99,50.01,6.27,74.87,10.41,11.5,1.99,22.99,4.01,34.47,6.08,4.85,.11,9.69-.18,14.5-.86l-3.57-5.09-10.79-11.69c-12.33-9.34-25.51-17.33-39.54-23.98-19.53-10.59-39.21-20.88-59.04-30.89-15.76-8.25-31.7-16.11-47.84-23.58-6.28-4.31-12.97-5.92-20.06-4.84Z"/><path class="c" d="M2017.09,815.1c-12.63-8.66-26.39-12.44-41.29-11.34-12.21-1.27-24.41-2.63-36.59-4.09-25.2-2.82-50.45-5.27-75.7-7.63-44.85-4.18-89.74-7.99-134.64-11.62-96.34-7.78-192.77-14.6-289.29-19.82-88.3-4.78-176.68-8.24-265.1-9.55-50.59-.75-101.2-.73-151.79-.16-44.92,.51-89.83,1.59-134.73,2.59-93.99,2.1-188.04,3.87-282.05,1.53-82.11-2.05-164.14-6.17-246.1-11.64-181.89-12.16-363.4-30.44-543.93-55.77,.47,7.5,3.51,14.05,9.14,19.67,15.56,21.52,31.61,42.67,48.14,63.45,16.26,21,33,41.61,50.21,61.83,4.12,6.8,9.77,11.31,16.94,13.55,184.51,22.33,369.79,38.44,555.4,47.99,42.41,2.18,84.84,4.03,127.28,5.3,23.86,.71,47.73,1.25,71.61,1.45,17.8,.15,35.6,.06,53.4,.17,50.66,.32,101.3,.3,151.95-.26,43.5-.48,87.01-1.22,130.51-1.76,43.99-.55,88-.96,131.99-.44,25.15,.3,50.29,.86,75.44,1.29,24.19,.41,48.37,.97,72.56,1.69,87.09,2.6,174.12,6.95,261.08,12.44,95.63,6.05,191.2,13.36,286.66,21.67,44.36,3.86,88.74,7.82,132.99,12.88,24.19,2.76,48.4,5.77,72.35,10.18,10.81,2.02,21.57,4.28,32.28,6.79,11.32,2.05,22.26,5.39,32.82,10.04,.09-7.31-2.45-13.86-7.62-19.64-13.82-21.72-28.16-43.11-43-64.15-14.56-21.24-29.61-42.13-45.16-62.65-3.63-6.85-8.88-11.52-15.76-13.98Z"/><path class="c" d="M2010.41,727.97c-6.55,8.52-15.17,10.78-25.87,6.77-12.54-1.59-25.09-3.04-37.67-4.35-25.35-2.7-50.74-5.13-76.13-7.49-44.89-4.16-89.81-7.99-134.74-11.62-96.34-7.78-192.76-14.57-289.27-19.78-88.27-4.76-176.63-8.2-265.03-9.49-95.53-1.4-191.01,.41-286.51,2.49-93.97,2.05-188,3.78-281.99,1.33-82.08-2.14-164.08-6.3-246.01-11.77-181.92-12.15-363.45-30.45-544.01-55.85,2.98,8.37,8.3,15.17,15.96,20.42,23.46,21.75,47.32,43.04,71.6,63.88,24.05,21.1,48.49,41.73,73.32,61.89,6.28,6.84,13.76,11.15,22.47,12.93,184.34,19.35,369.31,33.03,554.55,39.7,42.3,1.52,84.62,2.68,126.95,3.26,23.73,.33,47.47,.47,71.21,.34,17.64-.1,35.28-.42,52.92-.49,50.52-.19,101.03-.37,151.55-.78,43.49-.35,86.99-.7,130.49-.66s88.27,.44,132.39,1.74c25.3,.75,50.59,1.72,75.88,2.56s48.5,1.74,72.74,2.8c87.24,3.84,174.4,9.13,261.49,15.37,95.68,6.85,191.3,14.65,286.82,23.51,44.36,4.12,88.75,8.35,132.96,13.86,24.4,3.04,48.8,6.41,72.94,11.1,11.15,2.22,22.25,4.63,33.31,7.23,8.24,3.51,14.42,1.59,18.55-5.76-2.41-8.32-7.24-15.22-14.48-20.69-21.78-22.25-43.99-44.06-66.62-65.43-22.4-21.63-45.21-42.8-68.44-63.53-5.8-6.98-12.91-11.48-21.33-13.51Z"/><path class="c" d="M2043.53,969.53c-18.93-33.07-40.39-64.26-64.38-93.58-8.33-10.26-18.41-16.84-30.26-19.74-11.16-.95-22.31-1.95-33.47-2.98-12.37-1.53-24.76-2.88-37.16-4.05-44.7-4.41-89.48-8.12-134.25-11.79-96.48-7.9-193.05-14.9-289.7-20.33-94.99-5.33-190.08-9.16-285.21-10.5-47.01-.66-94.02-.58-141.04-.06-48.54,.53-97.06,1.9-145.58,3.22-94.06,2.56-188.13,4.7-282.23,2.74-88.42-1.84-176.74-6.98-264.93-13.34-181.59-13.08-362.78-32.1-542.95-58.35-2.07,3.7-1.84,7.5,.69,11.4,5.38,11.79,11.31,23.3,17.78,34.53,6.17,11.4,12.86,22.48,20.08,33.24,2,4.2,5.12,6.39,9.35,6.57,176.21,25.16,353.33,43.73,530.85,56.8,83.25,6.13,166.6,11.4,250.07,13.28,43.89,.99,87.77,1.64,131.67,1.39,46.86-.26,93.7-1.28,140.54-2.56,47.54-1.29,95.07-2.93,142.62-3.8,44-.81,88.03-1.01,132.04-.83,87.37,.35,174.72,3.04,261.98,7.19,89.56,4.27,179.04,10.09,268.44,16.86,44.93,3.4,89.84,7.03,134.73,10.88,25.4,2.18,50.81,4.4,76.17,7.02,12.25,1.22,24.48,2.63,36.69,4.22,10.81,1.58,21.62,3.2,32.41,4.86l-3.78-.92,17.86,4.79-3.77-1.06c24.35,19.33,45.55,41.74,63.6,67.21,1.71,2.61,3.99,3.59,6.86,2.94,2.33-1.79,3.04-4.18,2.12-7.16-2.01-6.76-4.6-13.29-7.75-19.61-2.84-6.46-6.22-12.63-10.13-18.49Z"/><path class="c" d="M2009.48,858.07c-10.26-12.54-22.45-22.09-36.59-28.64-11.66-1.57-23.36-2.85-35.08-3.84-12.38-1.47-24.77-2.84-37.17-4.13-12.62-1.3-25.24-2.54-37.87-3.72-44.8-4.23-89.64-8.04-134.49-11.7-96.4-7.86-192.88-14.8-289.44-20.18-94.7-5.28-189.5-9.06-284.34-10.36-44.04-.6-88.08-.59-132.12-.19-48.32,.44-96.63,1.64-144.94,2.79-90.83,2.16-181.67,3.98-272.52,2.26-88.49-1.67-176.9-6.35-265.19-12.38-181.86-12.41-363.33-30.89-543.82-56.48-.97,6.14,.66,11.8,4.89,16.97,10.52,18.54,21.57,36.76,33.13,54.67,11.28,18.09,23.06,35.85,35.36,53.26,2.88,6.03,7.3,9.91,13.27,11.65,177.93,23.37,356.64,40.44,535.72,51.86,48.41,3.09,96.86,5.73,145.33,7.71,17.87,.73,35.75,1.36,53.64,1.83,23.76,.62,47.52,.76,71.28,1.09,44.41,.61,88.81,.8,133.22,.38,46.7-.44,93.39-1.41,140.08-2.36,47.21-.97,94.44-2,141.66-2,19.17,0,38.34,.24,57.51,.35,24.14,.15,48.28,.33,72.42,.75,90.16,1.56,180.27,5.34,270.29,10.46,92.51,5.26,184.95,11.94,277.3,19.49,44.64,3.65,89.28,7.43,133.85,11.82,24.74,2.43,49.5,4.94,74.12,8.44,11.51,1.59,22.96,3.5,34.36,5.75,10.69,1.57,20.97,4.57,30.83,9l-4.67-2.31,26.67,21.37c4.35,3.88,6.06,2.95,5.11-2.81-3.75-12.21-8.96-23.8-15.64-34.77-11.36-21.59-23.1-42.98-35.22-64.15-5.67-11.52-12.65-22.14-20.95-31.86Z"/><path class="c" d="M2028.8,704.54c-9.29,3.82-18.89,4.52-28.8,2.11-6.27-.75-12.55-1.46-18.83-2.14-23.27-2.55-46.57-4.87-69.88-7.07-51.31-4.85-102.66-9.24-154.02-13.38-79.26-6.38-158.57-12.15-237.94-16.95-95.03-5.74-190.16-10.1-285.35-12.14-95.33-2.04-190.64-1.1-285.97,.96-91.93,1.98-183.88,4-275.84,2.76-88.72-1.2-177.39-5.39-265.93-11.01-187.87-11.91-375.34-30.43-561.79-56.46l-6.26-.68,3.02,5.53,12.78,11.02c16.01,11.7,32.27,23.04,48.77,34.03,25.28,17.16,50.66,34.17,76.52,50.43,7.01,5.05,14.42,9.4,22.22,13.05,4.1,3.18,8.69,4.68,13.79,4.49,168.47,17.87,337.45,30.87,506.72,38.13,48.1,2.07,96.22,3.68,144.35,4.64,41.05,.82,82.08,.92,123.14,.63,46.82-.32,93.64-.27,140.47-.67,46.78-.4,93.56-.91,140.34-1.06,44.41-.15,88.82,.03,133.23,.9,26,.51,51.98,1.46,77.97,2.26,24.4,.75,48.79,1.55,73.18,2.53,93.99,3.75,187.9,9.34,281.72,15.99,96.08,6.81,192.09,14.65,288.02,23.3,44.68,4.03,89.36,8.15,133.94,13.21,24.9,2.83,49.79,5.89,74.5,10.08,11.64,2,23.24,4.21,34.8,6.63,9.85,3.91,19.29,3.71,28.33-.59-2.66-7.19-7.53-12.74-14.62-16.66-21.4-16.73-43.17-32.96-65.31-48.71-21.93-16.03-44.22-31.55-66.85-46.58-5.96-5.49-12.76-8.36-20.42-8.61Z"/><path class="c" d="M2058.35,920.47c-20.58-25.36-41.76-50.19-63.55-74.5-6.57-2.77-13.54-3.68-20.89-2.73-11.77,.2-23.46-.65-35.08-2.57-12.55-1.42-25.11-2.72-37.68-3.91-44.76-4.33-89.58-8.11-134.4-11.8-96.46-7.94-193-15.01-289.64-20.53-94.94-5.43-189.98-9.38-285.06-10.89-47-.75-94-.76-141-.35-48.5,.42-96.99,1.66-145.48,2.89-94.03,2.39-188.08,4.48-282.14,2.64-88.43-1.74-176.77-6.61-265-12.78-181.7-12.7-362.99-31.4-543.3-57.26-1.41,4.9-.34,9.5,3.19,13.79,8.33,14.45,17.18,28.58,26.54,42.38,9.08,14,18.66,27.64,28.73,40.93,2.58,4.93,6.4,7.69,11.46,8.3,176.76,24.06,354.35,41.75,532.33,53.8,42.15,2.85,84.33,5.37,126.53,7.49,23.67,1.19,47.35,2.23,71.04,2.99,23.6,.76,47.2,1.05,70.8,1.46,44.32,.76,88.64,.97,132.97,.54,43.68-.43,87.36-1.38,131.04-2.42,44.27-1.05,88.55-2.26,132.84-2.78,25.73-.3,51.46-.18,77.19-.14,18.19,.03,36.37,.06,54.56,.24,93.51,.93,186.99,4.4,280.37,9.4,89.52,4.79,178.96,11.01,268.33,18.06,44.86,3.54,89.71,7.26,134.54,11.28,25.28,2.27,50.57,4.56,75.79,7.41,12.17,1.32,24.3,2.9,36.4,4.73,10.69,1.79,21.39,3.52,32.1,5.18l-4.25-1.28c22.54,8.42,40.2,23.57,52.98,45.43,2.1,4.3,5.33,6.56,9.7,6.78,1.96-3.9,1.58-7.83-1.12-11.78-5.88-12.18-12.3-24.06-19.27-35.66-6.66-11.77-13.84-23.22-21.54-34.34Z"/><path class="c" d="M2006.08,766.91c-10.06,3.85-20.42,4.84-31.07,2.96-12.38-1.51-24.77-2.94-37.17-4.31-25.26-2.77-50.56-5.22-75.86-7.59-44.85-4.19-89.74-8.03-134.65-11.66-96.34-7.8-192.77-14.61-289.28-19.84-88.29-4.79-176.67-8.25-265.09-9.57-95.54-1.43-191.03,.31-286.54,2.38-93.97,2.04-188,3.8-281.98,1.4-82.09-2.09-164.09-6.19-246.02-11.64-181.9-12.1-363.4-30.34-543.94-55.65,1.74,8.37,5.99,15.49,12.74,21.38,19.85,23.37,40.15,46.34,60.91,68.91,20.51,22.8,41.46,45.18,62.86,67.13,5.22,7.28,11.92,12.18,20.08,14.7,184.97,20.73,370.63,35.55,556.59,43.53,42.49,1.82,85,3.29,127.52,4.16,23.88,.49,47.77,.8,71.66,.8,17.77,0,35.54-.23,53.31-.22,50.62,.04,101.22-.05,151.84-.52,43.43-.4,86.86-.92,130.29-1.13s87.84-.17,131.74,.81c25.13,.56,50.26,1.36,75.39,2,24.15,.62,48.3,1.38,72.44,2.29,86.98,3.27,173.9,8.12,260.74,14,95.53,6.47,191,14.03,286.35,22.68,44.24,4.02,88.5,8.15,132.59,13.58,24.11,2.97,48.23,6.26,72.07,10.95,10.83,2.18,21.61,4.56,32.35,7.14,8.23,2.28,16.28,1.83,24.16-1.35-1.18-8.32-4.92-15.56-11.25-21.71-18.16-24.01-36.79-47.65-55.91-70.9-18.85-23.48-38.17-46.56-57.95-69.24-4.73-7.45-11.04-12.6-18.95-15.45Z"/><path class="c" d="M2061.36,846.27c-12.27-15.14-27.09-25.31-44.47-30.5-11.87-2.88-23.89-4.64-36.08-5.27-12.4-1.48-24.81-2.89-37.23-4.22-12.63-1.33-25.27-2.59-37.92-3.79-44.81-4.29-89.67-8.1-134.53-11.77-96.41-7.88-192.9-14.84-289.49-20.25-94.72-5.31-189.55-9.13-284.41-10.47-44.06-.63-88.12-.63-132.18-.26-48.36,.41-96.7,1.57-145.05,2.71-90.85,2.13-181.72,3.96-272.59,2.27-88.44-1.64-176.79-6.25-265.04-12.23-181.77-12.33-363.15-30.72-543.55-56.18-.03,6.33,2.45,11.79,7.44,16.4,13.29,17.25,27.05,34.11,41.29,50.58,13.97,16.7,28.41,32.99,43.3,48.88,3.75,5.66,8.74,8.99,14.99,9.97,177.17,22.2,355.09,38.42,533.35,48.76,42.23,2.45,84.49,4.55,126.76,6.21,23.72,.93,47.46,1.69,71.2,2.16,23.59,.47,47.18,.45,70.77,.67,44.34,.42,88.67,.47,133,.01,43.65-.45,87.3-1.26,130.95-2,44.19-.75,88.39-1.5,132.59-1.47,25.72,.02,51.43,.49,77.14,.81,18.16,.23,36.32,.45,54.48,.81,93.4,1.85,186.75,6.01,280,11.54,89.43,5.3,178.79,11.87,268.08,19.2,44.77,3.68,89.54,7.49,134.26,11.79,25.11,2.41,50.23,4.9,75.26,8.12,12.05,1.5,24.06,3.28,36.03,5.33,11,1.87,21.92,4.15,32.75,6.85l-5-1.54c18.52,5.29,34.95,14.67,49.28,28.13,4.86,3.16,6.41,1.98,4.64-3.54-5.48-11.44-12.32-22.05-20.52-31.83-14.37-19.51-29.09-38.76-44.15-57.74-7.29-10.47-15.73-19.85-25.34-28.14Z"/><path class="c" d="M2014.4,666.96l-7.33,4.47h6.2c-12.08-.62-24.12-1.72-36.11-3.32-12.7-1.34-25.4-2.62-38.11-3.85-25.55-2.49-51.12-4.84-76.7-7.11-44.99-4-90-7.77-135.03-11.33-89.93-7.12-179.93-13.36-270.01-18.3-94.47-5.17-189.06-8.77-283.67-9.91s-185.04,.78-277.55,2.71c-90.85,1.9-181.74,3.31-272.6,1.13-85.02-2.04-169.98-6.5-254.83-12.2-178.83-12.01-357.26-29.98-534.76-54.87-7.59-1.69-8.47,.04-2.65,5.2,14.16,10.15,29.14,18.93,44.96,26.35,29.54,15.57,59.28,30.74,89.23,45.53,15.29,8.46,31.19,15.44,47.72,20.95,175.79,18.18,352.12,31,528.73,37.56,47.69,1.77,95.4,3.04,143.11,3.67,40.63,.54,81.24,.19,121.86,.02,44.05-.18,88.09-.39,132.14-.75,46.86-.38,93.73-.76,140.6-.72,47.99,.04,95.99,.49,143.97,1.85,44.21,1.25,88.42,2.86,132.6,4.77,91.15,3.95,182.22,9.55,273.21,16.11,93.03,6.7,185.99,14.35,278.88,22.67,44.86,4.01,89.71,8.13,134.5,12.86,25.28,2.67,50.56,5.5,75.73,9.02,12.33,1.7,24.63,3.62,36.88,5.77,9.78,2.38,19.69,3.76,29.74,4.12h6.2l1.52-5.83c-3.45-6.72-8.9-11.55-16.33-14.48-22.99-13.64-46.28-26.74-69.88-39.31-23.43-12.88-47.14-25.21-71.13-37-6.52-4.62-13.54-6.54-21.06-5.75Z"/></g></g><g class="g"><g><path class="c" d="M1993.42,934c-3.37,10.85-10.92,13.65-22.65,8.39-12.66-1.58-25.34-2.99-38.04-4.24-25.43-2.6-50.88-5-76.33-7.32-44.92-4.11-89.87-7.93-134.84-11.55-96.35-7.75-192.79-14.53-289.32-19.69-88.27-4.72-176.63-8.1-265.03-9.32-95.54-1.32-191.02,.63-286.53,2.74-93.96,2.08-188,3.8-281.97,1.26-82.06-2.22-164.05-6.49-245.95-12.02-181.86-12.28-363.32-30.68-543.81-56.2,3.8,8.35,9.82,14.96,18.06,19.83,25.82,20.78,52.02,41.08,78.6,60.9,26.37,20.09,53.09,39.69,80.18,58.8,6.95,6.58,14.96,10.55,24.04,11.91,184.2,18.26,368.98,31.02,554.01,36.61,42.23,1.28,84.48,2.18,126.73,2.53,23.66,.2,47.32,.22,70.99-.02,17.56-.17,35.12-.54,52.68-.66,50.44-.33,100.89-.54,151.33-.85,43.5-.27,87-.44,130.5-.16,44.22,.28,88.44,.98,132.64,2.54,49.66,1.76,99.33,3.76,148.96,6.2,87.32,4.29,174.57,9.92,261.75,16.42,95.72,7.13,191.39,15.12,286.94,24.17,44.4,4.2,88.82,8.55,133.06,14.17,24.52,3.11,49.03,6.58,73.31,11.27,11.23,2.24,22.43,4.61,33.61,7.1,11.34,2.84,14.29-1.34,8.85-12.56-2.99-8.12-8.29-14.64-15.89-19.57-23.27-20.6-46.94-40.73-71-60.39-23.84-19.93-48.07-39.39-72.68-58.36-6.27-6.54-13.68-10.51-22.21-11.92Z"/><path class="c" d="M2049.44,1025.66c-9.91-3.32-19.85-6.56-29.82-9.7-11.72-.46-23.4-1.48-35.02-3.06-25.17-2.83-50.34-5.53-75.55-7.95-44.81-4.3-89.67-8.16-134.53-11.84-96.39-7.92-192.86-14.89-289.42-20.34-94.68-5.34-189.47-9.21-284.3-10.63-92.39-1.38-184.75,.13-277.11,2.18s-181.66,3.78-272.5,2.11c-88.45-1.62-176.82-6.13-265.08-12.02-181.86-12.14-363.33-30.39-543.83-55.71,1.46,7.4,5.35,13.54,11.68,18.4,18.3,19.42,37.04,38.41,56.22,56.97,18.93,18.81,38.29,37.17,58.06,55.09,4.99,6.23,11.2,10,18.63,11.31,183.63,21.17,367.97,36.35,552.63,44.87,42.17,1.95,84.36,3.55,126.57,4.58,23.69,.58,47.39,.98,71.08,1.06,17.66,.06,35.31-.12,52.97-.09,50.56,.1,101.11-.03,151.66-.58,43.6-.47,87.2-1.11,130.81-1.47,44.27-.37,88.54-.52,132.81,.28,25.34,.46,50.68,1.17,76.03,1.75,24.32,.56,48.63,1.26,72.94,2.12,87.42,3.08,174.78,7.8,262.06,13.6,95.84,6.36,191.6,13.9,287.28,22.36,44.52,3.93,89.05,7.94,133.46,13.01,24.52,2.8,49.06,5.83,73.35,10.24,11.18,2.04,22.3,4.35,33.37,6.91,11.31,2.15,22.43,5.06,33.35,8.73-.95-7.28-4.4-13.43-10.34-18.46-11.8-13.94-23.93-27.59-36.38-40.95-15.3-16.92-30.85-33.61-46.63-50.08-10.4-12.07-21.87-22.97-34.43-32.69Z"/><path class="c" d="M1985.21,889.88l-5.88,4.98,6.22-.11c-11.61,0-23.15-.86-34.64-2.57-12.69-1.33-25.38-2.62-38.08-3.85-25.55-2.51-51.12-4.88-76.69-7.17-45-4.04-90.02-7.82-135.05-11.4-89.98-7.14-180.03-13.39-270.15-18.33-94.57-5.18-189.24-8.79-283.95-9.93-92.65-1.12-185.26,.77-277.89,2.68-90.84,1.88-181.72,3.27-272.57,1.08-84.91-2.05-169.76-6.51-254.51-12.2-178.61-11.98-356.82-29.92-534.11-54.76-7.78-1.57-8.62,.18-2.52,5.26,14.75,9.97,30.3,18.54,46.64,25.73,30.59,15.16,61.36,29.92,92.33,44.29,15.83,8.24,32.25,15,49.26,20.27,182.14,17.94,364.85,30.45,547.8,35.87,41.71,1.24,83.43,2.09,125.15,2.45,40.66,.35,81.31-.18,121.97-.42,50.27-.31,100.54-.61,150.81-.93,43.75-.28,87.5-.44,131.25-.16,95.16,.61,190.27,4,285.31,8.74,88.06,4.4,176.04,10.14,263.96,16.74,96.18,7.22,192.31,15.31,288.34,24.32,44.71,4.2,89.42,8.53,134.01,13.85,25.02,2.99,50.01,6.27,74.87,10.41,11.5,1.99,22.99,4.01,34.47,6.08,4.85,.11,9.69-.18,14.5-.86l-3.57-5.09-10.79-11.69c-12.33-9.34-25.51-17.33-39.54-23.98-19.53-10.59-39.21-20.88-59.04-30.89-15.76-8.25-31.7-16.11-47.84-23.58-6.28-4.31-12.97-5.92-20.06-4.84Z"/><path class="c" d="M2017.09,1055.1c-12.63-8.66-26.39-12.44-41.29-11.34-12.21-1.27-24.41-2.63-36.59-4.09-25.2-2.82-50.45-5.27-75.7-7.63-44.85-4.18-89.74-7.99-134.64-11.62-96.34-7.78-192.77-14.6-289.29-19.82-88.3-4.78-176.68-8.24-265.1-9.55-50.59-.75-101.2-.73-151.79-.16-44.92,.51-89.83,1.59-134.73,2.59-93.99,2.1-188.04,3.87-282.05,1.53-82.11-2.05-164.14-6.17-246.1-11.64-181.89-12.16-363.4-30.44-543.93-55.77,.47,7.5,3.51,14.05,9.14,19.67,15.56,21.52,31.61,42.67,48.14,63.45,16.26,21,33,41.61,50.21,61.83,4.12,6.8,9.77,11.31,16.94,13.55,184.51,22.33,369.79,38.44,555.4,47.99,42.41,2.18,84.84,4.03,127.28,5.3,23.86,.71,47.73,1.25,71.61,1.45,17.8,.15,35.6,.06,53.4,.17,50.66,.32,101.3,.3,151.95-.26,43.5-.48,87.01-1.22,130.51-1.76,43.99-.55,88-.96,131.99-.44,25.15,.3,50.29,.86,75.44,1.29,24.19,.41,48.37,.97,72.56,1.69,87.09,2.6,174.12,6.95,261.08,12.44,95.63,6.05,191.2,13.36,286.66,21.67,44.36,3.86,88.74,7.82,132.99,12.88,24.19,2.76,48.4,5.77,72.35,10.18,10.81,2.02,21.57,4.28,32.28,6.79,11.32,2.05,22.26,5.39,32.82,10.04,.09-7.31-2.45-13.86-7.62-19.64-13.82-21.72-28.16-43.11-43-64.15-14.56-21.24-29.61-42.13-45.16-62.65-3.63-6.85-8.88-11.52-15.76-13.98Z"/><path class="c" d="M2010.41,967.97c-6.55,8.52-15.17,10.78-25.87,6.77-12.54-1.59-25.09-3.04-37.67-4.35-25.35-2.7-50.74-5.13-76.13-7.49-44.89-4.16-89.81-7.99-134.74-11.62-96.34-7.78-192.76-14.57-289.27-19.78-88.27-4.76-176.63-8.2-265.03-9.49-95.53-1.4-191.01,.41-286.51,2.49-93.97,2.05-188,3.78-281.99,1.33-82.08-2.14-164.08-6.3-246.01-11.77-181.92-12.15-363.45-30.45-544.01-55.85,2.98,8.37,8.3,15.17,15.96,20.42,23.46,21.75,47.32,43.04,71.6,63.88,24.05,21.1,48.49,41.73,73.32,61.89,6.28,6.84,13.76,11.15,22.47,12.93,184.34,19.35,369.31,33.03,554.55,39.7,42.3,1.52,84.62,2.68,126.95,3.26,23.73,.33,47.47,.47,71.21,.34,17.64-.1,35.28-.42,52.92-.49,50.52-.19,101.03-.37,151.55-.78,43.49-.35,86.99-.7,130.49-.66s88.27,.44,132.39,1.74c25.3,.75,50.59,1.72,75.88,2.56s48.5,1.74,72.74,2.8c87.24,3.84,174.4,9.13,261.49,15.37,95.68,6.85,191.3,14.65,286.82,23.51,44.36,4.12,88.75,8.35,132.96,13.86,24.4,3.04,48.8,6.41,72.94,11.1,11.15,2.22,22.25,4.63,33.31,7.23,8.24,3.51,14.42,1.59,18.55-5.76-2.41-8.32-7.24-15.22-14.48-20.69-21.78-22.25-43.99-44.06-66.62-65.43-22.4-21.63-45.21-42.8-68.44-63.53-5.8-6.98-12.91-11.48-21.33-13.51Z"/><path class="c" d="M2043.53,1209.53c-18.93-33.07-40.39-64.26-64.38-93.58-8.33-10.26-18.41-16.84-30.26-19.74-11.16-.95-22.31-1.95-33.47-2.98-12.37-1.53-24.76-2.88-37.16-4.05-44.7-4.41-89.48-8.12-134.25-11.79-96.48-7.9-193.05-14.9-289.7-20.33-94.99-5.33-190.08-9.16-285.21-10.5-47.01-.66-94.02-.58-141.04-.06-48.54,.53-97.06,1.9-145.58,3.22-94.06,2.56-188.13,4.7-282.23,2.74-88.42-1.84-176.74-6.98-264.93-13.34-181.59-13.08-362.78-32.1-542.95-58.35-2.07,3.7-1.84,7.5,.69,11.4,5.38,11.79,11.31,23.3,17.78,34.53,6.17,11.4,12.86,22.48,20.08,33.24,2,4.2,5.12,6.39,9.35,6.57,176.21,25.16,353.33,43.73,530.85,56.8,83.25,6.13,166.6,11.4,250.07,13.28,43.89,.99,87.77,1.64,131.67,1.39,46.86-.26,93.7-1.28,140.54-2.56,47.54-1.29,95.07-2.93,142.62-3.8,44-.81,88.03-1.01,132.04-.83,87.37,.35,174.72,3.04,261.98,7.19,89.56,4.27,179.04,10.09,268.44,16.86,44.93,3.4,89.84,7.03,134.73,10.88,25.4,2.18,50.81,4.4,76.17,7.02,12.25,1.22,24.48,2.63,36.69,4.22,10.81,1.58,21.62,3.2,32.41,4.86l-3.78-.92,17.86,4.79-3.77-1.06c24.35,19.33,45.55,41.74,63.6,67.21,1.71,2.61,3.99,3.59,6.86,2.94,2.33-1.79,3.04-4.18,2.12-7.16-2.01-6.76-4.6-13.29-7.75-19.61-2.84-6.46-6.22-12.63-10.13-18.49Z"/><path class="c" d="M2009.48,1098.07c-10.26-12.54-22.45-22.09-36.59-28.64-11.66-1.57-23.36-2.85-35.08-3.84-12.38-1.47-24.77-2.84-37.17-4.13-12.62-1.3-25.24-2.54-37.87-3.72-44.8-4.23-89.64-8.04-134.49-11.7-96.4-7.86-192.88-14.8-289.44-20.18-94.7-5.28-189.5-9.06-284.34-10.36-44.04-.6-88.08-.59-132.12-.19-48.32,.44-96.63,1.64-144.94,2.79-90.83,2.16-181.67,3.98-272.52,2.26-88.49-1.67-176.9-6.35-265.19-12.38-181.86-12.41-363.33-30.89-543.82-56.48-.97,6.14,.66,11.8,4.89,16.97,10.52,18.54,21.57,36.76,33.13,54.67,11.28,18.09,23.06,35.85,35.36,53.26,2.88,6.03,7.3,9.91,13.27,11.65,177.93,23.37,356.64,40.44,535.72,51.86,48.41,3.09,96.86,5.73,145.33,7.71,17.87,.73,35.75,1.36,53.64,1.83,23.76,.62,47.52,.76,71.28,1.09,44.41,.61,88.81,.8,133.22,.38,46.7-.44,93.39-1.41,140.08-2.36,47.21-.97,94.44-2,141.66-2,19.17,0,38.34,.24,57.51,.35,24.14,.15,48.28,.33,72.42,.75,90.16,1.56,180.27,5.34,270.29,10.46,92.51,5.26,184.95,11.94,277.3,19.49,44.64,3.65,89.28,7.43,133.85,11.82,24.74,2.43,49.5,4.94,74.12,8.44,11.51,1.59,22.96,3.5,34.36,5.75,10.69,1.57,20.97,4.57,30.83,9l-4.67-2.31,26.67,21.37c4.35,3.88,6.06,2.95,5.11-2.81-3.75-12.21-8.96-23.8-15.64-34.77-11.36-21.59-23.1-42.98-35.22-64.15-5.67-11.52-12.65-22.14-20.95-31.86Z"/><path class="c" d="M2028.8,944.54c-9.29,3.82-18.89,4.52-28.8,2.11-6.27-.75-12.55-1.46-18.83-2.14-23.27-2.55-46.57-4.87-69.88-7.07-51.31-4.85-102.66-9.24-154.02-13.38-79.26-6.38-158.57-12.15-237.94-16.95-95.03-5.74-190.16-10.1-285.35-12.14-95.33-2.04-190.64-1.1-285.97,.96-91.93,1.98-183.88,4-275.84,2.76-88.72-1.2-177.39-5.39-265.93-11.01-187.87-11.91-375.34-30.43-561.79-56.46l-6.26-.68,3.02,5.53,12.78,11.02c16.01,11.7,32.27,23.04,48.77,34.03,25.28,17.16,50.66,34.17,76.52,50.43,7.01,5.05,14.42,9.4,22.22,13.05,4.1,3.18,8.69,4.68,13.79,4.49,168.47,17.87,337.45,30.87,506.72,38.13,48.1,2.07,96.22,3.68,144.35,4.64,41.05,.82,82.08,.92,123.14,.63,46.82-.32,93.64-.27,140.47-.67,46.78-.4,93.56-.91,140.34-1.06,44.41-.15,88.82,.03,133.23,.9,26,.51,51.98,1.46,77.97,2.26,24.4,.75,48.79,1.55,73.18,2.53,93.99,3.75,187.9,9.34,281.72,15.99,96.08,6.81,192.09,14.65,288.02,23.3,44.68,4.03,89.36,8.15,133.94,13.21,24.9,2.83,49.79,5.89,74.5,10.08,11.64,2,23.24,4.21,34.8,6.63,9.85,3.91,19.29,3.71,28.33-.59-2.66-7.19-7.53-12.74-14.62-16.66-21.4-16.73-43.17-32.96-65.31-48.71-21.93-16.03-44.22-31.55-66.85-46.58-5.96-5.49-12.76-8.36-20.42-8.61Z"/><path class="c" d="M2058.35,1160.47c-20.58-25.36-41.76-50.19-63.55-74.5-6.57-2.77-13.54-3.68-20.89-2.73-11.77,.2-23.46-.65-35.08-2.57-12.55-1.42-25.11-2.72-37.68-3.91-44.76-4.33-89.58-8.11-134.4-11.8-96.46-7.94-193-15.01-289.64-20.53-94.94-5.43-189.98-9.38-285.06-10.89-47-.75-94-.76-141-.35-48.5,.42-96.99,1.66-145.48,2.89-94.03,2.39-188.08,4.48-282.14,2.64-88.43-1.74-176.77-6.61-265-12.78-181.7-12.7-362.99-31.4-543.3-57.26-1.41,4.9-.34,9.5,3.19,13.79,8.33,14.45,17.18,28.58,26.54,42.38,9.08,14,18.66,27.64,28.73,40.93,2.58,4.93,6.4,7.69,11.46,8.3,176.76,24.06,354.35,41.75,532.33,53.8,42.15,2.85,84.33,5.37,126.53,7.49,23.67,1.19,47.35,2.23,71.04,2.99,23.6,.76,47.2,1.05,70.8,1.46,44.32,.76,88.64,.97,132.97,.54,43.68-.43,87.36-1.38,131.04-2.42,44.27-1.05,88.55-2.26,132.84-2.78,25.73-.3,51.46-.18,77.19-.14,18.19,.03,36.37,.06,54.56,.24,93.51,.93,186.99,4.4,280.37,9.4,89.52,4.79,178.96,11.01,268.33,18.06,44.86,3.54,89.71,7.26,134.54,11.28,25.28,2.27,50.57,4.56,75.79,7.41,12.17,1.32,24.3,2.9,36.4,4.73,10.69,1.79,21.39,3.52,32.1,5.18l-4.25-1.28c22.54,8.42,40.2,23.57,52.98,45.43,2.1,4.3,5.33,6.56,9.7,6.78,1.96-3.9,1.58-7.83-1.12-11.78-5.88-12.18-12.3-24.06-19.27-35.66-6.66-11.77-13.84-23.22-21.54-34.34Z"/><path class="c" d="M2006.08,1006.91c-10.06,3.85-20.42,4.84-31.07,2.96-12.38-1.51-24.77-2.94-37.17-4.31-25.26-2.77-50.56-5.22-75.86-7.59-44.85-4.19-89.74-8.03-134.65-11.66-96.34-7.8-192.77-14.61-289.28-19.84-88.29-4.79-176.67-8.25-265.09-9.57-95.54-1.43-191.03,.31-286.54,2.38-93.97,2.04-188,3.8-281.98,1.4-82.09-2.09-164.09-6.19-246.02-11.64-181.9-12.1-363.4-30.34-543.94-55.65,1.74,8.37,5.99,15.49,12.74,21.38,19.85,23.37,40.15,46.34,60.91,68.91,20.51,22.8,41.46,45.18,62.86,67.13,5.22,7.28,11.92,12.18,20.08,14.7,184.97,20.73,370.63,35.55,556.59,43.53,42.49,1.82,85,3.29,127.52,4.16,23.88,.49,47.77,.8,71.66,.8,17.77,0,35.54-.23,53.31-.22,50.62,.04,101.22-.05,151.84-.52,43.43-.4,86.86-.92,130.29-1.13s87.84-.17,131.74,.81c25.13,.56,50.26,1.36,75.39,2,24.15,.62,48.3,1.38,72.44,2.29,86.98,3.27,173.9,8.12,260.74,14,95.53,6.47,191,14.03,286.35,22.68,44.24,4.02,88.5,8.15,132.59,13.58,24.11,2.97,48.23,6.26,72.07,10.95,10.83,2.18,21.61,4.56,32.35,7.14,8.23,2.28,16.28,1.83,24.16-1.35-1.18-8.32-4.92-15.56-11.25-21.71-18.16-24.01-36.79-47.65-55.91-70.9-18.85-23.48-38.17-46.56-57.95-69.24-4.73-7.45-11.04-12.6-18.95-15.45Z"/><path class="c" d="M2061.36,1086.27c-12.27-15.14-27.09-25.31-44.47-30.5-11.87-2.88-23.89-4.64-36.08-5.27-12.4-1.48-24.81-2.89-37.23-4.22-12.63-1.33-25.27-2.59-37.92-3.79-44.81-4.29-89.67-8.1-134.53-11.77-96.41-7.88-192.9-14.84-289.49-20.25-94.72-5.31-189.55-9.13-284.41-10.47-44.06-.63-88.12-.63-132.18-.26-48.36,.41-96.7,1.57-145.05,2.71-90.85,2.13-181.72,3.96-272.59,2.27-88.44-1.64-176.79-6.25-265.04-12.23-181.77-12.33-363.15-30.72-543.55-56.18-.03,6.33,2.45,11.79,7.44,16.4,13.29,17.25,27.05,34.11,41.29,50.58,13.97,16.7,28.41,32.99,43.3,48.88,3.75,5.66,8.74,8.99,14.99,9.97,177.17,22.2,355.09,38.42,533.35,48.76,42.23,2.45,84.49,4.55,126.76,6.21,23.72,.93,47.46,1.69,71.2,2.16,23.59,.47,47.18,.45,70.77,.67,44.34,.42,88.67,.47,133,.01,43.65-.45,87.3-1.26,130.95-2,44.19-.75,88.39-1.5,132.59-1.47,25.72,.02,51.43,.49,77.14,.81,18.16,.23,36.32,.45,54.48,.81,93.4,1.85,186.75,6.01,280,11.54,89.43,5.3,178.79,11.87,268.08,19.2,44.77,3.68,89.54,7.49,134.26,11.79,25.11,2.41,50.23,4.9,75.26,8.12,12.05,1.5,24.06,3.28,36.03,5.33,11,1.87,21.92,4.15,32.75,6.85l-5-1.54c18.52,5.29,34.95,14.67,49.28,28.13,4.86,3.16,6.41,1.98,4.64-3.54-5.48-11.44-12.32-22.05-20.52-31.83-14.37-19.51-29.09-38.76-44.15-57.74-7.29-10.47-15.73-19.85-25.34-28.14Z"/><path class="c" d="M2014.4,906.96l-7.33,4.47h6.2c-12.08-.62-24.12-1.72-36.11-3.32-12.7-1.34-25.4-2.62-38.11-3.85-25.55-2.49-51.12-4.84-76.7-7.11-44.99-4-90-7.77-135.03-11.33-89.93-7.12-179.93-13.36-270.01-18.3-94.47-5.17-189.06-8.77-283.67-9.91s-185.04,.78-277.55,2.71c-90.85,1.9-181.74,3.31-272.6,1.13-85.02-2.04-169.98-6.5-254.83-12.2-178.83-12.01-357.26-29.98-534.76-54.87-7.59-1.69-8.47,.04-2.65,5.2,14.16,10.15,29.14,18.93,44.96,26.35,29.54,15.57,59.28,30.74,89.23,45.53,15.29,8.46,31.19,15.44,47.72,20.95,175.79,18.18,352.12,31,528.73,37.56,47.69,1.77,95.4,3.04,143.11,3.67,40.63,.54,81.24,.19,121.86,.02,44.05-.18,88.09-.39,132.14-.75,46.86-.38,93.73-.76,140.6-.72,47.99,.04,95.99,.49,143.97,1.85,44.21,1.25,88.42,2.86,132.6,4.77,91.15,3.95,182.22,9.55,273.21,16.11,93.03,6.7,185.99,14.35,278.88,22.67,44.86,4.01,89.71,8.13,134.5,12.86,25.28,2.67,50.56,5.5,75.73,9.02,12.33,1.7,24.63,3.62,36.88,5.77,9.78,2.38,19.69,3.76,29.74,4.12h6.2l1.52-5.83c-3.45-6.72-8.9-11.55-16.33-14.48-22.99-13.64-46.28-26.74-69.88-39.31-23.43-12.88-47.14-25.21-71.13-37-6.52-4.62-13.54-6.54-21.06-5.75Z"/></g></g></g><g id="b"/></svg>