<?xml version="1.0" encoding="UTF-8"?><svg id="a" xmlns="http://www.w3.org/2000/svg" viewBox="0 0 271 338"><defs><style>.b{fill:#418f4e;}</style></defs><path class="b" d="M184.83,177.13c9.48-6.15,13.69-17.21,16.12-27.75,2.73-11.8,3.99-24.61,11.39-34.66,1.74-2.37,3.83-4.61,6.28-6.26,1.19-.8,2.48-1.46,3.87-1.83,.69-.18,1.43-.33,2.15-.29s1.64,.3,1.69,1.29c.03,.47-.26,.98-.51,1.36-.84,1.28-2.28,2.22-3.42,3.21l-4.13,3.55c-2.6,2.24-5.21,4.47-7.81,6.71-9.08,7.81-18.42,16.01-23.77,26.95-2.47,5.06-4.07,10.6-4.15,16.25-.02,1.31,.02,2.64,.21,3.94,.11,.78,.36,1.74,1.16,2.08,2.04,.85,3.5-3.22,4.14-4.44,5.73-11,8.39-23.61,10.2-35.79,.98-6.61,1.48-13.31,.89-19.98s-2.08-12.81-3.57-19.12c-1.3-5.49-2.98-11.04-7.42-14.83-1.85-1.58-4-2.79-6.32-3.53-2.18-.7-5.08-1.35-7.18-.1-1.6,.95-2.2,2.87-2,4.64,.23,2.03,1.43,3.69,3.18,4.72,4.38,2.57,10.69,1.56,15.28,.14,5.1-1.58,10.21-4.55,13.5-8.84,2.79-3.65,3.86-8.65,.73-12.45-1.31-1.59-3.15-2.57-5.22-2.52l.36,.47c.91-4.41-3.49-8.09-7.69-7.61-2.21,.26-4.23,1.42-5.79,2.98-1.4,1.39-2.86,3.35-2.89,5.41-.02,1.71,1.34,3.07,3.07,2.46,1.96-.69,2.75-2.93,2.66-4.84-.26-5.12-5.12-7.86-9.46-9.23-2.85-.9-6.2-1.55-9-.14-2.14,1.08-3.73,3.26-3.49,5.71l.47-.36c-5.03-1.25-8.72,4.14-9.17,8.52s1.83,10.09,6.57,11.21c2.02,.48,4.6-.62,4.78-2.93,.15-1.92-1.55-2.99-3.25-3.16-4.62-.48-9.37,3.78-10.8,7.91-1.74,5.04,1.89,11.62,7.69,11.09l-.32-.56c-2.51,3.78-.21,8.9,3.48,10.95,4.86,2.71,10.97,.13,14.78-3.23,1.48-1.31,3.34-4.06,1.21-5.73-1.71-1.34-3.92,.39-4.9,1.81-2.39,3.49-1.28,8.83,2.11,11.26,4.37,3.13,10.73,1,13.42-3.3l-.42,.17c5.06,.99,11.78-.46,12.96-6.36,1.05-5.28-4.12-8.81-8.05-11.09-.42-.24-.8,.41-.38,.65,3.49,2.03,8.28,5.07,7.77,9.76-.63,5.82-7.34,7.25-12.1,6.32-.17-.03-.33,.02-.42,.17-2.05,3.26-6.23,5.14-10.02,4.14s-5.73-4.61-5.34-8.23c.19-1.8,1.1-3.74,2.75-4.64s3.23,.35,2.71,2.15c-.36,1.22-1.49,2.14-2.44,2.91-3.42,2.75-8.56,4.84-12.84,2.81-3.59-1.7-6-6.56-3.62-10.14,.15-.23-.04-.59-.32-.56-4.16,.38-7.57-3.64-7.44-7.65s3.27-7.47,6.79-9.13c1.54-.73,3.75-1.22,5.3-.23,1.03,.66,1.22,1.96,.55,2.96-.84,1.26-2.44,1.48-3.8,1.07-3.71-1.13-5.67-5.49-5.7-9.08-.03-4.22,3.2-10.36,8.29-9.09,.22,.05,.5-.11,.47-.36-.19-1.95,.88-3.66,2.49-4.7,1.87-1.22,4.23-1.23,6.35-.84,3.61,.66,7.94,2.19,10.17,5.29,1.07,1.49,1.71,3.42,1.37,5.25-.18,.96-.62,1.87-1.44,2.44-1.13,.79-2.57,.41-2.71-1.09-.16-1.77,1.16-3.55,2.27-4.77,1.22-1.33,2.75-2.42,4.49-2.92,3.93-1.14,9.06,1.87,8.13,6.41-.05,.23,.1,.48,.36,.47,2.63-.06,4.73,1.74,5.76,4.05,1.11,2.47,.73,5.2-.49,7.56-2.49,4.85-7.74,8.24-12.71,10.12-2.55,.97-5.24,1.59-7.97,1.82s-5.44,.21-7.84-.92c-2.19-1.03-3.74-3.11-3.48-5.61,.36-3.42,3.85-3.64,6.58-3.06,5.28,1.13,9.69,4.71,12.06,9.53,1.26,2.57,2,5.35,2.67,8.12,.73,3.02,1.43,6.04,2.06,9.08,1.28,6.18,2.05,12.4,1.86,18.73s-1.14,12.55-2.33,18.73c-1.09,5.66-2.35,11.29-4.11,16.78-.9,2.79-1.92,5.55-3.12,8.22-.58,1.28-1.19,2.55-1.85,3.79-.36,.68-2.21,4.9-3.44,3.26-.65-.87-.45-2.95-.47-4-.02-1.42,.06-2.84,.23-4.25,.34-2.8,1.04-5.55,2-8.2,1.96-5.4,5.02-10.33,8.65-14.75,7.43-9.08,16.91-16.39,25.77-24l3.38-2.91c1.01-.86,2.14-1.68,2.95-2.74,.96-1.26,1.27-3.17-.52-3.86-1.91-.74-4.43,.28-6.12,1.18-2.16,1.15-4.04,2.83-5.69,4.63-15.29,16.65-8.93,43.01-23.75,59.9-1.68,1.91-3.59,3.59-5.73,4.97-.4,.26-.03,.91,.38,.65h0Z"/><path class="b" d="M102.47,205.92c-6.94-1.03-10.91-8.18-13.75-13.88-3.41-6.83-5.68-14.33-5.97-22s1.24-14.72,4.83-21.1c1.8-3.2,4.33-5.84,6.35-8.88s3.02-6.24,3.78-9.61c.87-3.88,1.45-7.82,2.13-11.73s1.47-8.04,2.1-12.08c.23-1.46,.39-2.96,.16-4.44-.16-1.03-.44-2.59-1.69-2.74-2.75-.32-4.24,4.46-5.02,6.3-5.78,13.73-4.95,29.23-.98,43.32,2.1,7.43,5.19,14.4,8.21,21.48,1.65,3.85,2.99,7.78,3.49,11.96,.47,3.94,.35,7.93,.08,11.88-.06,.95-.14,1.91-.21,2.86-.09,1.14,0,3.65-1.88,2.76-1.46-.7-2-2.45-2.18-3.93-.2-1.63-.05-3.28,.02-4.92,.1-2.04,.2-4.09,.31-6.13,.45-8.38,1.05-16.76,2.31-25.06,2.39-15.82,7.1-31.26,8.33-47.25,.58-7.53,.4-15.16-1.15-22.57-.8-3.8-2.01-7.46-3.5-11.04s-2.8-7.25-3.57-11.12-1.46-8.13-1.82-12.21c-.17-1.9-.23-3.82-.08-5.72,.09-1.16,.5-6.48,2.46-5.84,1.74,.57,2.19,3.87,2.54,5.38,.46,2.01,.75,4.06,.93,6.11,.33,3.61,.48,7.31,.35,10.93-.12,3.3-.7,6.92-3.17,9.34s-6.35,2.9-9.62,2.04c-3.58-.95-6.57-3.34-9.15-5.9s-4.81-5.39-6.41-8.61-2.33-6.55-1.93-10.05l-.38,.38c8.75,.54,16.59,7.49,18.2,16.12,.12,.63,.14,1.06-.56,1.3-.64,.22-1.51,.07-2.15-.1-1.46-.41-2.63-1.39-3.5-2.62-1.47-2.08-2.24-4.69-2.93-7.11-1.54-5.39-2.19-11.11-1.74-16.71,.02-.3,0-.72,.11-1,.39-1.07,1.36-.86,2.1-.71,.64,.13,1.27,.35,1.85,.64,1.12,.55,2.1,1.34,2.96,2.23,1.77,1.82,3.07,4.04,4.29,6.25,.23,.42,.88,.04,.65-.38-1.54-2.78-3.24-5.66-5.78-7.64-1.49-1.16-6.17-3.62-6.82-.43-.38,1.89-.27,4.01-.21,5.92,.06,2.05,.25,4.09,.57,6.12,.62,3.99,1.62,8.24,3.5,11.85,1.58,3.02,4.91,5.65,8.41,3.99,.11-.05,.2-.2,.19-.32-1.11-9.62-9.47-17.56-19.14-18.16-.22-.01-.35,.18-.38,.38-.81,7.06,3.14,13.55,7.85,18.46,4.37,4.56,10.7,9.03,17.31,6.6s6.74-9.93,6.62-15.8c-.09-4.08-.27-8.17-1.06-12.18-.37-1.9-1.09-7.34-4.02-7.19-1.33,.07-1.71,1.55-1.99,2.59-.49,1.78-.72,3.64-.78,5.48-.12,4.04,.56,8.07,1.18,12.05s1.41,8.29,2.91,12.23,3.11,7.43,4.17,11.35c4.44,16.42,1.46,33.63-1.95,49.94-1.75,8.38-3.63,16.74-4.78,25.22-1.17,8.55-1.71,17.17-2.14,25.78-.16,3.2-.89,7.06,.28,10.15,.42,1.1,1.15,2.1,2.25,2.6,1.02,.46,2.09,.23,2.52-.87,.58-1.47,.41-3.43,.52-4.99,.15-2.14,.26-4.29,.27-6.44,0-4.04-.39-8.09-1.55-11.98s-2.88-7.44-4.47-11.09c-1.7-3.87-3.25-7.81-4.58-11.83-2.61-7.87-4.39-16.08-4.58-24.4s1.06-16.05,4.22-23.41c.71-1.65,1.48-4.01,2.98-5.1,2.47-1.79,2.31,3.56,2.16,4.88-.51,4.35-1.47,8.68-2.23,12.99-1.38,7.9-2.07,16.34-7.1,22.92-2.31,3.02-4.61,5.9-6.24,9.36-1.54,3.27-2.61,6.75-3.21,10.31-1.25,7.43-.45,15.05,1.8,22.21,1.14,3.62,2.64,7.13,4.41,10.48,1.61,3.05,3.4,6.08,5.81,8.57,2.09,2.17,4.66,3.82,7.68,4.27,.47,.07,.68-.65,.2-.72h0Z"/><path class="b" d="M186.61,213.47c-.1-3.08,.01-6.64,2.56-8.79,.91-.77,3.23-2.01,4.09-.67,.91,1.43,.27,3.61-.35,5.01-1.21,2.7-3.4,5.01-5.58,6.95-1.13,1.01-2.34,1.94-3.61,2.78-1.36,.89-3.15,2.12-4.87,1.73-2.88-.66-2.52-5.21-2.15-7.4,.19-1.11,.53-2.22,1.17-3.16,.38-.56,.88-1.04,1.47-1.37,1.57-.86,1.73,1.01,1.69,2.04-.26,6.77-7.17,10.29-12.67,12.38-1.72,.65-4.59,2.09-4.76-.96-.08-1.49,.29-2.98,.94-4.31,1.36-2.74,3.96-4.72,6.98-5.19l-.46-.26c.95,2.4-.64,4.69-2.2,6.41s-3.16,3.18-4.75,4.74c-3.28,3.23-6.56,6.48-9.57,9.97-5.58,6.46-10.23,13.93-11.67,22.47-.78,4.6-.55,9.3,.99,13.72,.07,.21,.34,.37,.55,.22,9.37-6.44,9.86-18.99,10.99-29.22,.71-6.39,1.45-12.78,2.12-19.18s1.05-12.42,.55-18.66-1.62-11.88-3.1-17.68-2.92-11.44-5.31-16.72c-1.95-4.29-5.32-8.48-10.17-9.49-1.66-.34-3.9-.35-4.77,1.41-.71,1.44-.1,3.34,1.24,4.18,4.07,2.55,7.79-2.82,7.66-6.45-.2-5.21-7.25-2.95-9.96-1.48-3.6,1.94-6.17,6.85-2.65,10.16s9.23,1.53,12.88-.89c3.36-2.23,6.05-6.04,4.73-10.22-1.52-4.81-7.37-4.69-11.52-4.39-4.51,.33-8.62,2.12-11.24,5.91-2.34,3.39-3.23,7.76-2.52,11.81,1.62,9.22,11.14,15.33,20.05,15.55,4.92,.12,9.89-1.65,12.98-5.62,2.63-3.38,3.33-7.89,1.38-11.77-.93-1.83-2.39-3.32-4.23-4.23-.43-.21-.81,.43-.38,.65,3.7,1.82,5.62,6.17,4.84,10.18s-4.15,7.5-8.04,8.99c-7.97,3.06-17.98-.52-22.94-7.27-4.42-6.01-4.25-15.03,1.52-20.17,3.42-3.05,8.15-3.52,12.54-3.28,2.26,.12,4.75,.32,6.14,2.37,1.06,1.56,1.27,3.66,.75,5.45-1.2,4.12-6.01,7.02-9.99,7.85-2.24,.47-4.68,.16-6.4-1.45-1.84-1.73-1.84-4.37-.48-6.39s3.65-3.08,5.92-3.76c1.86-.55,5.14-1.28,5.8,1.33,.55,2.19-.85,5.3-2.79,6.4-2.07,1.17-5.67,0-4.69-2.89,.84-2.49,4.78-1.21,6.4-.42,1.91,.93,3.54,2.39,4.83,4.07,2.93,3.81,4.22,8.67,5.59,13.2,2.87,9.46,5.15,19.19,5.44,29.11s-1.36,19.99-2.46,29.86c-.57,5.1-.97,10.26-1.84,15.33-.76,4.46-2.06,8.91-4.68,12.66-1.24,1.77-2.76,3.3-4.54,4.53l.55,.22c-3-8.59-.84-17.98,3.49-25.71s11.2-14.42,17.66-20.79c2.65-2.61,7.75-6.48,6.05-10.8-.08-.21-.24-.3-.46-.26-3.32,.52-6.18,2.8-7.58,5.85-.93,2.02-2.05,7.4,1.7,7.04,1.85-.18,3.85-1.23,5.54-1.96,1.97-.84,3.89-1.83,5.6-3.14,2.89-2.22,5.21-5.63,5.19-9.38,0-1.06-.2-2.71-1.61-2.7s-2.6,1.38-3.21,2.45c-1.41,2.47-1.83,6.65-.61,9.27,1.81,3.88,6.21,1.27,8.61-.43,3.19-2.25,6.38-5.21,8.23-8.69,.89-1.67,1.52-3.66,1.05-5.55-.15-.58-.41-1.44-.94-1.74-.66-.38-1.97-.07-2.63,.15-4.38,1.49-4.94,6.54-4.81,10.49,.02,.48,.77,.48,.75,0h0Z"/></svg>